<mxfile host="Electron" modified="2024-10-17T20:52:26.116Z" agent="Mozilla/5.0 (Windows NT 10.0; Win64; x64) AppleWebKit/537.36 (KHTML, like Gecko) draw.io/24.4.6 Chrome/124.0.6367.207 Electron/30.0.6 Safari/537.36" etag="KMy4Daq5-D2wuqAG3D9D" version="24.4.6" type="device">
  <diagram name="Page-1" id="eT9uF7gHvWRJHwoZyjjB">
    <mxGraphModel dx="989" dy="577" grid="1" gridSize="10" guides="1" tooltips="1" connect="1" arrows="1" fold="1" page="1" pageScale="1" pageWidth="1380" pageHeight="824" math="0" shadow="0">
      <root>
        <mxCell id="0" />
        <mxCell id="1" parent="0" />
        <mxCell id="rTzBZpjFnXUC8isQPW5v-2" value="" style="dashed=0;outlineConnect=0;html=1;align=center;labelPosition=center;verticalLabelPosition=bottom;verticalAlign=top;shape=mxgraph.weblogos.github" parent="1" vertex="1">
          <mxGeometry x="30" y="200" width="50" height="50" as="geometry" />
        </mxCell>
        <mxCell id="bnWY6VPmUPnhluAn7evO-18" style="edgeStyle=orthogonalEdgeStyle;rounded=1;orthogonalLoop=1;jettySize=auto;html=1;strokeColor=#666666;align=center;verticalAlign=middle;fontFamily=Helvetica;fontSize=11;fontColor=default;labelBackgroundColor=default;endArrow=classic;curved=0;" parent="1" edge="1">
          <mxGeometry relative="1" as="geometry">
            <mxPoint x="90" y="224.58999999999992" as="sourcePoint" />
            <mxPoint x="240" y="225" as="targetPoint" />
          </mxGeometry>
        </mxCell>
        <mxCell id="bnWY6VPmUPnhluAn7evO-19" value="webhook" style="edgeLabel;html=1;align=center;verticalAlign=middle;resizable=0;points=[];rounded=1;strokeColor=#666666;fontFamily=Helvetica;fontSize=11;fontColor=default;labelBackgroundColor=default;" parent="bnWY6VPmUPnhluAn7evO-18" vertex="1" connectable="0">
          <mxGeometry x="-0.3283" relative="1" as="geometry">
            <mxPoint x="20" as="offset" />
          </mxGeometry>
        </mxCell>
        <mxCell id="bnWY6VPmUPnhluAn7evO-21" value="&lt;font color=&quot;#333333&quot;&gt;Hub&lt;/font&gt;" style="image;sketch=0;aspect=fixed;html=1;points=[];align=center;fontSize=12;image=img/lib/mscae/Docker.svg;" parent="1" vertex="1">
          <mxGeometry x="520" y="80" width="50" height="41" as="geometry" />
        </mxCell>
        <mxCell id="bnWY6VPmUPnhluAn7evO-27" value="AWS Cloud" style="points=[[0,0],[0.25,0],[0.5,0],[0.75,0],[1,0],[1,0.25],[1,0.5],[1,0.75],[1,1],[0.75,1],[0.5,1],[0.25,1],[0,1],[0,0.75],[0,0.5],[0,0.25]];outlineConnect=0;gradientColor=none;html=1;whiteSpace=wrap;fontSize=12;fontStyle=0;container=1;pointerEvents=0;collapsible=0;recursiveResize=0;shape=mxgraph.aws4.group;grIcon=mxgraph.aws4.group_aws_cloud_alt;strokeColor=#232F3E;fillColor=none;verticalAlign=top;align=left;spacingLeft=30;fontColor=#232F3E;dashed=0;" parent="1" vertex="1">
          <mxGeometry x="210" y="150" width="690" height="270" as="geometry" />
        </mxCell>
        <mxCell id="bnWY6VPmUPnhluAn7evO-32" value="Fargate" style="points=[[0,0],[0.25,0],[0.5,0],[0.75,0],[1,0],[1,0.25],[1,0.5],[1,0.75],[1,1],[0.75,1],[0.5,1],[0.25,1],[0,1],[0,0.75],[0,0.5],[0,0.25]];outlineConnect=0;gradientColor=none;html=1;whiteSpace=wrap;fontSize=12;fontStyle=0;container=1;pointerEvents=0;collapsible=0;recursiveResize=0;shape=mxgraph.aws4.group;grIcon=mxgraph.aws4.fargate;strokeColor=#D86613;fillColor=none;verticalAlign=top;align=left;spacingLeft=30;fontColor=#D86613;dashed=0;" parent="bnWY6VPmUPnhluAn7evO-27" vertex="1">
          <mxGeometry x="390" y="33" width="220" height="200" as="geometry" />
        </mxCell>
        <mxCell id="bnWY6VPmUPnhluAn7evO-33" value="EKS" style="sketch=0;points=[[0,0,0],[0.25,0,0],[0.5,0,0],[0.75,0,0],[1,0,0],[0,1,0],[0.25,1,0],[0.5,1,0],[0.75,1,0],[1,1,0],[0,0.25,0],[0,0.5,0],[0,0.75,0],[1,0.25,0],[1,0.5,0],[1,0.75,0]];outlineConnect=0;fontColor=#232F3E;fillColor=#ED7100;strokeColor=#ffffff;dashed=0;verticalLabelPosition=bottom;verticalAlign=top;align=center;html=1;fontSize=12;fontStyle=0;aspect=fixed;shape=mxgraph.aws4.resourceIcon;resIcon=mxgraph.aws4.eks;" parent="bnWY6VPmUPnhluAn7evO-32" vertex="1">
          <mxGeometry x="88" y="39" width="40" height="40" as="geometry" />
        </mxCell>
        <mxCell id="bnWY6VPmUPnhluAn7evO-34" value="Frontent" style="aspect=fixed;sketch=0;html=1;dashed=0;whitespace=wrap;verticalLabelPosition=bottom;verticalAlign=top;fillColor=#ed7100;strokeColor=#ffffff;points=[[0.005,0.63,0],[0.1,0.2,0],[0.9,0.2,0],[0.5,0,0],[0.995,0.63,0],[0.72,0.99,0],[0.5,1,0],[0.28,0.99,0]];shape=mxgraph.kubernetes.icon2;kubernetesLabel=1;prIcon=pod" parent="bnWY6VPmUPnhluAn7evO-32" vertex="1">
          <mxGeometry x="48" y="119" width="43.76" height="42" as="geometry" />
        </mxCell>
        <mxCell id="bnWY6VPmUPnhluAn7evO-35" value="Backend" style="aspect=fixed;sketch=0;html=1;dashed=0;whitespace=wrap;verticalLabelPosition=bottom;verticalAlign=top;fillColor=#ed7100;strokeColor=#ffffff;points=[[0.005,0.63,0],[0.1,0.2,0],[0.9,0.2,0],[0.5,0,0],[0.995,0.63,0],[0.72,0.99,0],[0.5,1,0],[0.28,0.99,0]];shape=mxgraph.kubernetes.icon2;kubernetesLabel=1;prIcon=pod" parent="bnWY6VPmUPnhluAn7evO-32" vertex="1">
          <mxGeometry x="128" y="119" width="43.76" height="42" as="geometry" />
        </mxCell>
        <mxCell id="bnWY6VPmUPnhluAn7evO-36" style="edgeStyle=orthogonalEdgeStyle;rounded=1;orthogonalLoop=1;jettySize=auto;html=1;entryX=0.5;entryY=0;entryDx=0;entryDy=0;entryPerimeter=0;strokeColor=#666666;align=center;verticalAlign=middle;fontFamily=Helvetica;fontSize=11;fontColor=default;labelBackgroundColor=default;endArrow=classic;curved=0;" parent="bnWY6VPmUPnhluAn7evO-32" source="bnWY6VPmUPnhluAn7evO-33" target="bnWY6VPmUPnhluAn7evO-35" edge="1">
          <mxGeometry relative="1" as="geometry">
            <Array as="points">
              <mxPoint x="150" y="59" />
            </Array>
          </mxGeometry>
        </mxCell>
        <mxCell id="bnWY6VPmUPnhluAn7evO-37" style="edgeStyle=orthogonalEdgeStyle;rounded=1;orthogonalLoop=1;jettySize=auto;html=1;entryX=0.5;entryY=0;entryDx=0;entryDy=0;entryPerimeter=0;strokeColor=#666666;align=center;verticalAlign=middle;fontFamily=Helvetica;fontSize=11;fontColor=default;labelBackgroundColor=default;endArrow=classic;curved=0;" parent="bnWY6VPmUPnhluAn7evO-32" source="bnWY6VPmUPnhluAn7evO-33" target="bnWY6VPmUPnhluAn7evO-34" edge="1">
          <mxGeometry relative="1" as="geometry">
            <Array as="points">
              <mxPoint x="70" y="59" />
            </Array>
          </mxGeometry>
        </mxCell>
        <mxCell id="bnWY6VPmUPnhluAn7evO-38" style="edgeStyle=orthogonalEdgeStyle;rounded=1;orthogonalLoop=1;jettySize=auto;html=1;entryX=-0.027;entryY=0.653;entryDx=0;entryDy=0;entryPerimeter=0;strokeColor=#666666;align=center;verticalAlign=middle;fontFamily=Helvetica;fontSize=11;fontColor=default;labelBackgroundColor=default;endArrow=classic;curved=0;" parent="bnWY6VPmUPnhluAn7evO-27" source="bnWY6VPmUPnhluAn7evO-10" target="bnWY6VPmUPnhluAn7evO-32" edge="1">
          <mxGeometry relative="1" as="geometry" />
        </mxCell>
        <mxCell id="bnWY6VPmUPnhluAn7evO-39" value="&lt;font style=&quot;font-size: 8px;&quot;&gt;&amp;nbsp;EKS Deploy&amp;nbsp;&lt;/font&gt;" style="edgeLabel;html=1;align=center;verticalAlign=middle;resizable=0;points=[];rounded=1;strokeColor=#666666;fontFamily=Helvetica;fontSize=11;fontColor=default;labelBackgroundColor=default;" parent="bnWY6VPmUPnhluAn7evO-38" vertex="1" connectable="0">
          <mxGeometry x="-0.146" y="-1" relative="1" as="geometry">
            <mxPoint x="8" y="-2" as="offset" />
          </mxGeometry>
        </mxCell>
        <mxCell id="bnWY6VPmUPnhluAn7evO-9" value="Database" style="sketch=0;outlineConnect=0;fontColor=#232F3E;gradientColor=none;fillColor=#C925D1;strokeColor=none;dashed=0;verticalLabelPosition=bottom;verticalAlign=top;align=center;html=1;fontSize=12;fontStyle=0;aspect=fixed;pointerEvents=1;shape=mxgraph.aws4.rds_mysql_instance_alt;" parent="bnWY6VPmUPnhluAn7evO-27" vertex="1">
          <mxGeometry x="630" y="152" width="42" height="42" as="geometry" />
        </mxCell>
        <mxCell id="bnWY6VPmUPnhluAn7evO-41" style="edgeStyle=orthogonalEdgeStyle;rounded=1;orthogonalLoop=1;jettySize=auto;html=1;entryX=0;entryY=0.25;entryDx=0;entryDy=0;entryPerimeter=0;strokeColor=#666666;align=center;verticalAlign=middle;fontFamily=Helvetica;fontSize=11;fontColor=default;labelBackgroundColor=default;endArrow=classic;curved=0;" parent="bnWY6VPmUPnhluAn7evO-27" source="bnWY6VPmUPnhluAn7evO-2" target="bnWY6VPmUPnhluAn7evO-33" edge="1">
          <mxGeometry relative="1" as="geometry">
            <Array as="points">
              <mxPoint x="140" y="82" />
              <mxPoint x="140" y="82" />
            </Array>
          </mxGeometry>
        </mxCell>
        <mxCell id="bnWY6VPmUPnhluAn7evO-47" value="&amp;nbsp;CD&amp;nbsp;" style="edgeLabel;html=1;align=center;verticalAlign=middle;resizable=0;points=[];" parent="bnWY6VPmUPnhluAn7evO-41" vertex="1" connectable="0">
          <mxGeometry x="0.2719" relative="1" as="geometry">
            <mxPoint as="offset" />
          </mxGeometry>
        </mxCell>
        <mxCell id="bnWY6VPmUPnhluAn7evO-44" style="edgeStyle=orthogonalEdgeStyle;rounded=1;orthogonalLoop=1;jettySize=auto;html=1;strokeColor=#666666;align=center;verticalAlign=middle;fontFamily=Helvetica;fontSize=11;fontColor=default;labelBackgroundColor=default;endArrow=classic;curved=0;" parent="bnWY6VPmUPnhluAn7evO-27" source="bnWY6VPmUPnhluAn7evO-35" target="bnWY6VPmUPnhluAn7evO-9" edge="1">
          <mxGeometry relative="1" as="geometry" />
        </mxCell>
        <mxCell id="9zOhJ2DyPMQ8Nbj2eEk1-1" value="state file" style="sketch=0;points=[[0,0,0],[0.25,0,0],[0.5,0,0],[0.75,0,0],[1,0,0],[0,1,0],[0.25,1,0],[0.5,1,0],[0.75,1,0],[1,1,0],[0,0.25,0],[0,0.5,0],[0,0.75,0],[1,0.25,0],[1,0.5,0],[1,0.75,0]];outlineConnect=0;fontColor=#232F3E;fillColor=#7AA116;strokeColor=#ffffff;dashed=0;verticalLabelPosition=bottom;verticalAlign=top;align=center;html=1;fontSize=12;fontStyle=0;aspect=fixed;shape=mxgraph.aws4.resourceIcon;resIcon=mxgraph.aws4.s3;" parent="bnWY6VPmUPnhluAn7evO-27" vertex="1">
          <mxGeometry x="79.99999999999997" y="213" width="30" height="30" as="geometry" />
        </mxCell>
        <mxCell id="nvCQGMs4r2rwXDTGHPER-1" value="LockID" style="sketch=0;points=[[0,0,0],[0.25,0,0],[0.5,0,0],[0.75,0,0],[1,0,0],[0,1,0],[0.25,1,0],[0.5,1,0],[0.75,1,0],[1,1,0],[0,0.25,0],[0,0.5,0],[0,0.75,0],[1,0.25,0],[1,0.5,0],[1,0.75,0]];outlineConnect=0;fontColor=#232F3E;fillColor=#C925D1;strokeColor=#ffffff;dashed=0;verticalLabelPosition=bottom;verticalAlign=top;align=center;html=1;fontSize=12;fontStyle=0;aspect=fixed;shape=mxgraph.aws4.resourceIcon;resIcon=mxgraph.aws4.dynamodb;" parent="bnWY6VPmUPnhluAn7evO-27" vertex="1">
          <mxGeometry x="20" y="213" width="30" height="30" as="geometry" />
        </mxCell>
        <mxCell id="bnWY6VPmUPnhluAn7evO-17" style="edgeStyle=orthogonalEdgeStyle;rounded=1;orthogonalLoop=1;jettySize=auto;html=1;curved=0;strokeColor=#666666;" parent="bnWY6VPmUPnhluAn7evO-27" source="bnWY6VPmUPnhluAn7evO-2" target="bnWY6VPmUPnhluAn7evO-10" edge="1">
          <mxGeometry relative="1" as="geometry">
            <Array as="points">
              <mxPoint x="135" y="100" />
              <mxPoint x="135" y="163" />
            </Array>
          </mxGeometry>
        </mxCell>
        <mxCell id="bnWY6VPmUPnhluAn7evO-2" value="Jenkins" style="shape=image;verticalLabelPosition=bottom;labelBackgroundColor=default;verticalAlign=top;aspect=fixed;imageAspect=0;image=data:image/png,iVBORw0KGgoAAAANSUhEUgAAAuMAAAQACAQAAADhdJ85AAAABGdBTUEAALGPC/xhBQAAACBjSFJNAAB6JgAAgIQAAPoAAACA6AAAdTAAAOpgAAA6mAAAF3CculE8AAAAB3RJTUUH5QQdABoKjVYa1gAAAAJiS0dEAACqjSMyAAE+r0lEQVR42uxdd2BUZfa9k05C6EU6KEjvPWXKO+dNEpqo2BAVEaRYVtdesWIHdffn2tYGumJfu64iFlQs2EFBEUEQAQXpLcnvDyKmTHnzZibzktzz/oTMvPne/c6737lNRKGoAzDFTDJTmMYMZjCTWaiPBsw2e5qjzCIez4t5I2cFvG7gpRxvFpkjKl2jzH7MZsODVwPUZ1bZlckMpjOd6Uw1U8xkM8nUB6BQKBSRwCtuYRJTmMZ01mMWs1nf7G76OYlX8To+wlfxCTbyD27ldm7nDu7i7qDXLu7g9gDXVm45eP3BtfiAr/BVvsrX+Biv55WcyUt5smmahtkV9VGfmchgGlOU1BUKhSKov80UpiEDmcwymrIfx/FcXs9HuIAruJVbuZ07uZu7uZf7WMzSmF4l3M99ZdfeSi+ArdyEL/gkbudZLDIPRxayWI/pTFVPXaFQKHUf8LkzkIUsszuP4Tn4J5/j19zKrWVe9l7uZ0mMSTvyq5h7uYc7uZ1buRaL+Rhv4DTTY3ZlFusxHalK6AqFom6RdyrSWY+ZZg8ew7/xPrzPNdzGHdzJPXHwtWPvue/lbu7kNm7jCj7KqznR7MNMZiKDqUzyiFcfs0KhqG3wisdlJJeRd3dOwCz+lz9wG7dzJ/c4wuO2S+p7uYs7uI2r+Dru4TQOMpohExlIMV3qoSsUitrge7uYgnTU87WGH1eVkfcO7ua+GkvdwQh9H/dwJ7dxHd7DPzjePBz1mEEVXBQKRY31vlOQjnpmJx6D2fiQG7mNu2odeQeTXXZzB3/Dl3yY08w+rMcMpjJZ5RaFQlED6NstSEYaMnytMAaz8SE3cTt3c3+tJ+/AodE93MFt/J4P8yy6jSZIR4rHpWSuUCic6n8nM91oBC+uwmv8uQ7Td1X//ECeyzL8A8f42qrUolAoHAVTTBdTzXTfIRjDu/gtt9cR8cSOd76b2/kLXue5Zh8jA+lIVt9coVAknMCRbnbkFD7JldzO3Q5PF3RKMHQnf8OnmI2RvjZIg6rmCoUiERIKUg4QOF7kWu7gXvW/bfnm32E2/EZjpDKJalgKhaI6CNwtSGaaryWOxTNcyx0qoMSAzL/CTA5FOlI121yhUMSZwJFqNEQBH+SP3K4eeAzJfBd/x2JcaHZGOjWbRaFQxBoUupjiawAPbuAX3M49SuBxuPZzJ3/B65zma00VWRQKRax8cI8LKUhjN5yHd/kbd2kQsxoCoN/hevbW4KdCoYheREliqq8lT8GLXMudmgVerSLLr3gKpq+RSiwKhcK2iGI0gJv3cKWq4Alru/U7FnGarxVTVGJRKBSRiCjJSGU3nMdPuI27lcATrJfvOCCxKJUrFIqwgCCJKb4W/DOVUEUU50gsP3IOezOFLqVyhUIRxAdnMlIwHDfySxVRHCmx7OaPnMNeSuUKhaIygQuSzFRfC56CN7mpBmWilLC4bIbmXu4pN0R5Z4ir6vjlvWUzOPezmMUOf3kplSsUioowxXQx2ZcNN+/lSm7jvhogLxwg7V3cze/5Jp/HP3k9r+ZpHMXRHM0jOJBN2TzI1ZR9eARHl7uO4tm8gdfzFj7Gt/gRfuEu7uIe7uU+h84kOkjlhrbVUijqNiBIQorZHmfjXW5yeCDzz/mXG/AB7+e5PIYD2JRN2IgNUZ+ZzGQ6U8uu5OBeKoVJB/9fKlOZijRmMIuZzEI2G7ExmqI1BnMcz+KdeJpLuYe7ucdxlF7C3VyBy70t/Rr0VCjqqIziYjKSMZx38DvucLAPfoC+t3Ip53IG+6EJGjOb9ZAWiqyjgUfyBclMYwbrowGboDUGcgr/gRfxI/dwD/c6htBLuA3vcJyRpPKKQlHXKFyY5G3BY/GKo3XwEu7jXq7Fk5xkdmNjNmBG9afblZF6BuujIZqYXXAkLuOjXMY93MN9DlDS93Mj5rEnVV5RKOoGKHSZyb7mmMYl3Ma9DibwfVyK2YaJVmjAdGfMyTHF70KakYkGbMwuPI4343Wsd4B/vpc/8gZvSzPJrWX7CkVthimmi0nsyln8ltsdmw9ezP1chtmGiZbI8qXki8eha2mmMQuN0AqDOJn/5jLuTSCdl3A3P+Hx3my/yisKRe0VUrxJZjtexeWOlVFKuJ+/4QWMN9rTsQQeRHLJZhP24Aw8hVUJy3Ap5kY8yp50qU+uUNRCCmeStxmmcYljKbyYxVzGmeyDBkh310CVl8IkZKAhDsFwnIensIr7EjBMYy+/5Gne+uqTKxS1iMLzxX+Awj91rJBSzJ18B6ca7ZlZ0zuGeCRPjGTUQwOjnVGAWVzCfdxXra/OYm5Sn1yhqEUUbiZ5s3gCP3Qwhf+OJznSaGHUSB88xAnI5UtFFhujH87Df/FrtQotZT75SNFhcApFDQaELm8Wx+JV/u5YCt+MeUYus5E6rAbo4PaeApJQDw3ZmcfyHvxUbWRezE142OzodUG3gkJRQ8nDBRd8eIG/ObSwp+QAhaO+kWLU+udRlteSbbTHKN5bbWS+lx+iyCcqrigUNQwUugpcGIa5XOfQvPA6ReF/wSNuF1LLkfn+uGvmxfwOZ3mzVFxRKGqU10cXD+ftXOXQgcd1lMIrkrlxgMyP5OPYEGcyL+GvvMvsOFwM3R4KhdPhFY94XWZbXs3vuMuxFD7XyEV2XaXw8mSe70IaGrIbz8ZCbo9jUX8Jd+B1w/OlaAqiQuFoCs+XApe3KaZzCXc6MjO8hFswTym8igCWhHpoYeTjFi5jcdye3H5+zZNzJF9VcoXCmYDQ5c3kWL7r0LTCEu7i6zjS19RIVgqv6pfnii8F9dEOR/JxbIyTX17MX3ibJ3O0quQKhfMoHC4IDLzATTHMSTkwU2d/DPIpSljKxTgezZk2qJYmFcZOZGEDYwBu5bK4UHkJt+NJs8NgVckVCkcdyV1HC4ZhLtfGKCelhMXcj418n/fyJt6M2/lxFKHSEpbyC0wz2iOtp7j1gYWFIUYy6qMdTuTb3B4HiWUXXjc8w1UlVyicAK94xO3i4ZzF5THJSSlhMYv5Jf+Bo4xD2YwNmc1sZButeQq/sPmZqziLPY30fJd64ZH55UY6WsDHB+Mgsezn5zy6QLQoSKFIMIXnS6HL2xR/59cxCGiWsJgl/BK3GEBrNkDaX7TrlsHCZJzE5RF/6hbMRY5Z43ukJAZuGSxIQQN250X8jiUxpfJiLsd0j4Y7FYrEAWK6PPU4nh/G4NhdjsCR7UsZHkD68Im3CZ+I6FN383UWGZqTEr1olsRMduXZeC+mVF7M9bzNU+8EJXKFIhEUDhf/DGjuj3IrF2Mt7jKM4AT+p+9vCu+JSA0/BS2Yql54zKi8ntEG47mIJTFUyzfxTm+zfpq3olBUJ0wx5SRBXzwYZUCzhMX4nfNwpHEoGvhShoUJPnolP5PzIlDDexlpogHNGOKAWm60xZF8mjtj5JWXcDueMtsXaLhToageeMUjeVJWobk7isyREu7kIs5gNzQqr4GHenlQaPBjC5++B0+oGh5XKk9DM/hjSOW78Dy7j9QERIUi/hTullHibYrp/JQ7bB+rS1jCFbgDw9mUmX6XtcM0xRSzGR+x8PmLcbzRXNXweMItPQWpaB5DKt/HRYbbUCJXKOIJiF889XgkXuNvttXwEu7kG5iAjmhgnWi9kiemsAPu5fYwn7+B17GzkdZIpZRqoPIesaXyYn5ouN2agKhQxAcUujyCYZhnu+VsCUuwFndhGJsaGdbzt73iEb/Lk86xfJu7Q0spfJ4+ZPqTNFhWfVTeXZCCVjgBi8rCytFlki/DdCiRKxSxl1I8Mlp4OGfZVsNLWMrFPI+9jQaRiB0QuApc3kY8Di/x1zAF/t/hLKOtmaJqeHXjYNjzNH4Xg3Dn95imRK5QxJTC3XKUeJtgOpfYVMNLuIvP41ijQ2RDik0xxScYwBv5GX/nnpDfsRX3cSAycrVGM2FUnutCBrvyKvwWCyI3dE6QQhEbQAoOqOGv2lTDS7iLL3AUWiLCMnhDCsRsyYv4jYWXx2IcZzRFsnpwiQWFSchiLp/mrig18jW8xlPPp0SuUESHMm94GObZzQ3HZtyHYWyCtNaSHyEh+MToh8e4OSyFb8Wd7GmkpWlI0yFUbqagFSbZaJlQ8fW/kbM9GUrkCkVUUsppUeWGYzPuw1CjoZ20PwiFI/iehZfHQhahvmaHO1Be6cU5YQLS4Ws7lcgViqiklAxM5qf2OqVEQ+FeGSYQHM0lYb95A68zO2uhvTMtCElozKP5uRK5QpGAQzHFEBh43l6nlANCij0KF/GKT/JSeAaXhyXxhSxElqYWOhX5cq4glQM5NyqdXIlcoYhcSvELu/B2rrSjhpdReCO79ZOmeMSdzcu4JoyMo354TXEJks22PAc/K5ErFNV0EB5xQEpZYqsibzdfoM+uFy4iYohf/M3xT24J8+3qh9cYmFLoQjZG4f2oiPw2JXKFwoIf7hEckFI22pBSdvMFjMIh0fjHEEOMfnw2TFhM/fAaBreIGKnojX8rkSsUcT38DhFPY17B5bYSCz/GsWiJNIkwqbD8S2TogbDm4jDfvxjHGY2LXOqH1ywY4k1CB14fpoRLiVyhsHvsNYXCUXyH22xkpazEGUZHI32a5EXxEsmXnBSezx9DnQOwDXdq9/Ca6yjAZbbkuVGo5Jt4mzvDq0SuUFTdXn4x2/AWrgrTryQQsa7jteyFesOjKoCnUNged/P3kIr4ckw2mpiaH16D3YVCF7JxAtYqkSsUsffD3+WOiEOaezifudEW3nhluFDo4/9CKuL7+DAGMWO8+uE1Gm7xiy8To6MIdyqRKxQVvWDzgB/+Y+R+OD/CsWjJKHsJmuKW3BSewaUh72A1zjdaa7+U2kHkpWKkwI0PlMgViijhFY9tPxy/8BJ2MdInRqGGixxML7yJv4RU5BeyIFrZRuEkQJCsRK5QRL2RPOJpxBts+OF7OJ95zPJHnSvCP9MLQ2Wo7+fd7KHJhbWQyFPQJ4oExDIiVyjqrB/uFgj64En+EbEe/jWmoE30YxnKFPERfDdkeuEanoFmGtSsjTDEl2R0jYrIb6YOllDUTZjiEU86JnNJpBm82II72A/1cqKWN7zilZwUnsFlIc8CC1mAjCOjFG4UDifyB2wT+U+YqhOCFHVy65hituZtXBNxfvjbGBubsQxe8cqwZF7A1SHFlIfRnzqMTYk81GCJFUrkijoHiiHGMPw3UjEFf/AGdjPSrrZdoxmAxEMVgWzktezoS9INqkRuhcj1Za+oIyhTo4/lJxEX23+MYxCjshtLJL4cpxmNC7XcXoncyoSgL1lAMXQhFXWDxvPTeAl/iLDp1V7ehT5G2okx8MMP3EVYEv8SRzL9uBh9n6ImELnbhZ583CaR7+diI09pXFEHYIrZCg/z9wgV8ZWciGaxK7vxytAwJI5nMRxpKqbULVDMJAyznUe+nx8okStqPSDog6e4I8Lt8TRzkX6k5MbyPk7md8G3I54wBnqTdEPWSQuNprJzD54326oIp6jVh1ZjGBdEpojjD15pdoptpggEI/hx0OBqMWfzUG+ykrgSuY1rJ55SIlfU5u0xkZ9FGNb8BuPRKLZBRgi68IVQJG62KxLdiHXZ3fClYxzW2STybbjPne7VZVTUUhJfFqEi/jSHI31cTMtuvOLOwj+Cyjobea3ZXkm8bsMtheLLxHjbRP4bb1UiV9QyeCU/jRdzZUQkvo/XsFPsy24onMY1wbYfztYEQ4VIvhQIG/NCW/OnSlnKtThPw+OKWkXieam8nusiKfTBekxmHAiVwqF8JziJ+xr4NcFQIQcGS5gteKlNIi/hD5iqRK6oTSR+HddHWOYzwsgYJTkx35pmUz4aJF9dSVxRyVq6CzrhftvlQJ9p8qGizpI45mIQUuPhyVB4HjcoiSuswRBPEnpxvu0s8oU8XMvzFXWPxPfxVnSOT7IfhUP5XigS1w6Giso2YyZhGD60SeS78YwmHyrqGIljKy8328DFuNxNfib+xV1K4opIAEEyivCLTSLfwts1Z0VRoz0ZXs311gOb+BWTYp0jXuFupnG1krgicmnFqIeT8YdNIl/PK1VYUdRcL2Yif4io0OcEX31/DAvuK91NF76qJK6IHHlSIGzCi23nrHyPCZqzoqiZJH4sv4ogT/xj+JE2Lk506pWBSbieW5TEFXbgl1OE7Xmn7V7kn2rOiqImHkOH8v2ISJzxyU05KKgY/ERJXGHfLfG52MN2zsoePG+20VCnogaBwkP5agRz7uNM4qaYTfmfKtniSuKKiKzaTMJw2zkr23CvO82ry6ioGfBIbgoeDJgREixLfHB8+3pTOKNKZ3ElcUXEHjlSMMJ2zsovWp6vqEm++NXcZJnE5xm9fHHt622I0ZtvKokrYmFLvnqYFOHUqr9CnV/TrzkriprhsRzD5c4hca90deF27qz0vVf7mlJJXBEh8qRQ2JSX2cxZ2c93tKpTURNIvBfftRza/AS5bpcR7zsaya8qeUVz2PY48ejjUkQMU0TQCf+2XdX5H1XIFY6GR3JS8LBlVfwTmPEMbJYJPG34dIXXSglnm+21Fa3CvrDiTcJALrBJ5L/i76qQKxwMCi/kr84hcREIruTmCnLKM+g9UIdCKKKyKiOZjKi0TRVyRY0hcR8/t2jMS1loxJ3EKfTw4wrf+yqHe3TGpiJ696AeJtgsz9+DFzWHXOFQQSU3BY9xj8XeKRNQL94kboq/SaVs8a8wwkxWT0gRLXKlUNCEl0RQG1GxXdZtaoUKZ/onZ3CtJRLfhim++oVxzxOh8LwKEs9anmikqS6piAX8cnU0oc4VHKtErnCeoHJokE7eVZOuZrJZQZwaYFUSVBaXe3nsxN+RrSSuiBXKQp1v2Uw9fFuFFYXzfPE7uM2SAc9mu1Hir35B5Xa2Koj5UDhFHbf6FBRivS0i/4O3qj+ucJYvPoLfWjLeZ9mTrnibr0f6J/GiCuMqXuPA/Li/PBR1zyM3MnGazarO72gqkSscAo/kpmC+peDmJ3BXR4gRghH8rIIqPo5JumUUsUbugarOmTYzVv7raeTVRVQ4xBcfxRWW8lPGGxnxT/YzxOjNV8p7SJhpNNYkQ0U8YEofYRc+aYvIN+B8jdYoHACvuBvwZQvHyv28Ak0L4z553hR/E9zDHeW++VEcPkrc+qgU8XJjkpjHr22VAn3CLnpKVCQcEEyu0gQ2cDvaLtfEXZ32SEsXZlbor7iOR3QX9XkUcd0DGRiPrTaIfAfuUdtUJBgeyUnBMxaKIJbRk59kxP1uurl4LtdUeH2ooKKIM8qKgS63Jax8T6o/rkj0gdKKLl7MyUbcqzbLSHwVS8p98yvsN0IFFUWc4Rexq5DvwTPuNO22qUgYvJJnLUdlDlvFu+DHI/mZvLASiW/GCX4tvldUj0OTbFMh/xkTVFhRJAyGGMP4TVgzfRcDR0h8yRSC3rifv1Yg8VLOYUslcUX1AIJ6ONGGQl7MtzXxUJFIw72L28MZKU7xpcdTnaawCy/mhxWyU0pZym/gc2vJj6KakCsFgua8wVYP8unqjysSdYzsxE/Cmug9aOuPKM3QFLMjRvAk3sC7+H9l1124jtMxnjlmXzTLSXKLW3JTzUPh4am4l59yU9WUR/zdl6XBTUV17ohCF/pwoY3Ew/fUH1ckyhefxnVhDPQnet0ua56GKWYHTuDNfJ1f8Uf+zC3cXu7azF+4hsu5jJ9zMT/kh/yYX/F7ruWOSlLKgettDjDjnqWuUJSHIb50HGNDWFF/XJEIeCUnha8GJNDyHvF5RoNwHrFH3NkwcAlf4Vdcwy02O1RU/N5dOMVMUV1cEUu4JcdlNDb7mr3NHE7iqZzEY8zeZh928zTyHCRyoxXutaGPqz+uSITfYQzjsjDG+Tp6jAyR7meK2ZJHcA7f5Q/cZLMFf2Aaf8roqoKKIjYwxZ/BPpjCB7GQS7iUS7mca7mWa/kTl3Ipv+GnXITneQdmciKn43HVxxU1AhRezI1hPIwJRjqCEXgLHo9/czFXcWuFkcelMfHFx+e7lMYV0cIj+SlGT87Eq1zGdWGGhe/nVv7Gn7mu4vRX9ccVTpZUXg8tqWCe0bGqOk1hd56C+7mYq7kznChj81rAfiqoKKJ2VDJh4j4u5W+xEPrCXutwsvrjiuqVVIaGllSwHUXucuX3+ZKbgsE4E/P5BX+OG4EfuM4xMnRDKKLxwvOSjf74N1eGTaiN3bUXL+ZrPaeiWj2Vq/l7SKN8nB35p4DSkkfwer7Bb/kL98Z9O6wlNUdFEZV1t+SV/K4aKfzPvC6d0KmoPknFnR0uOxavsgD5PJ7X41l+zB+5uVoOpqUs5XK6dTMo7MEUf7pp8EX+Vs0UfsAff1ZPkYrq81YYtiHWNi7nd/ypGun7z2sNDaVxhU0ST+NIfFMNZ8Yg/Q6N4RqaV1QLILi7Sum7k67jx4i31j+FfBmWxNZmH7O32c1spFPWo4chvkY4k6sSaLnb+E91QRTV44vnW2iIlcjraqNxbT2ceiQ/wxiI03kLn+cHXMKv+TW/5EdcxOd5J87icH9DpXSbdl2PE7ghwbb7mdlan58i/sbeAU+HyaBN8IVX0Kv20bhH8tMxnFfxFS7jWv5RpVxqH7fxF37Lt3AbPHnpmvMQ2ermJBnE8oRb7wacofq4Io5wS04Kj+YbjhZUSlmKLSiqXVsBgk48k8/xWws5zCXcyhX8LyeymR7QI3BPevJtB1hvMd/WtENFPKnEjblcmYDwzwa8z/m8gn/jKOYyj3nMg8FrK45rq3BdwKzaQWFuae/iAMzCIq6PaOX3ci2fM0blKSVYI/GmvCrW1cS20w79+vpVxOXI6c7m+VzC3dVM3g/xMo7EIHRjBzZmNsvaXbWQY4XZmB904z2Fw2u+P+6Wti72xxx+wS22yqX2YAWuNzpq7kM46x4r8GCNQ06T23mX0rgiHn54Ph7j+mryVn7ic7wBx2MYurMdGzHIGDYIzg7WKBc/A6j5q94VN/ELbo1qNbfgGeSq2hrGFz+EcxwkC2qYUxFrjzAnGVP5cfz9cGzH27iFR7A/D0Vzb+oJ0iS8mvlB0M87w59ec7cCBK1xHj7gHzFY2T18GTlK5CFXezB+cBCNa5hTEUuY4m+B2/hTfEt4sJFPYRo86IoWSIHle7tGcG/Qgc53s23NPJp6JDcNR/MVboxZ3xkl8tDuQD2e7qgg/T68pE9LESMYYgzic1Ee6q0QeB47GpnDXPmRb8BJ/CnIZy/hMNZMUumDO/B9LLuvs5T78ICvg2rkQXzxDpjrsGyr741h+rQUsSGUAr4VNzGlmIvwN7sEfvAO+3NxkBfEDoyqaR6NKf76nMh3uS0O6/2bcUFOqmatBLSigVzqMBr/nTM1zKmIhY9yIj+OU3LhajyIsejuqz/UlRfdBkzmC0G/5Ux/Wk1Sxw0xOuIG/hSvQDLeh0eP6gGtyAgiX+3gErzEufw3ruW55a7zeQPn8nEswq9xovESvudO8+rDUURJ4uP5ZVwU8c85i1609aUasdmCs4MWI9UodRyCXDzNLXH08PZj1tAU9ccrwiNjhKMrrdRuLOFNPJG57I3ObM+2RlNml7saoDnbsyN6YDiOx238OA475UcjV2UVhRNJ/HOch4FoGiyF0BaNn8Ifg3zbm+hbM7zPfDlaeDQ/jHs20EvsoUf1KhaUxTPLrdFmPIzR6M3mVs5yx4s3BS3RiyN5e4yFmT94oz4rhdNI/HOch0G+7MFRySgB7jWHnwb5xm+YVxM2gikF9TGNy6ohK/9bHqXUUIXGG/DCsvXZyicxAu1ykvIitcIUtORAnsz5MZNZSrjY00jPTgrnkPjnOD/2FF62CTsG7YRRXBNmqZhSkIXz8XO1BM5+4WlK40FofD++4FR2GJ5k10aPECONHWFwVoz88tUs0qelsGfU+fwopiS+htdxaDwo/AAJnil8Puh3n+30EiAIWuEqrK2m/IcfcJwGOStbkJnFs7mBNxlDUB/R759kNuMQnBP0jGj92sxrlMYVdkilO1+PXXYKduDfpNnEn2TG854fCCpHzGRDJ28EQ3wdcCc3V1sa26c0lRgq07g/iW04jC2mSL+YfGKeDHH56mMALgxa02A1JfddtzY2U0Tsl7TAvBg2oV2Ak4321qsybfs/NwQrUMKdRivnRvsN8XXA/8WzuKrK9aTZQXt1VAfyZIAYDejhHGzXbBVFtcEjuSm8LlaDZLGJN7K/kT5W+sZfBromaJrefHRxqveZABIvxjX5ojRefQKlmYRWOJnvRVEEdKWenhSRiRPjuDxGXTwW4Cg2LUgyq2WzhEg5fIbdnLkNDPF1wD+jbnz1B1dwGRdwHh/lo3yUT/A9LuNSLuVSflN5HBk+Mgz17aoTfWWM+NI5gNdig01Z5R2lcUUkZNiBb8Wij8cBP5zprL47P4rfBS01Gu7EbQDBIZxj2xPfjWV4lJfyWORjEAeyOzuwIzuyIw5FLw7kgLIrlybJIk7iBbyVj/Ekb4bSePVLlQUuNMNJNkOeP6C3BqUV1ollTkwO+B/gZLQodFXf0Z3CcQw2QfF7eunEjZ2JS2yN7t2DL3grx2KA0RGN/ClWVnmMIJ0N2JIdnR3urb0YJGPElwEv/2vjif+KqUrjCqtU6OfyGBQsPIxcX8YYGVS99z4gWHssfk+P06irLE888hTDlbyTY9EPLazRt8JhOyyVvXlnxCVeu/CY0rjCAjzirs+XoxVUsInXs4uRjOrfIF34bk2h8TwZLZiEVRGt7V4u4rnIwSEFyUrgNZjIk9iB10ccffrc01CTDhVWDOx8bozSE/8Ck6pXTLFE4yucReNumSA8ll9FQuF4C5PQA9ljJVtNtUbDlAIXW+CsCMOda1ioYpgiPA125EdRZqi8BNNXb1S1iilWaBzbMNJJR1II8rkwgnVdhElGN1+mBiZrB7KkUHzZmIKNEWUj3aI0rghPg5dFlS1ewrvZn6lM3P0H98ZLeQydtNJdOC/o0LnK13Jcib5K4bULAw8Q+ekREHkJFymNK8JRSwcujsoXv4WdmMRE/oJQNH6sU7aAKQWZnEVrNX37+CRpNBopaWqitZXIrUsrK3iYErkibr44NuFytkmEIl7hFxweok7OITTuliMFk2gttPkTrkGXoiQNZ9ZWIveLryHOt5y18gtPUBpXhPAQzRb8wLYv/hvO8DXpLnkJ/Q2G+FrwjSB3uJ5+Z2wACIbgTUuruoQnG42LpIeaZ62FW1yCQzjLYifRrZyjNK4IRS6T+YttEj/T17BABib4N3jkSAlaWOGQTBUKG/NOS7N9XqXJLN20td+BGunCYZhnUR3/QDsdKoL6BMNT+D+bvcXLSHyAM0jyGWfnjVM4nj9YWNVnOYgpSuJ1AYb4kjGUi6yVfqGfFgEpgpFLkc2OyA4icefTOIVd+LQVEjcHFKoiXpfOwmkYZSlnZYOW5CuCm9ED3GlrGMTfnEPipvgb8TXn0rhbRgsusDAaQkm8DnrkRkNcYOE8vI136hlNEZjEu0dUT/hX88wb0dwpJC5C4WF8x7lDlSnsw9eVxBWBXvHjBZ2CniU1d1xhgcbPpI0p3pjPrqNdfidJQ8ETDl9jbyZ4o44WXBy2r/jzSuJ1ExSmkBZyyFfwUCVyRSV4JD8V/7UxdXMx8rwphrM2QvDyn2cTPTaCwq58KeyamjN0Kk/ddaea8mbNHVfYgCHGEButaX/mWCPdWcGWkDT+OBM8xA2CGWHOPEs53puuJfd11x83XRzEb8PsvC28XmlcUZX8Lom4erMYF6ERnPdLgtP4rWyRSOM3xNceT4TuX4czNE+8zvvj2Tg7XHsGvKK5KopKkkpeChdE3ML+BRx+guQ7j8Y7B6Xxa9mYib23E/h9iBXdiRuN5uqJ12245ShBD34WZvd97Wno1cVSVJJUfogwtPkbRzqxNIXC/KBb4DS6EnfHHumfzNtDtTrAXN9hfslVg6zz+9FXHzPCddox3PrCV0QrqcxiUzrzt4wNqiwem1hfHAO4IMSKLkTukeJWc9TTsYwV9AlTircRM1RWUZQDBC9EOLTtSw48WfwO/C0UHs3vAte+JbYxFoWnc13wcDEmGSm6MRVlr/zmnKMlQIpI6KUDv45QUjnHl+3MIx2CN4D9mrmJlFQGJPMfqoorrFmxkQQPtoYsAXpPaVxRnvhOCeElBrq+Qt8jxJk91ii8lJsC3vXr7MNErnLPoE0CSvkUuhVIjhqj4i976YAFIXfhd2YrrS5Q/EV8d1ucQuN4X1yEwquCdCz5F9oikfc1gSuDrOgyHrnLkRKVIlEwxMjC1JD7cDUMFeEUZYf9vFS+X1t8cREI/hWkGnUWmiZ0uNwNQbJUinEVM/WArKi4L0cLBmCbBjkV1mivN1fUFl9chMInnZduSGFjPhbkvl5GX92OioCyypsa5FRYI5jxXBtRb/EhIx3ri3slJy1Iz5KtGJE4sjTE6Bmkr+HPOKUgSbejIsDOzOY5GuRUWDOWm8N23Cvviz9itHGuLw5Bey4MeOffMj+hAU43Pwx4X3dqhooiEEwZKxweMhH4W08jry6UQoTChZEMUcax3jSfY3+NIcZgfuy8PBUKJwYs51hC+DVDRRHMajqHTAX+AT1UjlOIKWYLLo2k7Ac9/eLcca4QjArye+5OcJ7KWdwYILh5hZmhB2NFUGtugf8L2a72OLUehVBYGMn8TdyK5nC24U8K/HtwoTfLSOQ6n8mqwwDexGD1phTB4BNvBsZru1pFeNq7IEixTGAaP9qX6mQll8JLGHgo7QkjEniKoPCsKjT+B8/0afm9Iii8coxgYIhazl2cqzSuEArv5LYIxkT0K3CwpCICwd0Bs8bX00xwP5WpVSpln2MP3YSKMHZzGJeEyFX5UC1IIRS+FUGf8cfYlk7/PYGzxt9k3wTT+Ah+UckXn05NNFSEs5vW/E+IHbncPEQL8uv8oc3TIKKmWGeb9Z1MPKb4GwTuW4KHjI6JlC8gaMZ5lXzxnkriirA03oAXhtiRqzBMZbk6Dgi6RTCBs5jeMY4e9UthJ74T8N6vQeNEmnu+FAgnluu8uFV9cYUli06iJ8SeXM8JakVqJMfwZ8s0vpTdHS+pkF8GvPcJfRL8AqKwMe46qNvP5+G6/RSWXK2eIYKcv+Ny9cbVRCKZ+vMk29Hpv+fEgMPoEhzgPABDjL78H0tZyh953ExRTVNh6fXfJeg0q1Ju513qDqiJ/COCPJXL2Mjx3vgF/DXAnS9gv8TfuVtEkMun+RuuRkP1oRQWbboNnwq6J/fhdbUkNZF53GWZxo9w+pCxoOmGCa3g/At50tvFbihCB916Css23YhXhtiVX6g3rjT+ruV+KpswwO/onPHg6YaJreBUKKKxaWRxeoh9+T07KZHXYXgkLzVIQDAQFb6HznC4wbM53wh498ePdPgLSKEIatVJ9IXYmWsMv7oodfu41iXIDPlA13+cXvoTtLuhIwKciroLQ4xso7ddsqWwd4h2tb9iokp0dfs9P4Df154AJwQjA3Y3dESAs8baSGO20NWLehX78NH8eh67f314iH36Oy5TGq/bxjUugrk/E816ptN/z4yAWfD3oJ0auh14JTcVY3ms0niUdpnG8VyLY+xZIQTtg4iFmnKooHBawPS8wBeKXI6n8eu4JcCd/82XoeqhTQJpzNt4P7OVKKKyy/o8iyV8wZ4/TuEhfCTovtyD59RJqdub9KIIin8G0/nbZW7AzNqxprj1cdtb0R58gd9ytNJ4lDR+Bkv5kz1/HIImuDHEzvxEn07dNi/rxT+bnD693SvDAw9T/oEeNXPbFjKYC1jKf6o/HgMa32fPH4egPs4KOZGzoVeXuQ6b1/3cYZHGv2Y3xwc42wUcpvy/RM7grAU0/iZLuYQFuoZR0fiZLLXrjxtipOHoEHtzpU7krNuiyksh526Xvz5nV8cX4ufys0CT59lKKShKGt/LG1q5NPPe7j4zUnmAhnfj8e6u/Aj/3iNXC4aGzBw3lcbr8ib91LIy7ngah+A4rghw52f40tTIo6TxUr5rDNdVtAePFAhz/xRA6Kad56CZ44rAxpWXYr2Gk186XVQJ0hZrH440tYIzehrfhkuKNFBsfx2HldnjTjwwIMkd+d930cxxRWDvtXMEIyNeRSfHt8W6nTurBjjhVkklCvrpz1fLVvJZHqYraXsdhxzsXbSMQxj53x8a4uS8nf/SJ1N3TWtgwN7cga+H2Nrx3vh/NMAZ8zXtcDBjeS2mqM9nex17H5z8tBVzIl1HCDpwQdC9uZMPqo3XURhiGOWGioW77nd2oNAUf3bAKZwa4IzKRnzZvOVgc7RHfa20jMomjXflRwdtconRzYjw73EIHw4xXPFttfG6K6qczF9qC41T0I3va4AztvDIGOH5f+UnY5yupe1TzTMH13ELbkakf9+C94TYnd8ojddd05oaQSm+42mcBfw6UAWnXwOc0a3rBP5etpr7OacgXUfP2XIymvGGcnb5EQ9hZE+hIS8KsTuXudPUyuvqBr3y4Aat8TQOwST+pAHOOKyrWS6f6X3kOc0fzxcRtMZEzOJROanOzKUxxJeBieVTBHl2hDSeyVND7M4f0EXPSXWTxFvhZe6pRd74JdwYIMDZW2k8ShrvwWcPrucuziySfIfdodEW13M1d/MrY/IYGebAVfTIeIGn3JytYi6MxB+nMJOTQ+zOVRykdl7nYIjRgw9ys2USrwneeKB0w3vQTs07Sj8yi+XbMr3itPoBCocdrN79kmOc+bwp7FlhREtE/jjESOHIELtzrTYvq4ueeC6fsdxNpaZ44wHSDXGRr77mVkQDt5iC07n7r0lKmO6s4zsE5PqDXu7zvo6GM+2zfJCzlMVc4G9sNc7gkULhgBC7cwNPVxqva8fkUXyj3MasBTRuir9+wHTD48dogDN6eyksP1MJj/oOcRJRUnhEuSe+Gqc7USUOEKRcg+MRyd/3CbE7f8PfVRuvMxgsPV08iR9zb4Qk7nAap7AT363aa4JUHyUGNF5eHXdc2iGFR1fwcucNSXHeq9uUES6inDpeyr18Pj/DY/0pdOeGoLtzG+9QS68j6CciPIPfcX/EJO58Gg/U3fB9DFQfJXoaN9I4s9yqOiztsBKNl3Ix+jnUH+9ZqXXbauMoWP/rw/hFiDrOh5XG6wT84m+MmVzNYhsk7nwaH8tvq9zzkzhcjTsm/vjRFWacOirtEILRFbr//cwz6MxVbI0HKthnBP54mK4qe/CsOix1hcRvDjipshbQOASTAjQWmM2WSuMxWd3efKG874frDk9yinBBgY9rKsgqDzjxqfvEm4nKSYOW/XEKDw3YTf/P62O19LqwETthdkQJhjXNG7+Um6oW4htaiB8PWaWUr6MnnPPs8yt16lyAQ5z33D0yRZBTyZGy7I9T2IZPh9ifS5XGazkMMXpwLrdHQeLOp/FrArykxmkhfszcgHFcW2Ey67lOKQOi0F2pF/dSjIIzV7Ej/2vPH6ewBe8KsT+Xmy20TUItJ3HMD1AaU7to/N9VAreapxJLAupWyRd80SnToCjsV2kG62Zc7UwaN7IwvZKVWvTHKWzBu0PWcfZXa6/NG3Aknouw1Kcm0vhzVe74UwxRSSVW6+tPxoUV0uUc449T2LWK3PBsQabzfFOPTK4qq5RytXEkrPzKZrwjJI0PVBqvvSQ+gh/YyBKvDTT+CnqpYcfQkgr4jRP9cQja8d7KjVtR5FhZ5fkA/ng9T3gLz+Z5IfbnLzxGrV1JPNx1n3Np3CPDUvmyDoyIsy21qtTxehPOLZI8J7zCG/HKSs9+B24f5cC4CAT1AnQqXAkfwv/K0D0ON/JMtfZah0HSx8XJ/CRGJF7KF9iBzqWYdny7yh3PZCM17Ni9Ko8WnlopjPwiHZCXb8oYFydW6aaz0Heo83qr5EmhsF+Vhso7cH9GmBcihZk8LcT+3IRzVEKsZRgofVyczh8rqJnRXZ/QsaU0FHYNMPnnTCNdDTumq9yrUp7FFl4mkvgO3xCMqBL9WY/zHCqrtMaDVV46KzES4Wk8VKvaXXjCbKK5KrWLxJM4nT/arNcMfH3hlMyEgCZ+OBdVueNjCzTdMKarbCbjwspFJzASbxUQDMdXAWIjLZ1H5IZ403B0FfcqbL6KIUY6xoXcoRt4QW/XQDVUJfEQ1+c1jMa3OzPIVZMBMTz4qMIq7+fdRuNEr7MhRhc8ESB3Y6JDi/K7VwoWl+WrGCFFrRTBsJA7tJgrOb1PkhJ5rSDxvvEg8ZpH4yt1fFscPMl6vKYy/eC0QhmSaGJswmurWOx+PuHE6AgFTaqsogV/nMLeYfZoMX/k9L5K5EritYbGVzBfaTwOKz2yUuF7Kd9ngl+Ypoxx8eRAEyp5ovNswC8jXXTzjwD++FgjOhpXIq8NGBA/Eq95NP6BNqmNi99btQhlL59ANyTYAuDmyoD+eEM6cBWNdngyUn/cEo0fJPIBaqw1lcT7JXFanEi8lEtqGI3/F93UG481cqVAOLqKP74Vt/taJjK9L4g6XspVPNV5VuATbwYmBLjbkP64RRo/QOTT+imRK4kHGhPFvjWKxp+m9hqPjz/ePEBR+M/4W1GaP5HE2BCXB7DaEr7ka+e0/HGPFAj6VHkZlnIvX/A3NIOvfA+L7e2UyJXEg16DlcYVZf74iiqZz99hUmF6oojcI0cJjuauAFbryPxxCFrgzoAl9VMY/G86BxiNokRee0i8f/xJXGlcEcofL8VSHF0kAxJ3V5X7HP55LWQPOm8NUzAqwGtnP98ONuqEwk78xPJuLeaPnDY4aYgabM1A/+ohcaVxRUh/nKV8nxwp/RNFjI15VUC73YJZIyTXeUTeBR8EuNtfg42gCzPGLRCR/8BTdA/UEFA4tRpIXGlcEcYf536+gwQRuUeOFhwVUFYpxadOmh16cA2b8vqAa/ie0cWIBY2Xcj+/QqHma9WMLVXI72LYOyX4NcKf7MyeDUrjjvHH9/MdmqMkJ1GyytuB+43wIacVAlGYzMKA+3YLbhyUlBcLGi/lXr6vRF4zSPx9210MV/ERfl9lak6wa7KZ6UxiVBpPwIo35g1BjvKvG0ORmL3QgJcGsd0fOJ7OW8MeAV+FpfyGOYwNjSuR13oSL+UV7IRj+KPF/z2dWUrjij9tz/Dg4yC99uajd/UTR54UCP3cEPCe9vEFHuY4f7wt5wc5PTyam+4ORONLbOxyJfJaTeLvoltLOVL4sMU5nVMdTONVG9U+pTQeTxjizeKFQfKYt2FeIogcgm4BpkAduH7HVUUJEXsCo70UCDrjvSB3uw4no+qva8dXbO30vVxodDPUaB1JXf34jm0S/4O3MIcZFEOM07je0t9cz6ZWiPFYMZvzUObQRy+O4CRO5VSOoJc+Guxltmf6qJhTitG6SrLZa+ilHkjcLTAYrWzn3Wxb3a9RQ3z1MCOYSIjPYTjFIgqE2RyLh7k7aHDyXbRDZRpvyftt7vedeEyJ3IG+kNGNTweOy1shccxEWXtRCPIsyioPsHXwjWmK2YzDeBIu4xzO43N8j4u5mF9zLdfzV37BD7mYH/FVPsV7OJvncAR7eRvlJMViCJhHuifxpSr90YepNx5nGk/ljCoDgv8aKjar+gv0IRgSVD/ey0fNhHZYyZOcJG9D9uRIXsQHAjSrrXR6QOX1bsF/2T57K5E7kcTxmEUppOq1HJcaTYqk15/G0Z/fRzONs0hwGI7kVXyEb/Mni+eDzfyCr/BhXsbRZnt/ihk9pVQ+TC9nntJ43EmzMx8L+ozX8xKzmmU4CJpyVtA7WoNpY6txeqgpZprZ1mzHnvSyiKfzLM7mg3yZX1gpqsfnFRMPKWzBu6PINNuJx4zuSuQOgV/8jflIFCR+iq/+mDISF6FwEH+w9JevsRMrk2dz+Hkdn+My7rF1Nzv4NZ/CtRxrtBwShWcOwaOV9VkWKo3HF24ZLxzHVUGf7g84vSC9OpNUPTJRUMS1QanxfWMw4kDX/hR/c3bEAHrpxymcwqm8gLfwZt7BJ/gEX+Zifsb1/C2ivbEJFyOWNF7K7bjX39ivhusMEsesAN2KLZM4sqoYx9JIx7i1lKsFh2IqH+CntqWd8nkES/kfnIXeTKNdGr+tiodzlNJ4NXi/zXl7SJsZc2Q1+r8iELQNIT3s4L2xElZM8aewDdw4gRfwds7lU3yDH3IJV3M9f+W2qHdFMf/H2NJ4KTdjlhJ5wmGK2QSzguqR4a4VlUm8zDysdWr4+UD2QZ7kpnEgLubT3BDTsqMNfI0Xs68dKqfgwiqpZpMLk3XEbHyRK4XC0SFEuWI+U70ZQ34Z5eI4bg0hrEyN1h/Pl2EuXxtMwNWcz/e50mLfwUivEixErGm8lJtx2aCkvmq6iUNfGZTE8/h7LElchMJ/WPMdMNgvbIMxuIVvxsl0t/B/vNjsFqlaDsHEKof7q9hY/fFq8cf/EeKJbsS51ZsfQmHnIPnYB663GWUneggOwzzLcSC716+YEQcaL+HPPH1o0iA13cRguOQmcwpX2uyesjwwiYtQWMifLH3GHTiPj/Abmzq4dSp/mePReIz0jGTr5vGzSp/zb3ZQGo+/P14gOC5I0c2Bl/98VOvQZQpTeEII2XEr7/TXs39O80qRoCDurS+28e6KCb4xovEDLbNO0p2ROL/nGH5vk8T/wJlGNoKZfT+LuSpbuaMaWnCVspTf4Z8YYlqWVyBoyjeqNCjtq8Yafxhi9MVLIZ7lx/A5zB9fGU1pvleKhP442/9uvsAuVRIKYkPjB1pmFWhVRWJI3M9PuM8miV9lND0iSA0bhQMs0nh1Xvu4kKexibXt5pERgsd1qHKCLLMbnwrxJFdzMqubxlN4Qgh9vJgL0AfRfL43ziT+KoYHiGHFisZLuZfvwaNEXv0eTzcutKnFbcFVviYjpE9wo+zvQBovZSl/5E3o3NuVb41MruHmSpthpNL4X8iTnBQ0MduYbdAkJyUvZpbpa4BpIe1nF66tbsII649HlbECQU6cYkMH9ut9VUm8jMbvjdm37OHrWg5U7SSOR+1miuMWX9OioCReVvn2gyNpvJQ78RRyzFRa2FrG0VWmG05nqhL5QRJowxl8mI/xMT7I2bwCZ/JIDGd3f7ZdnbiejBC04YVYFsYC/8Xq/7Wh/fFSrsHUUTLcLo135ztxsvjfeZuvQ5B+4w15eUz31lx0VI+8muAXf2Pcwx02H9ZDaD/A5Q5tlKdb7KqSmOtdHOHLDOc3+MTXmZUbDd0ZuO607sEjIpxS4Snv5xYu4zt8gXfhcpzJIzGYnf0NTMtWWZDGnjgd84IX25Sr/03Eayu0P16KT+CFXRpvxMvikWLINbwIrYLGsOrx1Jh+33bcqVnk1YJ8cWfi2kpygfXra/YtcJnhDP6FOKdORXst4USGOQJ7pU8Snqj0dy+gh3obZcTTif8JEfLawm+5gM/wLl6OM3gM3eweWHoxxZ/Jw+HFJN7Ml/irpeP7rITQeApPCJlIu4ePo5kd+/DIxQKf7T0ZVOjBazjFX98M/osyOSnWvj8uHZLUWzdIfDFQhiXjjAiLeMuHNk9GJsIb/OeOJvED6ZJ/R3OEo6rLK64UViBfabxsbcZxpcUshi1cwff5PP/N23g5ZnAiT+WpPJUTOZkX8Drewef4YQTnt/U8i4n5ze3579B3hguHJLvtSlT3xtQPX8dbMOhCaRfqO2NP4yVcy8l06Q6Jr0/h4gT+YDvJ8OrwGbvDZXpNoPFSrsNFoX0nCAr4daU6uKMKxFPnrciUomRebTM1bTPX8Rf+wl+4jhtsxWdW8IRE0Hi+HCMo4C8hhZVlGA1bK1qYxPwwPQojEDf4PE4Nl5UVFxovZTGXw4QSeRz9CRdMfmV5yFrlEM5MX5MREq7sFoJRXF0DaLyUv+BkX73gGrkhRisuqPQ3F/iyNBpP4aGhdeL4xjY4KDERCojRAjeFSWt9+a9OQRGuaX1OiYGwsoP/49/Ye5a0D/+N8aDxUu7l21phETcYYnS1nWS4gtOMBmPDkrghxmF80+HKeDmNHOOCBzs9MlJ4f6XMeq3kPEAAQ/lWwp7aXCZohmuOFAhzwvjMW3lHQYbf3qq25I22Uw8OUPhbuBKDRlr9vtA0vp1vVDqNWr128QnNWYkL/OJvjIdsJhmuwKmBC+8r4nCZILjCdo8WK8GtDVzLdfyRa7iO67iW26KrAsViuEcm+YMb+pRKJ4v3OEBpnMIcvpsgEv+DlzCRv7wBLwjTwG0VJo62kXrYX0aI0QY3WmxkUbnt1a94jH/HkJzUPOu/JTSNr+RAjKtyHrWas3KH5qzEQddzZ+Iam+1oLZK4CASncplN0SZ4L4gVfJv/4a28CudyIifwJB7L8TyJEzgB03kJ7+A8LuZme90R8Sy6FQbZdBT24+JKd1OkNJ5Qb/wNo3ci/TwIevDlMDb1ib2Kxr4yUowmmMIPIgoq/s6FnINTfB2PivQphqLx/XwD4ksD7Hnk2IyrhiX3UuqNHXIlPwUzYC8/ZTVOs0biFHbjVzFU2H7gi5yDs3AUh7NDsHazfvHXR1t4MQWz+JKNVrfFuM0IkllrSkFGlbLwaVoCBEE7zk0Iia/GlIKEDjKmmCk8Jkyu1x4+zY72rMQQXz24eTu/CCtN7uZSvsA5mIJh/vp+G78kJI1v450UCDIx3mZN9iZO0pyVWG47F0ZxuU354Uo0tEji/fhojEqKf+SLuBzj0AvpVr2aPBmeyt6YiIewLkIq/w3jg30PBNdU6sb+r+of7es0eOQuwZm2u9RHcTLDHb5mRuJfYm15V7gu3LzFnkIuIlIoaMBCXMK5/IiruKlcFsg2/sxvuYCP8Q7+jaPZ05/tt/1CCknjv+MiHPi1WTjVFpEXczmoOSux8h9cHGJ75v1bRpdBLrc1o3jI9iC48j7455yD49HTOoFX8mXa4UQ+Fpk+j3eM/gUBZ8pAjHGVSvJVHZeynjzPVDOJb8WD6J74wJlb3hbkV2ljHCOFvNwpM9lsQ4PH8XRexZmcyZm8HGdwAsdyCNrbp2+LNL6RM/jnaysLk0O1Dg6xmxcaXTWzKza+Q0c+x902SdzjSzOsmUQ3roh6oy7ClSxAdlG05tmZM/hJJC8uXGs0DUQQPvF1qVSSr+q4HCjGx7H8ru6ReJmF1edZ4faUXYW8Gn9FKBrf9FeRVVn3FTuRtR24W0OdUcMUswnusCV1lHA+ci2TeHM+EKWg8iVvh9uXEZt3d5EQnB+B4f0ETg9Q2OOVgUmYW0mOUnX8wLmnIa6IeQF5cN/w/5zUCAGCznwirHZtWyF3AI2v49g/732AjBVfE1xna0ru77g4J3mAUrF95Ig7hefaLL1/wuziT/JbNYiplrphBM9QfYZHov6I2Bppd9xp/bfjdqOVEXjDVirJV3X84Mp0wq1RPXer18+8xlmE6JeiJBaEVYw382b7CnmCaXwVB/614v1khBjNcZ+NbLAS/szxGuqMZqO5MNJmaHM1hzHZ6oiF/Ay+GUWa4Ve4gocVJMfa3A3xtcVsy0T+CwpODuCPQ6pE6lUd/2tt2vPvXBLTQdhVaeBrnuFrYTiPBBvyvLBi5RpMGSk9aiaND2aFF1dBktnFVn7Sfn7OwUrktmnM6Mq3bIY2Z1rLTyn7HjOK8vtXeTTrM04rEAmRB/bHKexfKXd8q6rjf62OWQ9+zI1bY+IdfAWjCtKc6NFC0JlPhrWqb506bCQyGhcxpSCJPbjQ1vSh57Sq0+axz98YD9rKHfmD9xrth7vc1s35bpu6+HY+zoFMiZ+ZG+Jrg4ct3t06FM6r4o+b4s+oUu4xLZ73XLPQRUaI0QFn8LnQTaNs+eHLeB37j5QuDt1hloSVYr6FXqgFNC5iiC8NtNXAaztuN5uYul0iwzDJT8FFtmLLf+A63yFDXXnWSbwtPrV1rP4dt7BLQXJ8Hy4EffC2RWFpZqAOjhTeXelMo+p4BeTJoCSjM07jg1wSo6BnCVbiXoyK1zktpsLKnrAU9oCvtVELaFwOlANN4BobT/Q3nuNOydHNEqEqfhTW2CFX3OBrPEr6R0KTp9o6Uq/ipWgWyTfZJ3LjmCrj2AJfH6B/QBq/rFwJRilLuYD9lMYrY5TgEJo8hw9xMTdGESvZwnd4O47xtXR+xjHEOBTzwv6iDbiioJ7TfFE7NC5CYTYvsOEgFnM5RmoxUCQPyMXBXGxr6v036FAYEbVC8KiNRKQduNhoXD1HTbcMSOZ1lgqCinn86CqzjQI0yFoHqNIXVMZqCh+mYCbv5ktcwpXcaMk+dnAVP+VznMMZGM4GNeM16ZZ7BMP5kYUOocePrQaXJf40PlSOFl8zzLbhIu7lAlXII3k8h/AZWwU/32B8+Ok+VSSVr20oZbONVqMkt/pW5FD+z5KwckfVyYUQFFZpD3TqqCRV+sKseRZ7ogDHYwou4vX8B//DxwJe9/EmXsNzOR4mD/fXq1nFIob4MjEpbBh9Pz8k6bQnFIrGf+JQBnl1DXUZ7TnPlkI+252Zr5sjPPpLXgquDzkzMHgnwwmRkbhNSWU7ZhuHFEl1lgRAMMlSA9BPUWUkAcSonKtSylloqn5FRJRRn23ZJuDVkDX9t7Xm7WGdhH18DT3hrPsOReMr2CbYc7Gfs4JNmIok3Q9WBJXjsdFWa8nr0QiR02PEkgruNloVyoDqNtmGfDxsMKqUOzmi8pg2CrtU7q6Np7VXhOJPmaFI0J3PW3BfHvC1co7VhKHxpQx9BkkzTP5gQyH/FnmqkIcn8d78zEZ4qYRvc1CkaXQQtEWk6UcvolsPl7vaVwaCQi6z8JI5u/JgNwoPr9RXpZTfIFeDnIoD8EtREmnBujbh2kLHVHVGQ+NlDbOm2gh17uEr6KAn2RAwxWzCR211PnjKyLfWP6XSoxwfYbbwZ8xLTM61W/on434La3NP5WRCitmRb1cZUzVKaVxRQTSaZqHQbA0mj5JutYDGRSBohBtthDq3Y7YnSxXyIMgRTwr/ZqsL9AbrpfeVHuRdERX+/M7xrMdIja0l3BzHc3gxL+bFOBPH0m128Keakd/tGAs9+d5gr8rVa2aHADqglgApKtqpFYW8FN9yxKmS44w7DkXjH4Wz7gEyUnBIlbEq1hTyiaqQB6MpF4psdVDZyCvshJk84snERxG9je9AC0RiZi0BXsD7+AF/PKhr7+Fqvs9HcSmOxGGR9BqksBGfDpuG+S2HszL99+CiKv9PS4AU5WBZIS/me8ZQJ4gKIWl8D56BlU9I5kB+aKvLyiDtshKYxDtwgY0OKqt5gdFwkgyK+BsNMQ6LqMf4h+jdSdxWTawxR/OfXBJCBlnJ+Tgf+ciySqcQTOXPYfOX/VVonPyyai92LQFSlIdfipLp4ccWaiaedELOSkga38mHaO0z0jnaxmyg3Xxa+5BXQb54snCbrc4m/2QTe3QEwUkRJBv+zhOtCSpd5W+CwbyBKyyEavfyA9yIAmZb+WRDfO3wZtgj3/ETyuWq5EiB4KoAxUOr4NNAjaKSfWXiJAtt4rY5IWcFgvo4OyiNP0Lrn2JHyv0DF3hS89RoKixmEk7BJhskvhQepNqhI1PMxnw5Au//TmuCil/8WTyKr0XU1OsLXIEeVgQWBKbkitc5RrnseYjRH4sCjmI+QmlcUcW+muBCC6HOTbgm0TkrEDTFzcFmLXG2NRrPlZPFaI67IhZzS/ATYKiwUu5o4+Igfm4jzfB7nBRpwU85Gu8dQd7oagwUC4KKXwoycSaXRfxb9vJFHouGo+SQcKY7OOwUxatx8HwCQU/MC1JMpUFORSCZoTVnW8iIWo2p/oT2WaGwBe8J+po5xyov+KUgid35Pxuphy+jg+aQlxdU7KQZlnAmGtj1KCHwWqqL/HPWZRPDwi8ZnoIZWGuzpdK3uIFdC0OOn/DI4GQ8HSYs+y+2pZjib8B+mIQXuTXY+YKtlMYVFTFURggOt5S/8QOPO0K6JpbG7w6a9nCGdds2xJdm+G0UA23Hre6UYWo0BwWVyOdW7+MzZnerY9oC0vgEyznjqzGoS4DJOhUxTM4SjMOPUbQ33Yv/YLiRhtD3fX6YwWOv8ggWcgZv5ashBZhn0FVlFUVV77Qwmfl830K+xkcsOj1hyYchaXwDT2dkbGBLIccGjNXUQ4mibvMz9vRH0d6JwhncEEtfHGJ4+XEUDU4PXG/CH2owMwR9+WmY3J13udTC6WYxBqs3rghoyRk8ykJVZzHfM4YkyhUISeNrOSIS286VKWI0x78i3r37+L5xeJ1XyPPFk4X7bcz42YipRhaiMlWcTWu9W9ZjSMewvjjFbMhnLHQ9CX8tQlFwIvfI0JSwsoq1ax2oNK4IQpHZPN1CHtcOPIV+SNQ9NuddVgYqWzuD2FTId+Cfdb6mE0k42UYjrF95sdG4vUST7gPBTRY7KtzNlpZySKbHbAxYSCKH4BJujMG37NdcFUUIe26Oayw1Y3uM7RPhDlDYmvODtqkdEuk92VXIsREn12lhhS72siGo7Of9bMrojcDapM+9LAqf0WGI0QYfxHCO4yIOG+XyB7vzvADlPHauySNc2nVcEZTIO+BBC4l4v3NOIrLIKezID4K2qW1nqzlHfZwTsUK+n5+xV52t6bQpqJTwf8ixlyte6ZE9YWU0Bd5GJ1j5tItj4iH/dT1hdBMJdFgzxZ/FF2PyHVeYDZTGFYExSAoE3SxZ2iYkoH89hYfyk2ADZOy4eblyrhjNcXfEkuVO3F9nhRWbgkqJcZQv3RcLX+N9S4/rLNQPZ6CG+Nrir8j+Zn7C//IpPs2n+CqX2ZpjVMpS/AttEOzebwmaRhjJdQ0bqzquCK4XFyXTE5QqK8aPzi+o5nIgCLpwZSxpXMQv/iSzl4WhdiqsRCWobOE9aDkgbMAxHDySm0wrncb3ILe3yxPeoKZwXVlHk1d4EcnD2I7t2M7owVO5yibJ7uCZRjYCf98xNvpAVL2utdvIQFE3YIgvCycGJcvyRLYKU6qXyCHoFaRR3H4usGvXFKZzLDeosBJHQQWP+pqNllaxMIH2VqbN41N0DueLeyQ3lfO5m6X8GbewW0GyWd4oDucXtml2OX0jA6jXEKMdF8WAxs9kutK4IgytNeLZVnoP4SdMqc66Tgp7Bw27PsAoPhcNeVPExfk7cZ8ntY6VAiEJJ9kQVL5AfvSqeJkJDKaVQp2bw2t+EPTjMpbyK5yDJqj8b0dY8WWCXg8EygLwyFjhE1EnHb6Bvpqpogjv8hgtcaMlafAHHjtWulQXiSfTjLYxViC4ZbjL6MSXI91f+BVj6pSwYlNQ2cXxzGCsjGCAJRofFT5LhcK/cyM/43Gs0nKWgmvDtrIKnZU6wZtuBHp1XGmhgVGo60sWFSVrq01FOOTKCDEOxSOWpIXFKDiqWoicwkxODtZ9kDdFwxMQpMAdsfu1j4vQvs70WMkXTxbui7iHyh94MHbRcApHhu3cXcrf2JNWPutZvocxlWdginhkWApfiK6uE68Z3RDI0I6wMAko+PUpTvRl61BlhRUMlkJhT75hicg/qh4ihyCLU4N2VJnOaD+9Ps6NWPTdjpvrjLCCJEyIWFApwT3mYfY7qASg3jMsJAi+w06WaPwyGEgPSLZ9+HXIb9jMX8M0y92Hk31V/HEIWlWedm/52sxnaKgqrrAOUwqT6QnTBKIckR8ddyKnoDGviU1HlarIkzPFaIn/RCysbKgjwgpc6MBPI/ZQN5r9YkfiIhROtxCNnh8s5a/i6SK/Xn5SfrBvWRe068NLvIPncQav5oOhpgQF9scpnGvDz9/GRbwCHUZKe+UmRQQwxJeFEyydAKuFyMN0VBkZg/LAZA620FemsrDyHg+p9Q5SrnjScG3EU3528HJr83FiTOOz0cy+jOOWycK5QUJDb+EsdvanmCJiij8bJv/BH4NEx/fhBKNKYJfCv0cwu6iUpVzDV3k1h8YqvqCoW6Awm1PDdNcsR+QnSzzlBQgO4SNBO6oMYiy+IRPTIxZWtuFST1purffFc7AqwqPKPrweySjj2NE4zjMa2P9eQ4y2QUY8vG4OLp+WKGKKvz4m4usgRP4wO1QNnhJhBJu/QsMr+Q7vxWns6k/Vqk1FFMTWHNdaav+2n+8buYjvvXTgW8EyZsKnCYdHvogYLfF4hGxVglXIqdWBznzx1i/LsI6k+P4zjom1kmvRG5/MzKjyT0cEbLSzkMMqkriIyBAZK8bEIIMs1sE4pVLJE4VNuDDE4W4zf+JXfJ2P4FpMwODwtagKhRXyxMOWcqp34wX0iZ/NUXhoUK1+aX6qJzbfkczB/DbiccvzvfVrcWk+kjCBmyOt28SFsacgizQ+lVnR0DgvDPAd6zk68NRNtwxP5RWBA6+4qOq5gMIb+Ck/42t8jv89eD3PR/gv3MDzMZGj2dNX71RJVf5RxARDpFDQjS9bTJZ9Mn5EDsHhQbsRfsHYfUsmZkQsrGzGhFob6LQV3CzBQ+zqT461FGCRxo+wMuY4hAnMq3rywByjpRH8rppwXsBg54vsyiqije8w+FjIHmxf7urgy5wkGco4irjALwXJzLWYJbUDT6J3fIg8RCn+Pr4SKxq3Kazs56e1dEpnrnjScE2Ewc0SfsnBTI59SM4ijfeLsojgrQAthDzNQnSEgRh5/CpgBnu+BiYVTgCFqSyyGJeJG5FT2CdoDedDjOX32BFWtuMab20MdNoKbq7nCfHJq4g/jZviz+TiKp/4f2iFkG//4wWzAgpPJxupqm4rnID/Z++6w6Oq0vc3k0lPCBCaCNIUpCginSRTzvvehI6i2BV73bXrrl1XV2zr6iprW7ursj/LytoAu9hAVFBsKBZQUYq0JKT//kiAtMncM3Nn5s7knvM8+4fPMrn3nPO99zvv937fpySQhdkmy0eV4v+w/50y3Gr7TSGD5nDeZCVmhEWs1OIH+FWyESthBjfnRd4eIn4wbgxq0dyhmtMmhiCIlAT6cUEr1NM/4PSxd4ZdnDJBV1xtssxEKZ+j33KJQhZPCprDeSYtxS4R1R3zNF3QCs43OieZLgxuHK3dVWN9tHzxhobK66MJ4xTu1/ziic/MXDApPIlrWjzLIg52YNwZNqJWevJ2k45ZJRdhGKz963n8c7AeszzU8o9GCsdo11jZwpOZklyEyl7awc0aXq/yx0h0hDsQzDaRPHNARAHOsc1zwHAPepqC8Xw+30LU9QsKHBh3hl3GeJlaXzCrOh4cOQXd+UA0k39aWHM2LgwSUm0j0Kn2VskS6CwQfzjBzU+x5ywZG7VLoQJ/jDKMz2xeQxGnqiyYOqQ8uaU/DsPhxp1hnzFWJgoG4SXTtTotBHIIegeVPa5qmSwX6SiUK0X15GuaxEoZbvenJ0mgEy6M1w5uruYR0Uwap3CUiUK1kZEqJ7SooRiYZKpvURB//KhoaHac4YxwR7GUpBgFXKwB5BZRKxQOCNpWfGU0rERJIA2TdLsCYV2SZHR6JZDLJzWDmzW4Hh2inMq7t4k2aEb4wEnh8c1g/Dfzl71W/fE/M8+BcWfYaVCYxkn83LR3+ligu7Lm7w4OAqnVfCNq8bQ83qLZFWgHHvHnehN/o5VbTdfO3FzPCaHbNUQyfFKUaqIXZwRZnK3A+KfcTwPGW/rjVzfvLeQMZ8TdvnXEh3XcgGuMiIvc+UQE44Kqxh+MDnJ4ZYJL7c1P9XgF/KamJ7zw0BCjMxeGqKjdUqB0tbX1DIMA5Schn+SU8GuqtALjr3Mgdf797KYVVnAPejkw7gy7DQi64ybT9+21OLFOIuOLlag0HBJUH3Izo4cZGTxGU0FeyYUJLzxkCk/kFk3h/FtW1zMMsiUvhYw8nwErvfEH2cv8rxlSnMMnm1STe5L9HVLFGXYbhTJF1ED+17R9f4Ahkdk3BDk4Ozaq8RZ/OR+6XXC38MSEFh7SxT34oZbQsJafRU8t3gxmHwz5Xf0LOiH8328O4w+zN7WOjJrcpEz/E2Z6ETnDGbEexTIxhSVBG6Q0n5twTcQw3hk3BFWNz4qqNCKFY020f2zK1n/IPZi4gU6m8Cxu1Xzlk5gZC7Ci8KaQ94R72d1Cb1wTxn0yPpUPNbqsOjDuDNsSK6oLrjXpsNXilYKICslS2JNPBtW47c/o4kYur9NUkG/lWQnrjyuX2lvTF6/jWvQRiUWtXgpPCtnJZB73tBDG79f9NQi8jWRVDqniDJuOIpkkan+8b9LKl6u+KjLb7cd3g/z2V0b3aDLRXilwqQFcqkWsVPPDhE0Eggc3slQzc/MmdogNVFE4LeTl6N3wgbMVGP8ru1DTOI4Q3rLrzjCXPR0Yd4ZNnTYJZOM0k3K8lRzKyGx3YFC58PIYiCMyeZImspXiRngSkVBxcTBWa32zavkBhxW7YxPVhWAAV4XsXjk4Ahhvnv7zR+ZQ/1eG8K2GVbw4Vp84ZzgjLIvaD8tNWfqyyLQbEOyHYLXGF0TbRopkuKgeeE4P2/BtAvrjBeJPx93Bu723CuLfqYmBNBWjJ/RJUSpDHjqMP0Z84R61w5u1ZDtHH8ZFIDit4XNwQfRlmM5wRvheKvJ5nSlbfy1CX9xNFazON+dG30YgSEVAM6MzEf1xuDEO6zQzN+cgFzE9dnw5VKgCs/2ZgTAvmaqwic4kTBgvluIc3sPtrOOxxR6nIbIz7Dp8srcLJSb04+V4KBI7hyAX5wRVwVyG2GBHHu/UyuhMPH98ggTS8ZBmAn4lFTyx9DYpvJPbQsD431VXFe6v79+sUG1YMN5ArDzPOk50fHFn2JxWGYZlIS39N14YYVetzpgTD7nh7mFIsZv782stYqUUNySUP67cAH7VS/rhIuw5QXyxPXQXcWOI51qEPuF93SnsyY+sgHERCBTfYcCBcWfYG8ZVbzwY0tZXRdZEgsI9+XR85IZNbDILf9TKT6/FdxyeMPpxrwRysUDvBfkJihDjJmWmtCrrw4+pU/imNTAuAsEk9HZS8Z1hcxjvjCtDWvs7xZ2MyOx2n6C9MaMsN9w9iqSnYE9+qOWP78DDgYwEKVyr3GqqZjGsbTyU6bH2NSnci1+HfLaJKiVsf/ypJtz7OU6I0hnJPCjM4TkhqxzeF3EO51BsDeIOvstYvm0Gj9MTHmIdxiERCmV5JZCLlzUvG8vRHfE5dm+GClNgDvLDhvGrm5A2Z4VfL9EZzkgIGM/luSGs/SechMj+hpuBoN7uk7HEEQjy8bKmP/5QQvjjYfjiNbwrPpW0Kfx7yGIBi9A3bBhv2v/nUEdp4ox2D+Mfo1+EMN6BFwRNer8lljiiRKWpqXo9hhPCHw/HF+fC2PPiu76mp4VUf67HqLPCCr1C1MAmHUoKHV/cGckN4+jAC9v2RvkYI/0b3Tg3yK+vw2zEGkE64TEt4WEi+OPKrfl1quUqI2aZm61sgq9Zik5r38/jwtOO+2SYiy822mIHxp2R1AOCrrwpmpRKQxfO54NlXStDxfSNKUzheK5PKn88DF+8EmcjK14KDEOMbqF7AOHucJl7Ci/nBgfGndFuSJX+IeqOR0ipNNRT+TbIr3/DfeIglOjA25LKHw/DF/8Qew6NSUXDoJvwbJPWDK3rXIeWhEWrUDimUZ9CB8adkewwfkCb2q+IKRWfnCsYg2C51yuK0nwxfmevFLrUPtRqGY91GGtbfzwMX7yaZyIznmpoCM4JfSXCLH9aIKwVyXRx/q5SvQ6MOyO5KZUUHNwmnEVMqSgJpGFmkF+v4kLG571zcIVWQe4deDCQUWhbX3yKpi/+vRpU5PLF85klMIHfh4Tx+9EjbFrlFP7kwLgz2gWM74E72rSkj9A/Ykolj38KqlO5OR4W5pMilxqo7Y8faEt/3CeBDrq+OK5ATnwzE/3iy22WMt9q6AQjjg2XVtmDrzUwZw6MOyNph08MwQh82mbVpHmRWgCFe/BRu+hUIvDHy3AbUu34LXYjoKkX/y3evnjDFjwRuqAuTlPZYfvjF/BX1rGGExwYd0ayjoD403Fsmx7przyXkVtr32YlLnbPHxGID4z7pMil9uHnGv54Lb5VA2xX77BAAhl8QKumYQ3vi0/ST4uDcZaJysEvo0/YZa368QPWYQ0OdGqiOCN5KRXVD0+3aUOfB0YFIvwrFA4O2noxZvVUWn2uTJ4SUizR1B+/XtnNH4cbYzXri29nAT22gPFhQRtC7fbGtwPh1laB4EZu5Wfcz/HGnZGcg2Kk8bAQt9rXvFn+SMHSTX/QSNt78bOvIhkp2JPLtPzx1aq/rfzxAglk8EE9XxwLwq1VYvmFKJWvm+C17kS38I6JEjWY7/Ld8BvCOaN9DUMmpmA/NVl1VgnxvIOkWDCIi9ruDo9bI7X3NgOcpXggnnhCYSZPTWh/HG6M0fXF1TSVZo9DSuElIeuO13ENRswMsx46hSfjz+jpkCrOMOnb9uXD+EyVJAaMQ9AZV6BtT/RHHG0BjPfkE/Ht+xPcHx8Vjj9uH368SAKZmrx4LV63hy/e4C2P5moTIqFzVG54ZjVBxqUY3Y10pzCWM0xSB8dwM9fjfPt/+A1RaRiEC0JKjT9Tw1TkK7M3Pw3a9+dwxnvfdP3xUlxjG70K3Bih6YuX8fDY1xdvg1bx8G0T6bSfYnCxFDg444xow8HefJx1rMU9M8Rv7yfNxGichf+aaJ7+dqTMuF9mtpXB+S0Gx/ejVySjdf3xGn7KHjbpB4RU/t3ENjbmxf8PnWCv4zjHVOLSschwiBFnRNepmCKcxU2sYx1f8vcM2PIpC+VAV6ATfLyIi82RqLgzUssJiD8DxwT39n15/vjjiK4/vo2n0w79OeHCXvhWhxHiCmNYsbvYXtweQlc6ZB1fwYASKXSwxhlRG0oCXXHLzhohmGw/t4FCD/ZAANc2qhfU9tzEJ1jEiFdGdcHfgpb1WBj/232RjBbVi19ooGE1l9jCH6eH53G7Dh/Ew+xDqOz0gLy5fCf04qMaRzv+uDOi7FJ4sbNK/WZeYS9LoTCVfXkQ7wxdGbRhlvMDXMqetGJlgpeojXHDiDaeMQdXaeVzbuNJcffHi8XI5wcaj12DhehsSw/jWlM5qG9i31PE56CNM6IyDDlQcMLuDq54ZJbLLoFxCNIxCEfzEf5s2tdcy0etKkJB4b5B78y/8Gg7wLhPvC41kD9o+ONVfCPQIc6IwhQeyi1aQsPpdhEaNruwjeYqU0VtwtarOMMZoaHK6MrGxMGrxkA7wFOxqAwMxbF4TiMKVsbXeUpxJ8OilWkj9aeOq9VIe1glBNma/vhmNVmlxPGRCyWQiRc1ymHZ1BdvSAKab+pNVnDENJcjHXRGlG6Fw/ly4wR2Hsz4P1MWRuGPWKAB4VX8mn/nKFr5FLk8384BzrD98Uq8GMiMY8QNbozRKodlU1+84St6Es3JJq9hZycf0xlRgsziJm24t/Lq+J21Bj1KES8wqUfZHdL8L48QGWvtyvTgA0E/Gi/STkii64//jjFxLFvLNN6tkfZTi8X2SfppPgwp7spPTL3HGii/xyFWnBEVCDicTZXRT6n0eNhMgx7Fj7+Y1qPsDGkusSak2eJ59ubHwWgJXmcfGPeJ16UGmSi317gr0v0qM078uHKp/lpSwyr+gZm0swndy1JT/Pg8tZfhCA+dYTkATBae2uy0LUFBrGG8QY8ynXeY1qPstPBveFfk0sKWwy8HC0Zii10zOFusXx7v1+nPiXVqWCA+skOk4jJzsLdTWqMGe132VXlQ6A3arLXpotdgtsp0/HFnWOwYiT+Ll7dofHZmLGF8kqh0DMKRfNi0HmU3lfIcjy7M9EbhqQLiz8DRbXTL3cdmMO5hgZYMuwzXxaVMFl3soSk1XGTP8ObO4ZUCD58xmYP1AUcabochd4bF5p/Pm1pQkfcXx6Sgc6GMdqkOGInTTSXXt6RSLrOeSml0U+6GuUH/+jJvmr3cQwg6Y5GGP16Lb9EbsffH4cGx3KqRu7lGTbVreLPR4s/a1Tkz1PwHepQ4FVacYTWM39zipL2HsdF2f4qlxM2u8OMyzWDmTirl7mhQKU1WZp+gRbEq8LTd3EMlKg0ztMoFbue5MU8D8kmgA17QkBpW42pk2z3/0SfeXL5q7oaBUpygshxixRmWglV2C1KljhtxaXEUIzEQpGMfTudNmsHMqFMpO4chM4UTghbF+j2eap429rILP9ZKy39fxToNCG74TBWT2rXZapCdefFGR9qs7LCOy1EUcBQrzrDW+Ge3ctJeRI9ouECFMtKlOnIkZvNpzT669TfszXwbl3GPaIOoIUY2Tw/6HGs53ZYwnsnTWaWxnlvUpBinATGN/9K4MtRggb158d0Hprgb3zf7DcU8DJzipAI5w0rjP6qVk/YT/3ioFFnvgw9gMa7ksjB88Ho2/Bo1VMVmVfbgw0Gf5Gv2tx+Me2WcqN6aaUD/VVkxdHWVS/XHL1rs2WXMZqIY0mUmegE1lMritewyScY7+OMMq8B1cqsKkXcwAtad8DT0xhjM5jxtNcrONPuPOTe6bHizJ96X3we9E7xNu+5lNq7REIHU4peYyg6Riou1pIalmIrUxKgMSGEfLjH9DV2Pk1SOQ6w4w7LT5+OK1jw1Pho5sUJhGnphDI7mvVip4Sc2CSjyC86lt7drfOzWxNVGNZWt/Js9YTyMNKAyXBmzbkA+UXl8TYP1qcGzqkciMOP6/jjr+DUnMs2RHjrDorO3d5BukxvwD+6zvyucUKchxR6jG4fQy+N4T9gAXscKruKTmCExvX9S2IEXB32mn3kE7bubeXxUQ3ZYwxUqL0Y4qRnerOVPxvBit5FIptSHb2lchl7HOCc53xkWnb0sXhoURF/CNPQtTjXbcqUBvgdjPA/nTVwQJoXSGMJnRleTEmRNevGZNlJ/BtoVxiFIRTG3aYU5EaMwJ9N4l054k/9mXmJ5qxAcTw3uH0+pkY5mxRkWgdbMNvIx1vNRzoYP+7Evuhp5RpbRDLiNVCPP6Ma9OYRFmMoTeRNfwDdh+9+7ufB/4ZBoQbghRkrzN9l99y8R7s9fgyfi2S31pxmS5OMdDX+8Av9GeiyOmYs9tI5FFa+xv2K8BauVS50CvHV4EvvMcBU7KOSMyGF8TKgUHKzn63yIN/JSnsOZnMKpDXMKZ/AkXsobOY8v8Sedqh5B79Jb+CH/Se9eUeLCKUxhD/rob93VUxLwYFobUbf7YO/dzOTZGgR0LX6OSTYnPTxG45pQy+/UQXbP3mx1+SfyGw0Yr8ZN7D0pZkBOYS4GchxLOIWHYXCiBJCdEWooCeTjxojh14pZww1cjOs5et8oQXihjHIFOiDA27gYRyKYP9sZfwn6jL/hDDuffJ943WoQf9Rwe7fzLHii/lgqC89q+KlViZC92XJ4pdCDuTqsFmpwE/sx6nVWBssRwh6YwPP5LL9qILceRT8nyJpE/vh0bogzhFfwW76IS6OnCy+U0a5ALsbhEn7FCv7Hm+MLBuN9sSjoc36vimxf4CMHN2lE2qr4WtTDnAG3GopfNL4tFVT0JCLEQLAvl+lwiqjhXdgvuhw5BLlqAv+GppVftpCG0yE0SQZE7YMn4uqDf8D7cVhx52jJEnJlsqhMjMPFDRXEv2Fx6xhhyGzhWASPFXxsl64/bXyUPSzSqna4GRNUdJtIIBVXsEyDUvkavYtciQkwFF6opfqsYx3+D2OiRXAMkemCfjgLK1p+23G6Lz3gIGBSDJ8Md2O2luFb64NfFthvhHtClN4uT6YJ0jEMZ+xqArGDj49J8QaBcSOHfwjebgHz7H/Th6ATXtWIU5TzFqZFl1LJ43KtBzqZGUxYc/LmcJ52yc7nQWRYf7gozFRj8UTrRA/uU70ddjx5/HEMwKMxBfBKruFi3htNH1ykk0yvh/CTuAi7UeRLKgY/9b3bEBtuwAX2P/VKVJqapUFE1+Ib9mD0wpwqRSlu0fDFv2fXROZsKSzkcm2x1ic8QuUdaGkNDAq78Th8FJRj+w/3dtjxZBlemSKcEZHKWwfAf+IyzuOpGIBoW1NLCK/jFtyMoI7UDMGINkrV2Z4Zr3+LIhd6a4U5t/GYKBatRTr+bbKtQj3L9jQ7Jja4UHiuLrHCOm7AZao/Uqwxi64yTTiA17ehnXVgPMkGhT14s1ZbXn0pYSm/5zu8n2cG9tsvyqn1EKSiLw7jK6hphhFvsTeD+7EZOK6Nd7A9M77r7XPwd43drMQzyIjWw7jQGz+b/qbU8lcexfTEBpdCGZ3C+/R5StTgISiVNUm6W0GmTOBzISISjzlalaQD8hFcFDX/+yO+hH/guGh74I0g/CA8jpZ29AtPY1tr0JOPJTYzvmsFSnRk2vhZ9VPRoVXg4ZkagFbN25nLZDCnPlykkwq0a36FszAIaYjsr3fjsfgi5Gfjr4EuThZpMo0imSos4VeWgXc1t/AHfsLX+QDPDIzwZnljA2Ae9AoC4XWs5PyibF9QMqJYuH8blMp6nJMo8SAIOuNdjahiKS6KSpEsnyCbr2rkI603RhgpyVCLm0KDn4WTzowazMdM9ApPcmlIcRoHc06bZMpOv2TWGLffwb6kGoaUpPForomIONnBDfyeK/kOn8ZNOFGNLs43Ymc3KezGYtyPYM7fVywJbhkB8afioDbe7lscgMTBkEyeo4GeVXwF2VFQ+AXcaphGh5Bqzku0SiptbsJ54QacsJ3/wlT01ZUhUtiNh/ItU7GI+RzkUCrJN5QEuuBS06lAtSznFm7mOq7ml1zKd/kc7uWVOJaKezLWFpPCbgRv5Y/By0Dh1gkp3rY82G64o6225nauptLcCfa61b5cr4Ecv6thAevV40jFhRo1xivVYYmXgh/8gjs2BX/TalrXDMrxOGZiOHuY88spzMFw3mDCD69P/jmqONXpQZSMg8I9+Ce+ygWN5it8lx/umu/xFS7gAi7kfNzDG3k9z+ORnMx92YvxeubQEF7HKi4KHtxsoFQGc2UbtMO/kFg7mcd5GmHOUlxoOa3iE2TzFdOXglr+nLhpP0EIjm58TKtVRkuCZRlvw0E4kHsbnZkyo5W/UigFKeiAARjPP7aW5BPkl++GoxlvN8MrRamBnhzCwRzMwRyC3qOilqoTNoSrEBBexzquwsFtndqA+FNxcBv//lecmkinXolKU4dpZKFU8RXLk/IDbjVUi1J5gB2S65oPwWC+qFGgN1gJrc/5DK/hkZzIsTyQIzGcAzCQB3AkxzCAw3gxn4LG5QvLMG6Gk4jvDDtYSCr2YrEJCK/jFtw6PsXXNux1xd+TgxlvoFVcqhe/1IixbbE8KV+bUjlapSebckKJOpCvaOjmQ83vuZKfYxmfxov8hCu5OoyPxDoeWuIQKrG8laVibxyADhOdxWgO4X0wg4+a4n+ruIh7MdQvDsD7bdz33y1K8yXaGuXgNg1apZzXW5qUr0mp1HGHGuJz+5ORqSzkkqgmZejN7bgw0NERGsYUxrNwFT7Cn1CEXomeFWHF6C/TBRkciOlBRIWtzS/bJlREIMqNAKraiAfdnGhrD0EqJmrQKjVcrjpa+KkKuNVQrQDf7+yWnAccgqO4wiZAXoZ70cdhxWN+Ag7m96zjWt7PIzGcPYo97fU21FBsdgRO4AKYzyhZjysKPL5Qq9yFbVVdX8MpiYcwFOZTpxPqFjXeQlpFk1KpxjzkIXnN2B5AXs15TgJ+XPa/M29uMMUKruRtnIkD2h+YQ5CK3izAhfgIOtZQygeKQiiiQ6pU6rjc2MNIxDXLwpUarIaVtIq2SmWtcUBxipHMBzj+QF6FRWrEoeJ1cDUePpWX7zcp71oP5iOwFzOT/8NqSLHb6MghOJgP8gfdc8vXMCiUixcQX9uJPzvwHyTkyhkpxsg2Oq22pFU+sYxW0aRUqnBDIvb70QTyo/mehcFOfcXLa+qAGQ6Ix2X4ZIQbp3NTi2a4X/MRnsTxHMzuxenJ6MYUynhXIAv9YfBSvgP9Tp+1/AzTYca+euDeNmmZc5GoyNEZSzSS8q2jVZCKCzQolW3GSCMl2S+YFBbxlUjlh2HPz1kwzQHxeO7+3nw0aFzoDd7KYzmeg7kHsg5LFg88xcjnYARwJp5FuC0t1vHs0LcVn0xpuzxtHb9JLLFhRLTKXy2hVXyCbC4y/Ydr8DY6tYewmxI1ks9GkhAUAYhPLU5zRIZxNkeFD0OE+V/nHTwDwGgO5h7skIiZtoYUp7AT+uAATua1fBPbIji3Wzn3AHeRCcsKZOHkNn36hBMbNqNVftehVZBjwbtqUiqVPCVx+/1ob0k33sv14RTNikhtfpAD4vEeXpkiOIhfmxHfci3f4B28kIdxAg/AQO7JzswscBfaHbx7cSBHcTovx2P4HJHGgrbzAaOrmXMLQT8sarP4xM2JizAQdMTLGrTKZjXUgtoqSMUFGt03f1f7+tztJafQJ94cXM1VGpekSOcmnO8oxW0CdZk8WTPEt42fcwHv5tU8DTNYiFHcDwO5F/dgnpFrZMTz4+ySU0R5jM7sj+EYz2m8nPdzgXYIM3iXz+dCJfzsgjkXvGirx9iPnJq4ME5hBs/QKHxdhgsirq2iTam8jI7tScnslQIPjuXiGLHklbyR3R2RYQIDeVM/fQ0/5gI+wjv5J57H4+ilnwUcweHcDwPZm3txL/YwcoxcI9fIZVZBSmG03sTNfIzi4byKT+PTiKiT1kF8oRphzvmAIB9/bfPXlhs9jQQ+NUaKMUpDrVLFRRHTKgG3GqJFqZzaXiiVxlyeGsVHY0KuvOAUpE0qIG+dfPian/ITLuDDfISP8jaezXN5Ls/j6ZhOL327phdjuH+rs/4j0Nrciz2MFioaitGVF3JV1DIc3mOBuXPrE0MwEO+1KTZ8PLEdRQg6Y6kWrTIowk5AmpTKJrVvMibhmyJXruBnUZYg/oKAo09pB0BuvtXXBq7gpy3mZ/wEC/kQH2llPsbrjWEtYZyjuDxqIP4JjjQLvAHxp6rpaItyWIeTEh7Gs3CVBhG7HSdHSKswky9pUCpvtC9KpZkplPAFrmdN1Mz2du7h+OK2BPKTuMpGlXZChchPYMuzO5Zfxh/ERSDojrlt/uIXiZ67rJ0EVImnImqwTBd74CfTZEEVrkYW2rFBG914MZdoFL/Ry9ucPM0pSGvLu9gEj5qOxRq31riWU+PfWoHxwoiaxQUH8eU6IO6TKYLh/LZNpvj5xHdlIOikQavU4mfsifBpFXp4mEY/563tIfHHBE/+EL+OAr2yjCMcX9yewyvzRI3ikxoeVhxny37yFE6OP4g3KMZPClFW6zwkA4xn4VotWuUEeML/c+m41zQg1WBp+0j8aXsUyXgPJ/Fx/mCxDPFZ7OOsrq1JtX14G9ckALnywqViRB/Gq7hMD8R9Ygj2xqtt/upX2B/JcFY89Gnc3ipwf9i0il9UR35s2vWvwpxkr6ViHsrHpeBYLuAPGvrQUPMJ9nO8cZuz5Fk4DG9zm81h/C1jr6jDeDnfxAw9NAiIP1VNazO8mRSUSsOK5/Mr03R1Lb4Ou0RWwK1Gc4uGTH2ybvf35GZMvbk4jPP4NcsskSI6MJ4A5EqOqOG8h7/EOLNXb77bXLZqOYxv5b/VgbpJakrUHrivzd/dgAuTA2EgyMHtGvf18EtkIRXnm3b8a/kt8x2YaY1gwb38iL9ETLE8xQHO+iaEn5WHE/CuVpuVWMP4wCjCeC3Xc665tPumzzBFUIC23cbVqlAlC4ynYrpGBK2cV4RZIouZfNE0+FTzIeY6MBNky4biDL7IL/lbBGD+DvZz7joJxJPfxM+jpFmKdC7h/lGD8SquwuUHmiiA1cqadeKVIT4Qb3vT/ElxQvzidWEvrtdY1xeZGc5RdLG7htiwQh2TfE2UrfTLCzxqDC/mi/yMa7ktDHX5NxzrfCZjy3UbqUYHdmNXpumuvE8KUqE4j2viWZU+qPJ6WpRgvIxv4ZgCj36Kmk+mCPbjZ20nF/LK5LEACjvwGdMB8Vr8xO7UFx3Sw1k0X1f4dzW4PeZvhuWZH487+DpX8gf+bl7XgO3wO954zHYpi/05kgfzfN7CW1jCHIZjqB15OP9rOyhfxVlRgPEa/soHMTi8M2pCaphElErDmmfwNA0JxHbOor7oEBm4R0Ns+Gr7zd8MzzfHfjyc13MBPzcdf5ihxClQG/29OVKYz6P5UiN2+ysePiWs1KsGKH+OP9iIYIkGjO/gRzzfG2YJJ1NSwySiVOppFZ9bDdbINKjAPdqiQ02xYSUvaQ9dCK0fSlQhPze5yueF4xM6Q9cTVzm8vMU9dF6gZ7ieIIUdeTAf59c2SQ+yGsar+RMfZ2H4ZzMgfk8IqWEdN/EqJtlJ08rlrOHHyNX8TOqKDemnx4GYsEy8Lz80uco3o5tz44nBjuzH51us/U84ZWIEpRB8UpSmxuI2LuMvcadYrITxGm7k2zzDmxtJmQgTUsMko1QaYDwbc7REh0M0G0ggFec5YsMYwcbrZvM4uY+zyjEwrm68q5XVj8Afrx9eGesK9MFpfJpfRKRZsguM13I7l/IS9mWEFnBaaKlhklEqDSctFVM0OhWUqXOUXqVDTbHhw47YMAIYX2hynT/lSGeVY2Jes/hji9Vfi9MKLYhN+KQoDcNwIV6IG5hbAeM13MIVuFONVFZYQGdeHaoEdrJRKg1v3kVDdFiJJ7TYcUPYxREbxgw0HjZ3zcZ2KDo1DmNhXB35l1aaZf/PGGgVlOwC8+f5Kddwe9xhvFhDAlvJX7gEN1sB4SI+mSQ8oM2qhnWs4yo1XiXjScvjfNNqtRp8rTpp3EiMFAMalSEcsWFkW3mz6SjE0b4U53MZkz3pz/tbiME2808BsdIn9MpYV6CvOhb/5Hv8ir/EqNTtNzy8BYyP5RemklDW82u+jFMjJVJ2DyWBLJwS8u++wOQ8Z5m8REN0uFWN1mDHmcarTAuk2nWzCEu28lLTF6u/ODGImN2RRuP5FrekV3BgsRRZ/tcMMXI4mmfwAb7HL7mWW6PYfKSOa3E6mp/BMW3qpWpZznX8gov4JzWm0GNdByqfTBIMwQchnvg3nIPktH0P/TrsOM7WYMeZxcWmXf0q3OBUNoxoKw/nd06Q04ZAPhaLWpz1OwOdoncfMqQ4BweoY3A7XuFyruLP3BIF9nwzr2vhjQ/nO0Hg+1eu4vt4BGdhWGGq1S0ETfnidfwsWc89hflcZ5q+1mHH6WIPjcI+OzDFqWwYyUFWPtPK8c85ys7H2S9+t9+VHPSaT04XHITlzUxsNU5UKdE+7V6Z4Fbd6OXJuBnz+Qm/5g/8jdssKnvcGoz35t2NJAtbuZ4/ciXfxSM4W03wdfBFaY0nmvHFy/FIsuILhbl8LCrsOD2cqRF0Wc8ujocY0UaaVo6jFpMMsS9M+sWfozojLTmMzidHCGa0APLF8M10GbE8Hx0xATN5Hu/EfH7ET/kN13IdN7M0TFhvAeN+KfIo4lUu5RK+x//x77iYszjAeu87LF/8e5Ywea0/g2dpZBKYZ8eZzjmm+ZpqzmcHB8Yj3MqXTFdWOcOXGbAxjPtycChGGDIhSYD8yFaAHM8a+06Kyxv6xJuu+tDLY/gHzOG/MJ9L+TG/4pf8hmv5M3/mepZy+65ZD/S1rGjy3362R4kpk754Ld8sSktWfZYhRooxuhVVVHDtuFl2nJl8wTQjV8lLnTT8yAYEc81uJO5VvZS93+VuXI+8ZLkE++QowQx82mQXSvkPdLfHG1LYkSM4nEU8hifzJF7Ee3h3w7yL9+E5LuPbmMe7dv3Xu3krptvh6U364kka3my0g525WosdN1OwVlMzvoMBJw0/4o00r1V5z969CCH4K7/nbKYky5nwycGCI/l9U4ktr1FOWN8KX/z99hve3GX9euz4VzATqdDUjK93JHAWbOTMkOkPu3wTBkpszI5TeCZ/41ss8CZNNUZDirN4Hjc02Yc1OB85DpBH3Rcvw4NIduvP4B802PEtaqAKXXecabzEtGa8mv9zmHELNtJ8eSybs+MUgh+yjnez10TxJskOQdCNNzeLF63B+Spnlox3DnA0ffEv1YTkTnhrYMfN174sxWyEZseRicdNR8AdZtwq8HvBNIzfY2d2HKL25sus42aeG8hOqiL/g/lkM6rxR1yOnpMcII+eL16Ofyf/jQeCTjBfFLwCc0Nqx/2iOuEr0z/pMONWgcR13GQSxj/ECPsebb9MSOe/Wcc6foLJyoVk2iO0uDOV8g70mphS7BxhzbWcJDjAhC/+A2cmP7pAkIN7NAoRvs2sED8ZcKsRGg6+w4xbBRGm2XHUYErAxrwzhXc0POvTGJIs0kMRnxwmOJI/tGit9QhHBZzCcLpnpBOvMnHXn5+8UsMmq6HHjm8O2ZUTqZhtWsVYzRcdZtyijezHJaa38SIj19Ywfjp/avjkXIMOyeOPG1KcxUtbxI1q8Q4ORcepMs45yCZPiFc4mt84vvjOc2WkGGM0mvxt5/QQXTmRgbmmvwuVuAFZTrTeIvB7wvS16gn2p53fZBTfbnjSdTw+mUg3CgfwwVYox3WYowYkS/Zq9FcR+bzO8cWbnKt8jbrj5byMaW3/YBbfMq1h3IGZTjUVy/ixs/izyXX/gQWGbeuO+6UgnQ/uetb36fdLcTIZXBHfbZXseh1TVecJLq9zmNscSrwu+LHZ8cWbnKoOfNF8MUI+x8w23Xt21SiKVa6G+N1+52RacrjVWH5qWq1yvNdjX9EhBBdy466nvZe9S6JQ3DU+wyeHCU8I4jmtwy1qOHOOdbQrQYdXKGrPkH0325UvLgJBFm40rQ8MlQLEFPo1Un82OQFO63zYsSl8MVlEhyjhx43ubH8O5CSV9LAj/xqEAKvBJzxbDXKoxuBnQ6XiEFSa8MUPYTtaFaRipkbd8S0Y0EYKkEpVZ5ruQFKDj512EZbCw0X81SSML7Wz6NCQ4jw+0eh5v8DBXrdKJqMbjvnBSzlhKWZjT5VZ53jlLXzxyYK9Od+EL/7foiRroNy2E+d3qyEaCsHtPKiNICcycJfpAGcN3ndgPD60CmpwkCGwM9Bd0rgxHV5QI4clTXK+CART8GWbUaNXcBwGI7fA7XDlTc54Ns4w1S20uH3d8yHohBUalazmMD24R5jNZeaziXgy0x1Sxbov8jgNWoV/s0uNvSA3i5F8o0mx0TuMPY0k2qsJqTizEf8fjGC5SI1CPlMdK6mHqiLhOK4yUUfl/vbmHlKYyyctCXLSxe4aAU4n9cf6rbzANK3yOobZOZfzn8JbmoRsNvP0QBKpmiDozr+ZkIj+iNs5CX3Qob375V4pFtUDt5o43ctxQDuE8UxeZkmQkx5ON931p4avMs+BcYuhYSiXmYTxbSixcy4nBAdxZZNn/gSTAq6kAvK2GPKmFMv7vAhj2Qu5xR6jnZ5uJSoVM0wIDX/nte0PVyj0UGmkAAUPcjKNF5v+oRq+5sB4FDbz36aTgC6x8/obUtyRjzZ74qcxdJIkj08KweQ2GfJm7be4gBcwgH7oprIL25lvbkiRcJCJ4GYNFycT/aZl+/lm6yq1GeREBu40HeCs5vNOIn4UgOEIfpcMtIoIhSfxx2bPfLPqkjyKlQaG3Lzp1dfsW4F/4VSMRz90Z56R2j4gyxAjjxebWJ+1OA7t1fbzsFijKOF1QYKczNbI4KzkJU6JWuuBwZvLV5KDVqGwB+e1KOpzesCTZAz5LRpFjZrC+UO8hFM4iP3Qk52YbaQlK6RT6KZvZ6UdR2gY5Cxl4y7zzTPxSKvN3PyCzhoBzo3GaCOlvfJ8UT3wVzbrM5OgtErr/jg/Ti6GnMLBLT5WenMLP8KzvJ5ncCqHcBD7sje7sSs7GZlGFtP2kbEJvkY+mSzo11C+uO35VXsTGu4eSlQ6TjAv9+YyZrfyM1olap0AZ/S+ycO4NGlolR6tQFySMeQUgstMK35DzQ1cwld5P+/iX4zjjBM4EwdyKIdyX/Zj34a5F3qwC7taPrsgjxk+j996gMrGqQgNUFtxe/vNQzHESDHGagQ5N7NLK240UnG06RK1ToAzmkD+T3P7gG2YFJCE88drcbPqaiQNkPulTnAIv7YIxoMHSFdwKZdyKT/kW3icd3KuxfOf/Aev4PRA94DF53m0ObV4HT/kwPaMKRTm83fTJ2Ibi5jS8kfSeb3prP5qPs1cB8ajtJmqmVQv+Pwru9gcxns0ScvfKSk7P5kavBlSnM1z+FuUgTw282Wju5VUaZEYgh74u6k8lD+1b0SBIA/vmQ5yluLoVnpyMovPmSbYd2C6U6I2Wt7deA9NdkPFEjvXVmkA8ln8osWTf4GDC11JBuQXaHhSdp2rcay150lJIB1HmiiFVcs3fZ387dryNTM5d/CGVrQqyMGXpr8E25wMzqhu5zR+ZbK2ysy5Ymc49EudcE5Lxg8vqANHJVGVFSWqN243XVbOnrOc941NsRJKIQHBaHxi4m+vwWw4dp/JK01nclbzlRY9OeliN9M6lVr+wM4OjNvCH79P9ba9P35gKyLKWsxlr5IkCnUmPJDX8nUMsfIsec0TKlWcX5Tub+d2D0EqDjFNbNfgS+Q0NzYPJ2ol4jupP7bwx/k5x9k9XAjBWVzXinL6kmSqQ94A5LeZtiK7zVVWJ94oCaThcJhxR77noQ6e+MXvVkM1HIHN7NastbKjU7HXhk4w7Y/zBH+qvcGQwj34WCuSvO9wlJGSTOcIgh682mx5M1vNDbiu0FKpIWWCYDjedXxxLUvJN501UsftnNgsIZ/pvE5Dp/KC441HfUOn8HNTu/Ef7k37wxu5pJVnf48odCUTJ2pIcQ7P5i+mo0x2YcUfs1ah4pViQRf+xdRfd3zx3VbfgQtMBzlbalWQiYdMk+uVvNRJxI8B9Jm6oGMbJttbPS7ilyEuXNJq9ZGnMCyZGkqI+KUoXR2BT8JK0Y/PrOJLGBoFQuVg/G7OF/c6vvhOm8/B/eb1gry+mVaF2XzT9FdgkzHGScSPwZe5P99OBvV4m8RKLe8w9pwo3mQzx9GYr9GUK56zgi+r0cri3R4uGIZFJn3xWY5LuMtKMnm5hjv9VJPmET5BnmmdSg1fd5jxGG3qn80klWAJRlJ89oc28P1WG3NfkFyhzoa37cEr+YNGm9z4+OHr+DD7WWvNWoRKNV90fPFGFu/hRNMJ+dV8s0ldFeVC/8a9E0PA+Cfs6MB4LK7n3g58PnS1DlTjaK8nkAjQdgZ/aTXp5KjiFCbd7o13Ky//yw2mL8mxhvCNfAuHey2vKKhBqNRxHf7opBHuPjN+txqqoXXajM6Ndo8eTjP9j2v5BTs5MB6jr/O0VnIgWwL5A6qP/Y3BkOJO/Ferwb93yUK3Srr9M8TI5VF8kxttBeW1LOcvXIxTfB39UTizY80TKnX8oL3nbraw+E780XShta1q/4B79z9O4wWmXfkKnssMB8Zj83UuTMVcEx/YX0nYPlBoCIUFTVotN8nqHCfJFm8x6t85nyfxDf6qUb0uWrOGZVzPL/Eo6U33i0+shlAtQqWO2zEXlj9DgsN4B75kOkq5ndMaSQ6ZzhtMs3jlnOr0+o4VjFM4gG+a2JXLEiFeQaHwOK5uNSftn+xdIkXJaJhiSHEHzsCT/Iab4qRgqeTv/Jkr8DBOMHoaQvFGBT6VBNJwCMxWl/lGBZRj5k2Jx2zcbjrIWc4LmLb7qGXxZdPXPgfGYw18Z5vom7IUo+wf5hTxSx8Xr+a21q76uFZ1KJFk7FFpSLF4xecJ7Iuz+QLXcD3LYqIsr2EpN/JnruIC/En5/Z18AjGiduuB+AUjsNj08zmUSkt719Gq7OBfG0kOmc03TDvy5ZzswHgsgc+bx/+Y2NgT/B6VAG9jiNGJ97YKYpt4QTIVsG2xjxKQCeLzqP44Hg/hI67hr9zCCksBvZaVLOUW/sYf+R2X8C6crQL+ToUCUeKPKoHRUEPlVtPPWor7HEqlBYyncqpp+q2ST+0qj+UTdNQoi7XeUY3HnFiZbiLQOc/+2Zz1nimFI/lSq2Gc1ThapSCpd9MnSiAF4s9SwziL1/E5LOVqruE6buLv3M5y7jDpUlWznOUs4xZu4nr+zLX8np/iJf4L1/AY7OfvPFYYA/huQqgcAfOk0S843VGptIBxD6khOXxjl+RQudDfdKpCFe5HDsSB8ViaflEq7g5V8QZbMYWChDiqEEzjx62+x0eYMsGl2sGe+kTVU2auiWJ0NIZzGs/lnzGXj3Me3uK3XNUwV3MNf2qYa7h613//lh/wUT7O+3E1z+EJ8HOU0atE4KILQkGMwHs3oTJRMBofa9wcvsIEB8ZbIVHzWyUdg5XH6rDzn+pUN6zkLcxyKJXYmrwSNZYfhdybf2APJMgbjXHjXP7c6ufoRTWGrvZk3sZORYvQBRddO/+XLrqmi9HRGMFxHMdxHI/h/s4bha6mEy4KBcIost6hRpEuoVJfnXO4gyStALmO5HALuzWsoVZ1w2oucspixXoogeD2kJ/a1fQWJ0CYs4Eh78zbgpy6pzB0rHPfaw7xcfCwdXxxlY6jUOHAuAUw3oGLNCSHO6scMp3XmJYbVvEh5jiLH4fNHRC6wgrO9WcFEgSeIOjPJ1o9rjWYyz5THCBPpNPpYqHJCvmNYXx/B0laWctczgujyiEycIdpNWuZMc4JcMaJM7uaG0PszpLEkB3W+28UjuTLrV4fa3iH0XNiEqrIk3H4ZKKgHx/VVtV8xbEOjLdi6Zm8RkNyeFWD5JDZXGhaNV7KfDp+UlyIFTXOBD9+kt2bSDQ+sBBM5bJW32MjL0pWFXkSnsxsnAr9tKb1+LMT4mxlNdNxsml2ZAfn7ITxHC41rV0tdZopx2t7IfhnyBZPz3OIkTBaXNRndX4TBMgv8Gc7OX4JQagEuDYclTvecPoWtLKeOlUOq/gys0TEJzSvGq9jKXsYjjcerw0mV4YwjCoc7U0JJMw7+WW8G+e2WvewjqtxDDyOv2b3GxX35bNhJiut47klbgdNmlqE362Gme7IWc3XmC0iARf6aRS4LzPGOtx4vDZ4gofPh/RwHlR9VAK9kyFGZ/4tiFJ2JQ5zgNy+w1dfCOuaCLJOv+Co8x3qrJlFMJ9mq9LUYi1yRYQeFmsUqV3Dzk7yT7w2mMKLQjXsxVZMmyiJA+RGPZDfEyQ27wC5jYeSQBoOxaZIqp5jgerp7G/jAUEelpimuTejk1+EHk41DeM7cIpKd/jK+JmNGs/lZqqPJ9IeGaJEDcVTQcLsKzFzosthUO1IqEx0YRw+igDE62naB5HjAHnjdWUHvmxaclhfc5zpGrXGyznNKYsVT398vIcvhYTxLZiaGGn5jT5PoobiuSBv9BqLClyO82C3PfO6uC8fs6Cc1ybcgFwHyBt541kaxWrrE4CYwWvNy1swG2nOgscPxiG4zcTd6fZEScvfDQoQTAummMILaozf7QC5nW5Q40T1wV0W1WV0gLypN57Jq0zDeCmOQqogCw9q9GK+zpEIxflLfXbrtUiazG8ZoDDR3ix4wSwHyG0G4pPE6MILYF3D6E2Y4/QU22UJaThCQzl+FdOF2RotIxwYj/+X+ohWu+c0n3PYhYl3fAWncY0D5PYeXpkoRh7PhbVN6X7iqQEn7ibaNcd38K/MEObwVdN0+g5e7sB4nLd4VpB0mYT3x0X8UpCCs4OlkjhAbhcQD2TgkGCf2wjmD+ooR0DRkABUrJEA9H/MEnTAGpNlEWu51qmoEt+hRCFUClDi+uN+Ccj4FPyZm4IBOcYVpzhuhA1A/MeoNJ37AUczu73vr1/8LtXXdM3ZKr7MbGGe6RzOar7KvICjGo/vl/pIU6RKwvrjhhj5vDVo4fzFnKgcHXlygngd6/gbr2jv8sOGBCDzpcNfZ46wC7dowLhTazyuA4IzTNevuHFXSfkEGkYoIF+JWUhxgDwpQbyOddyIG9o7kFMHxuu4mXliFJluGVTN1xwYj+93ukR4l1nWDFswrVgSj2tsAPLbg77nSsxSns5OCndMh09KYgHiO+WH7RrIKexM87mxW9hROMV0DmcNP2KeA+PxGwHx78nFGhXkEiyfczeQK1HD8HTQ0PtnON4pYxvbHZnoUtk4NAYgvgvIi1ztdX8p7MDXNPI4B+jAeB23s7MD4/EzpSLBn/mbBoxvwXSfJOKOqVBAvoEXBXJHJkiLjEQfSvxuduc52BATEK+nVm5RvSa0UyCnsIOGfnA7JwtnarAwTrXxOF5q+wiHcYmmOczjPkZCgl1oIMdVge4Hu5yAe/RBpdiNgbgTpTED8TrWsYzPqD0L2iWQa8P4NOH1NJ+L9bvjjcftUusODMBC03XPdvrjlTjO70lMLW4DkD/XRnW8uezrT3GUxtF0HoZJIIUH8OmYQvjOCk7PqF7F7VDgrAnjpZgtnGMaxqv5X+Y6MB6XbU3h/nhNF8Qb+gENK06YfkDNgRyCafwwaF5DJZ5RY+l2dCvRAvExorJQgjfDguEalod1YhsD+Qsc3f6AnMJcvqSRlDlHB8bLjAIn+Scum5rOArwdrkngPH9WIEHfHaGAvI6vwK9SBzkseTRuQ+5APo7nD+FVEufn+Bc+M93HJojriA85ur2V46Mwk3/VaKs8R3iTaRjfznwn+Se2wy9eN3N5msmUn9ZhfAUKlSTqLcoEkH+K41WHUQl647CrH76nKA+GhM2I7+BCjPUKe/MObonIJ6/BCkxvX0n6FGbyOi0Yx5PmSyKyB8UhVWK6nRmBgfy3aWV/8ESgrom7byaAfD2uCnQvcZpLWHbuDJfKwVR8GOZ528H/GX0LhCJiZPNQfGW6+F7QaivMYnuyez0Yv1X4tuklLudkehxTic0wxEhhLk/DpxGaQB3rsBkziiSpgbwSD3Cwczqt8MMPFHjYh5fit0hAvL7xuiEivhSM4VusiDBJ/3JktxdqRRPGq/iWcLEGjE9xev/ExpQKXMw0DuQ8jWbXbc/5HFqcwLSDCSCv42JOQlqdw5JH6ofngnwx7JPWCMTracFxAsHe+A8jEyxuxI3MK3L52sUuaML4YgfG7QhZaWpPXhxmaCmI8FD9IXEDnaaBfA3PDXQ03M4ZDc95GC7Kw768FL+ZrHnaclbwf0ZfNougQfyiuuHKCMOdZXxG7dkedCsUZvLa6MH4DAfGY0Cl5OBgLDW9iWaBfDmKIIl8LTUF5BV4gEMcciWs1U1RHTEJb4YN4bUs5XNGP7Yig1CiRHWxAMhf4KjkV8tRmMHzTdNQmjBewYudRkvR9IYK66mUBzXK4ujMO7EnE5pyQJsdO3fNpTyYGcVuR1OlARsuZuAA3I9tEYD4RtwZyJ4URMu2C8hLw/4LuwSIya5b0ez/ownjTgu36EJUegOVUhsVEK9DBU70p6oEXyVDWMRFIVIjfuMco7/jk5tzHkbUUykX87sITl4tf+EcfzbaiL8oMQSdeA7XRagkX6mORHoyhzspTOUUPRh/33S2kAPj0ds2DzrgWHwcYTw/6YkVEYpf1H54OqQWeTEnOT556NU0UtCpgUoJH8Rr+A3OniLeEEF0yFQxsngEf43wJK/FKcmsW9GE8Wq+I9hsevsqeIUD41YPv3jdzGERXo7wumlu3oFexQmeKKNEmQPyXx2fPBSVggyO5pMRUCn1MPIRp/ldZmDVEMMaIN+AG5jrTVLdiiaM1/Bz0Vi6LU4yvtUX2iIXM9VA3seNMYDwOtZhB84O5CApgJz/F4IOrGUdF3MyMuloV1qBcGawHy7FrxHlWNayjC9yGE2nXlkG5Nv4qOqZnECuCeN1rBWNb+5C5pU4yfgW8rxIVz2jyYYHuZAe5ksNJPjaKZko7M25IbXItdyMuzhEpTq1yXff/4pcgVT24/n8jDURnb1arsdd/u6TtPJnGwF5dYS6lWdVr2R0LLVhvM48jFfiH8hyaslZtlG72fBYgngd6/AuxpeISvgVLBajK2/hVhPrtwInqM5wWjGLX7wulaq640gsjRDC6xnx8/05Xu27XQOQH4xPIqyAWIUPOQqpcGDcPIw7AU6rTMnnZg4LY8SGt97cbYAv4e9VhvxJ/Gk4m2tDrmIty/E80L7pFZ+MF6aoruoQvMHqCAG0jrX8hNP8Ll9YBJ0hMyWQosZHDOTVWIFpKk05MO7AeCxNyetihtondmx4kHmVkT8m4YHcL0qKUnkKV5lYy3p6ZSgzjHaoXvHJeIFHdYSfT2BbxBBex1p+qNQhEdTp8YsSX4oaj+URP80P6sjk4gkcGLc7G56qevIsfmuBIUXmj5fzEuZPTfjirn4ZKUownUtN8aw1/J5Xc4BK87r87ebU+cXrQio6wc8nsNWSk1fLD5WaFCExZyGQb8ANyPIlTbiTQg8nRgvGr3FgPMKtqU+z3xFXP3wXkKtzAh2OSIKQNaREOIbzTaWx1bKWK3BGoCdTx7eDCuW7uPCD+By2WOY8fKHURAuiKxYC+UbcrPZIFiAPiN+l+umUEjMP4ztwavsq3m4tG44sFvIZbrYDhDcAeRkuMfILkgDIKT4xuvEWmtM/17IMr3CmymfqhCSG8gYI76YOxRusilAV0nS+4+8UsOgZLQPyUj6r9kgO3YpfJgrzuT0aMF7OqU5hrPCMielqH9zOXy2nUmq5g1u5mdvCq0mOMl5idFFJ0ArEkGPEn4Y/8keTa1zDUixKXiin0M1M9GiAcKvP3a+4lJkFlqxbIyCP9ENTxuc5MjmAnMLO0YJxp0xtWGx4oAfP4uqI5V3NAbyCW/E1HsBsgqfyTYaViYcyXMdeypX4ASK/HCgUTOcHpj9pu6E8ibhynxSKSkEWB/EyfsrKKEVhtvLBQHdremTWAznGcHHEVT2rsIyjkkG34sC4vdjwbByMN7jdUgivZil/xqOcauQjFR66jZRALv/M78P8K49jf+UemwQ+KUQJBvE+U1ryRlCOo1RvJAGUG1LsYho6oxD34BdWRZXAq8SHOAo5SDc8RsRAPr6+tcTTEXe6qsZKdUTiA7kD47ahUpDBQj5qqbCwlhXcynfxZ9WXqUzZ2WPFL0UCFw/l8jD/1tuYrLKLk6CXJWSq+Dvij/xK44pewyquwJmqFzMSVVfulyJRKcg0evE4vMHKKEP4ztO4Da9wtlHETshmCiPcOQgGWADkdfxRHZnoYgwHxu2xCelqD/yFP1l4pa1lOdfhMRVQHeBRLtXib05zKR/fD8t8a/EbrmTvZEiO8UuRBFwcy/ms0Fj9GlbxS1zN/ZCNFCTaaXMzQ3XCWP41ijRKsHWr4A7+hLksYJYvovuMhUD+Ky9HJhwYd2A8gg1IQQ5PxwoLhYU1LMO3vBn7q0zlDpY3p4SifFwa5keils9yDNKYBD45JeAyevBCfqkFCbWs4kY8jkLkID0RKBZDDBfTkM19eT4WYnMUgplmV66a63l3oH9kifEWAvlG3MAcX8LSZA6Mx9UT9LmZxQIssJANr2YpVuBy1YceuIvaZLCVGILTuTrcjwV+xZXsi9SiJGCJDddEtxqOR7hZUwFRzW14iyeq3syybxUWv/hcyoMsozeP4lP4mZWWCgrD7MOJZTgSGZF8AC0E8q18RPVIVCB3YDyOhsX0wN78FzdY5hNVcjvf50nsrlqhUVo3gxLBGWEDeS2ruRLHq64qNfEDfkqUK5CFw/iBFr1Sf/up5Gr+E0XIgc1aT9R74MxWe6hi3slvWMFq2+Qi1PJX3Ki6RLJiDUD+jAVAXsZnVc/EFCA6MB6X0UhYaJVRVXI75vMgI58pOkQHZJbgDH4XgSlW8U01S+XDk+hQ7pcJEnCzHy/XpFd2rsNWfMDzjH2QYwcdC4VuZCCHe/EoPsFV3MFK+ySTNfKCn+TQYlfEQP60TjJ60JTFN3hgIgK5A+Px8I/czMLB+JDlFkL4/5QR6GCkFGtnWUImCa/kb5Fw8djKeZiiujE1EoO0iUG4iuvplXCS0WtYyfVYyJNUb2ar1Hhc0g0xXExFJnK4L8/HC1jLipgoUcKXIr5uDI6kXg/EENUdV3JHxM9ShWU8MPE6QDkwHnMqBRnGAXyQG6yG8ODBzFAjIP4s/I2bIjMAVuJNzjZ6IQNu2GzVvcIUpjGD2cxFHjuxc5OZx1zmMpc5yGImMphmpAVyeRw/DYvuqmU1K7iWj+EQtRdzmB6bGom74DuXfXgQbsTb2GQrCqUt9fZLqlMk2m0lFNXVEiCvxif0qwRrJe7AeGyplDTVA3/hTxYZlwUQXg9zFH82/s4tEYdXK/kpr8d+zGKaYQO/3BDDzXTkqO4czRN4GR/mIiznJm5vNMv4BRdwEV/hM/g7/8IreJwxCUWqD6dzSURk0w7+hgU819gfuchiWjTg3BDDZXiYzqxG8L2R5TEWEkY6S3mfiki4aSGQ1/IHdURiAbkD47Fb6BRm4Rh8bJGwsAHCVYQQvhPIS8TYi09HnN5cxxpW4ic+xaPYG9mIW+jTLwXCVGQbw3g2XuKvLOMOVrCq1QYItaxmNatZxUpWsILlLGMZt7MsYj1HvWe+BR/hDh5tDEIus5lOT2SA7hev0M1UZDCbuUZfFvM03sUPExC+d8+f8MfjI6rWswvIyyywrx/V4YkE5NGE8ekOjO80O78bmSywrGJhFUutg/CdXp0Soy+ftSDi3+CJ4ic+jYNVd2YxNbaeuV8KhR7ViQdjIbfYglioYSV3cDM+4yM8m1OMfZGHDsxlNjOYwQymGZ62JtOYyQxmMpu5zGUeunJ/HoWr+CCXs4xl3JGw8L17LufIyPBCiVeYwyO43oKn+VEdkTgpQdGD8QpeyAwHxkUoTAsMwO1cZ4lWdzeEp/gsrWtiiF8wim9bKCer4g6u4v2cxb2Qg0zliUXIj1LsCnTgQXzLFuroltmfO1jGUq7DEi7iI7yKf+EVPMEoMSYFnSWczWt5Da/nw1zE1/kVS1nKclbELYEnOjryJ0sizAs2hPXtl9dbcHrXY06iAHn0YLyS1zptIyhMQZZlOZrVLI8OhO/k7otE+SLgg1s3h0qWYyPexo2qRPVANjLoiZ53rqTQxYG4i5tsDnC1rGE1q1jRiMYJPssb/n9VrE6IoGWYHjCPNyI814ZAjGwebkmZ542JAuTRhPF23sTNL34XMjgBC2lFN8MalvMDnshuAbcvatUFlRQLjuNX0VAjsILlWIvncSmnGH2ZyyykWw3olINFjeFLSQpzyT5rsMCfG2mDCUMmCVIxASvaD5A7MB5NKqU/buc6SxrS7sBnPJXd6Yl2DRNIgeBM/hDFahr1pMJyPsiLOMXoyxxkM5NpRsSQrmS6sIivO4CYsPNn/IEWBOwpfo8ajxUWkGobMQcZaMcwPqe9wrilVEotK/EdrlZ7RR/C60dA/Jn4GzfHJOhXxlIux5O8haex2OiLXOYykxlMNTx0e7UM2hC/qJF82QHDxPbHAzmRN3yrB3KM5EJLymbZHsijB+PVfAV5Re2gDW1UqZRKrue9HKhSzdVIseYNDPFn4x6WxTDsV8FylnI7fuS7/Cev4WyjhMPRhR2Ywxxm7tJypAT32A0xeuBeS5Q2zozfXMPjackpLhS4LKq2Ynsgjx6M1+JnNSKQEmhXIN6ISon8OlfNMjyJ0cgyYlwM1i8lYvTh03GAxFpW7/LSt3MbfuRiLuTdvJqnc6pRYgSMfuzAPOYyh9nIRibTmV4P8icLz+dGBwgT3h9/YYpY47JAIOiLRyxICdqIOUxnssB4jWjAUwWvak+0SiMqpdwCKqWcH2Cq6hCq2Gx0hiF1YvTlAhvoOaobgL2cpfXQzi3cxq/5KhdgPv7BK3k1r+HpxiSez88cGLSNsLKSO7iDO1jJKk2XZpUqsermCaGrodpKpBb5K8+xb0KQFozX4EfBZ6Y3pR0FOetrpVhGpVTge57B7irFGzdSyhCfKB8/sK1cr7pBrlcPFuUsZXkSaahjC7jlLOU2bub2iO+Q1axgGTfzM97PK3kV5+Axvsz3uJVbWMpyU/e7Mv6r2LJzr8QryMe53BA53aMOi7T1XLTQZ7ywi2kYr+Y7wndMX7XbjXIcgtRAN9xqCZVSxQ28lQPgiXdfHSWHCg/lynA/RdzuAKvtwXsTP+e/cRGO4ihmUHFFBL9YwY14B7fxRGMos1lPd6Ujk9nMZi57YYY6D8+zwsRvLfX3CFhonX5hDg/nbxGfxm9ZZLgNG8K4362Gm45lVXGxcLFpGG8XeZyGGG5m4lh8bAGVUsMdeB7jY8+GB7uq5QnO4Pdhvcs/aOBSrtRuweDMaN5hqriDpfydn/NxnocS1Zc5zEK6SqV7hsCH5WH64Nu4HNdxNLKQwdSWUEehCx6Vym48l5tC2skvOAuW2uhEQRomYEWE0Z5qLDOGB2xXVZ9CDyeZrreuCeNJX1XFLz4X04z9+RR/t4RKWclT2S3gLrSNvgeyv/DKMFKbP0BBkTAtsCfO5UqTl2lnRjNsXMZSfsf/4Gp1kOrDHGYxTXn8Lr+IUEpcgQxMxPthQfjvWMjDVRekh2qxTSl2qXSUYFWoezz+o8Sw1FILRbmxD54xdRtoC9P+G+gSsB+Mp3JK9GA8qWscQpAS6MY/8QcLQKqaG3Ct6sNUu7UoVhLIxq3aJWzvwB6ojxikqXzOwHyuZ7ktu88kN3xXsIy/4T3exZM4ssHzbgDvxp4ye+Ay6Lsi1fwdL6qJyKTJBhl+CYgvA0dya4hf/tgYYFhur3SpHrgywlvz75hjt56rDoyHz0a5mIFifGBBWcwGKkVlxk4brvOmSvxd+aTmp+qsMe5Aw7/3Cj3INAbxGD7A1SxlGXfEsaTTbg1FvY4i+SqU1LKS5SzjWizAjWqG6sNsZjKtNV/ZLweKcnE/7f2tYw231EO48iit81Qi7MiLYkur7HRJ/C7m8giuj+j0rcEkexEr4cD42xowPinx2iGZXbZAP95vQdCkjlVYyVPsRaU0N7yDxOjHZ7XCt1cYOUbzCEIqs5jDA3EUruQ8ruSmBkivr9NXGwMAr2AZP+e9vIrX8Bpew6v5TyzkdyxjBStj3uistqEwljUfkp2+dym/4795HgKqG7KR0dz3bsoZT5dAOqZxuWZovpZlXMJjVYYehO+0HiUYjIUh1CoPFEfBHgwpqWfJP41AjFCDDwL5gUSG8TeF/zPdWqAU/QOuZEv/McRwM6Mh0T5yKmUj7+U+8VelhHpnn2C0TglbPKD6qNYPnBsN7Q5UN47FUbgY/+CzWMp13MbtLGX5rvYOVvrJtazkV7we+zObWQ01vjPqK3irfBXAdXgA8/ldgyguNnD+C57FHN6MF/Fz2N0ya3dlwK7Fy7iVxxmDmcsspiNkDUyI32V05nnYrOWM1LKK3+JilR/+TTsgRSmYxtI2/84SX1d/VJySieL3YFREafobeU7A7bcXjE8zDeMVuFt4k2n4KmVXSDJ5437xWxrS5OsoUR0Ml/3XCHKsKD9Nh8CwAv62994vPmEKUpGOTGYjl3mqO8dxIk/kFbiR87gIb/JHbuc2ljY0RqjY1b2nVhvsfsKVRm+kt+wS6hefqBRkIAvZyOUQ/AFP83uWR11h8xP/oFKRwUxkYijOwZP4hmUsD0nz1DYUL9jBUpZyNZ/FrTyZBzIXOchsTSXS+upPEL8Lg/iAZr+nGq7jncZgleaNqGmgIezDR9v8S99YlwTUMtwJN/rhkQjCnV8H+gTsBOMZvND02+zgDcI5pmG8jD7DYyQNiFPoDnSxKKRZxY38E3rGM8FHO9TpUgHzQM4b2FWndrRffIIUepjGDGQymznIZR47qu4cx8k4iOfyWtzAeVyEJVzX4LebhdqPcFgga3LI+okUupGOLLWnKsENXMEd/8/edQdGUW7fu7vpoQekSZWqgI2esjvfORNCU/HZFcSCPuuz12fD3nv/+exdn72gYn8W7A0VQVRAUem9hOT3RwJmN7Oz8yUzmxnc2T8huzNfOXO/c889l+s9azzxB08oF9Skymt+tQg78hDexJfxA1dzdR2X8fVcx7W1BgW/42M+hit5HEpVD7ZgIZLw3nZjfaIYOVB4TevpqriGb6lRpgstog0pDWOcbfy4lBfTw7CEIdUB53F9A09eS3g8Qz5Cpnxe6PiFvI6X6sD4RtyFQmwVEB6TWAg5HIFXudKFlOZ6PIKhKh+hII1OLZC/7zAeX4SJZY121NkM7shmbl14R3sOxf64iB86OEp+jvFlMtLxKyUm0ZCRhTwUqRim8h0u8wjMZ2L/8tDmXqUxKROEmcMCNmML1RkjOJqTeRGnciovxBk4gKMRVT3YEjXQnYtIw3opUfaTWDMcxB80zhtV3MRZOEYVNYQNtxpjCvriVVtPphfpYYijxBDVDv9uYHXnRkxnxPQTjF+sAeOXCC/W4ISXss3WQKpAEDHa4ULOd6NKEzNrUprBc39UEg1zkNPsCD6BAfHiRVUD7shWOezLZ1Lcx584rCF3EZMyURHksRA74yxPwLyKv/GCWNGokAXRE1K1J5OaD/JUNrMaCtzxa7lE2B5nQ6crbBUX437uorLdOzuaYhbwSNtf/dgbdvyv1RwLsQX3baCd2s/mDqZ/8KkQNzqG8TXqaMHEFKmJeHa8KOgwXhOHw3RJWried7E3shkK5rhQVMjcDvdzpSMgfxvFpkYcrH80H5nF21Pcxf+xMxu3RcJ1wHy5q62Lq7gaD2OQChen5ZUek5ESFfTlf7RowXX8iAch110/EVOUYAjm2rLj5d4KcE0pF7OQ+zUIyJfwOL/QKhS24CuOg4xVHC8cp2GIuDLo0XhtHH4tf3NFWjiTB5htggrhm5d+RchoxbP4ixOYwpsoj+VM8AikKNyWT9jewZcYo1xIs28GczUMl/NLrnOxkKmS3+Joo5BheD5zu4nSZcSruJDXGl1MD+o/KOzE22zPUWd4PyYNBvK1vN9XMP66BoyPFo7VMET8BC2Dy427HIcv4R3sw6zyUNCTvjEprhE4fcyqlOOyiXNwSKzZiZ4oliDoyxdszwNXRAvdUxQoURHko0hFcR1nuab43sSVeBLDzIiXL3hItZiteQR/cLzdq7iOb6lRzC3zpNjFkGgODrAFyv94H/BsAfKlmrO2gc/7BcYhaIVvHa/FFaq7cLSGIeLrbBHUyLNGl4ILucCNOJwfYaxqaYa2FvklhRGzD253EMVUYTnOZ0cVcp9coRD8yOa3v8Jot9NkMSkTI4v5qhP2xpP8wyWSpZJzeDH7GuGoJ5BJqRZsi4s1GPEqzuP5bqU0rUeSgsGwM157h5IOIB8haINztfVn3/soGm/jjOZkNau5nK2ERY79NSo5PZgwHpNYiNmu6VKW8Br2DI60UIdcwRGc6WCENvB5xGJ5FS5vSgr/yYW2vHhHerRCykLIRgH74yTOcKUCdBPX83McaWzjRiIz/l6HSy/RKriv4jq+hlLmeMvZU9iVD9jcx9cckA78UDKihuDReyHPRjjmi504SthWI2O5hC2FLTVg/HW23C1w4FVHH17pUhzeYuuJw+vCQ6mobO6ER7giJYhtxHycxU5G2L2XWUwguNjmlxfjEG/Lz2p05qqIJh5yJS6v5Fp+iiONbdxrn23KP8TIQQXe0yBTfsRpqggR75lps4BH2NzJT9yT6drzwu34mtZszTVaGb6AcTNiFjt2G6/kdBYKW3KJ0+WA71SPYJXjxyQWQk0cvsK1ODyrbKttLE0xw0YbHMmZKWsrq7iO76l9jJZm2B16JSalBfyPzS++xJ2YhhVTLMhCAfvzTH7lguVXJdfwa5zDfshhVmPjciXbi9max2K+w/uq4ko8yV1VTjrksKZQWGojYJ7PQ9MV/igxIijRYsgXcIg/ugIwm2M0HFVeYqGwGac7fq+v5TlB6v8DQcRoiws5z5U6za02Dq8Xk+eYfXktf0v54qvkGj4Hw8inCxI7JWpH2hWQnD8ybQ29KQwzT3XEIfzYBSjfxLVcgBc42WjPXGajgWcYymBRPXEtljoMSao4C8cYRWaY6Ru37W0aBa7g9UzbOoaoVjhPY+4WcLhvYHw3xzC+AXchX1jIlzXauAWmGyeFYeZiD3zE1S40RN7A67fuODzhWBdmLnfj2w68nDfiTzyAEiMf4WijRgeCvfl9cuaSE5jW0Y9JWQg5qiMO5f9c6MhaxQ1cxfl4nidyuGrFXGQzi47HLCY7yVjhLnzW4W5NaxxeZ9fZiQ434PH0Kd2UHCTsxRkBhPF8nq9RwzmVecICPub4TwLSjXMzlcL/cpELfHglvg2+PrwhMYFqixP5gwPrqvX4Ew/ANFqhwVx5TCA424YRTAulYgXlKke14Vi+wFUuaFiquIGruZxz+DQu4YHcSbVmHnOZy2xmM4sRM2z9KQ/HcjCenztcz2mPw7esmuY80ea+3qWY6bybAh7uOIhbwGG+gXGdUvxzmSvM44WOy/HX4yiVq3wP4cwyuuNiztN0e0u27e5iH2YHXx/eEJZY5Zr9eC1/dQBg67mKr6kJRquGpfMM6RjiLTbff0VZgdFE4zBCmKVauwblm9fVGq7gUi7mN3yW9/MCns2jOdo0knyAqVjs6NebJA7fAkFCw84Px+xmpvduevJjp+X4Rlc/5P00S/FXcSyzhLk81zGMr+Xu/u7/A0HEKOIx+IKrXCjlqMQ8TjSL/l5xeD16JQ/FeNJRingjV+FdnMieyNKlWCjclk/afPfxZhMSWp5Aed3+Retr/Q6Xc1nSzxpHEF7Fb3gQCtwttdfagbvg56T39w13TOd9KVEtcY7DeZijIn6gTClswWkaNZzlzBJmadRxrsfRyC8Xf8altbakE/AGl7my0TbiETUEeRViyt/5Qo1yYz++76jr4UauxlzchXKjFbOUY5KFQmXDYy7gvk39Ko3WQHkbT6DcLU+X33mTuX1ThloQ9ERye7N5nJheGB8jHOQwoPvBH+U/mqX4K9QAIyzMoukYxqvwI4eZEdOXEM4cjsArXOJK1/ZNXMpj2N6IlPwtkpoOxjdHtXMkRNwsRlyJd3AWdjYKGEEoNZhTeDCTR3EzEPODDYSPoXwT1/ItVWHmN949vJErpaMNObYgfZLDLffTjZ85Onm/A1/AuGYp/nK0iokYIdUtZV/rOh6HasdY2PAlhPM+/uYKhFdzI99ECfLNvy2ZYgVgxYJc1R2n8QcH3iub4/KFeJ7HYIBRiCxlS7NAcLaNyOoNf6SfakZiuDAbbTiWr3KTT6B8FV7l/mob70rtNXajXZJzKS9KO4x3tZFA1iWMH/ZDNB6TUcIiDUReyhYiEhO25DLnMI5t/OSrvUWTch9/a3Dnj8RIcikuRDdEhks0g94Jo10WUrnchTfxV8et1zZwJZfxHZypio02ZjYjpkWymELhtTaWWE+qfn5KrUdluDBLdcAhjgzFvP6sxg3IZ05pqOlXrCHDQxhv45F6Y3phHIKOeNZRVHueH6JxQ2Ih1cNxKX5NDaeICJphpuOYYrXqEfNJHWdMYoLsWk3Kepe2UiW+VeNVCxVSGdROFt1EWMBdeZOD8qC45CeX8WvezUlmF5WNLIbrwjmFnW0tau9kB7+djGJSFlLZ7INLuKCJgXw9boIon4wKhcVJ+0iu5T1pj8a7OGpVuIiH+iEapzCLo7VqOAtq/rBQo6v0WlYwyyfqypoKzZ9csJ39q0f4Xexj/E2KfBo39ma+MvEsl2uRCpu4jiuwAK9hKseYHZjDbEbMsBlSonbmdJu/vJ3t6c+RCCOPxXzStVXYsM8Hapjyz5gM4kw7l8O0kypOSoAWcKQfVpgSlYsjNCTg1yOvJhrPh/N+2ms5vuklhzWaFB6Fz1yRFW52U5/PiWYRwxk+3OFyy0YzVY5nuUKbH97I1VzKxZzB6ziJ5Wa3WB5P4AKbv7jObOlXvRDFjKj2OJLfNCGQL+eF9ImiKoVW5T2fwvhs5vim+EennfJ5zK35w1xe4Bz9eTLzmvJxt5hdvcKlLqaXKvG8GoG8UX9zcWEjoLwhEFbJNVzOpfyTv6codz+dPp6ZmJSGkIMBvNORJNObz8tmB3+MEIVdeK8djJv+g/ENeNE3OpVmuNsxO7KK45hVsxmzMcWxLWITu6ooURGjO67nfJc0KTVkyjJciK4qUpxJajZkRrKMdpzE97nOQwg7xe9nJAjCqhX25DsupTyruKn241D1jP3gFxhvwZNt6ji7ph3GP0rdnhJXwz+q8dc0in9MRmr+MIsVjpXjG3E3mjXNcqlJaaoJ+NgFs6u6cfh3arxqmUlqNvSKykhhrmrvKZSfwgCMw2BR2ezO0znHMfhawXclN3IpvuCbfJUv8X/4kRsdtJerxB0QPwC5KWY+D7Op4xyYzrmEoDdS29X+ofb1x/6HoDXmOV49y7Y0uTfCaoBjnWIlX2uaDkCmMGQU4Vr+5oLZVXxSs6+RnUlqNhbCRngJ5UtxcDB6wJpSHmIe++NkzmiApnwTK/kTb1V7qz5ow9ZszdZsgw6qFFfyu5SvhncxwB8wTmHMBsYHpQ8/YkJhPwfr8Sejhx8QgEJhW+flmJzH5lseFa0c26tXYR5ap3+xKFERcwCmudCEre6zzOdRbM9MkY/foXw+9wnOHFEYZr7aFvvwSSxipUMw38QVmMaJqhebGTnRLQrwqJSIkYVC9uaZNja+1azmzzjcN7TKiKSSwzTD+MgQhjip4DT84qeSxVGO5YaVfK1WNS4igkLM0GBj2qajMWrCQSOiJnCWi3x4NSv5JopRkKnUdBfKhwtzVQdO4nsuQvl87s2AjUNZCDlsgZ3xb0zHn9zIjTY8dxUX4XFVgRbILbMs4alpY8HBfNxWa3WnP2gVCgfxWz/AOIV5PNABM36NbxKcOTjAseBkAx9j/l8PW6DROmItR6VXOU5hFiZyrptxODfyevZUmUrNYEB5oKLx+PADhWjNvtwL5/JRvs2Psag+v4m7OUS1UNkqxT6oCKntcb8trTIQW+hBU0xhKNoEdCGFA/mlH2AcgkIcExxmnMJ8XqAhN7ywVm4oIoI8XJ/0EFTvT3EActLZwwMRHsVfXATxTfiOB7IoQ6Z4DeVwC8oDCuNb+PIwclQhWrGN6oiL6hVw3Ga0Nh3ZyioZIyS/tivKj+YxwgiymM1ssy37Gy1r2lEwwlAsFEsXGHXlQz6Jxot4fcr19aPRzh+V6ZpywzWYorL/ethcnqcRyF+QPsmhKQyrCfzJVWXKC2o48kaFMgpxr6F8mFtQHmgYr8vUmlKvc/zPOIyOz4RKYoU43c62FO/hWl6ARzmDv3Eh/+RcvMU7eSqncLDRgVmIIBzzOEK3VY6n1XEcgg54MrVm3AjHfLFCKGzBVzUI7tG1qnER0fMcr+TjbM40LXuEzB34nWsgXsXlGYV4AKF8K4FxEQrHc37cs33FcdTYERSMtNVBV3I1V3HdFiio4kau5Qou5yL+hOm4AqOM9maksZ1T7V82qh2uSHJ/c7lHWqPx1P6GS3mKP5zGRSBooyE3rPEa33xpSQ438UO2TM9EGGK0xksutGL7i0zZn22MjEI8zVA+VJjH1hiFZxqoNNpqonEKxya4qn/JMdTaE9EC23g8VU5oNZdwNu/D2FhhuUdAbmtWO5O7MJ3j3S8lfswzd/LHydwUQ0duWM2laBWLi3qdSw6ruZxtVRoKamOCMI/mItfIlEexPXPKM2RKk1xKVDZaqPIGQflWAeMxUTIwxOMTnk0TxmNiCk3+pF0PWslKbuRGbuAGrudKzsON0RaewXizes/ZBNx4TEaklhtW8TMz2y8wbkbMkc7lhpiBwvhgXkdyuNYcmY4OQIYYrfGRK8U+VVzO09EZYWTwtKmhvGUDoDzwMB6TYhkr0QJM4ux6MD6WuiDZh485PDlv5Fr+xGm4i5fwX9yT5diOndiJndkJraMeMcKGFIeTeo6nEcYdyQ1X4jr4hFKhMJvjNExqX641qd3yBTqSw3XYLx1aFYZ4FBe7Q6ao3VQLhDIgHlAoDzSMx6RYzFAsB8NwN/6oVwz0IyZCEySjeTjFQWvlP/iI2gc92Z5FaMnmLGAOs0tCZWl4YlNY5gsYL+J1QREb1soNz9OQG15cR24oIsJcXuwvrYopjGC6CwU/lXgU2xvZZZmkZnChPLAwTqEwHMvFcNyO2ZY77E+eTK2WDzExhXunGLdfcIHqx1ZGbjpg2/K5S30B4505LShiw9qcwuOO+Yd4uaGIpsthWrQqZsjsz3kuKFMyZErwoTyAMG6KKQwjzI6YhBe42KatxGtqR6W73WHDji/hzaovCsvC0aYEJH/AeHd+kyKifcwvYkMRClvyQ8dOPCtZUutuuOULsjjacYZ0Ez/wXqvCEA9uJKWSIVMCAeVIDeWBgXEKQwwzwixEzI7cD/fgOy5LUVr3OSu02fHipFWSa3Az85u6KyeFOyZxgEmbwyGFwv4pYttFPJL+WTvCtlyu0Uy5TUKG0gip7hpfsNx7XxWGeYvjxqLWIJ4hU4IC5a1SQLnvYbym8J1hhtmdh/JGvssF/JVLHLWRaEiScwc+n3Rzn08/QNJAfmV5fx/Fmhnpuoc87p/S2XA7H1EqWrZY9XQqIjFhCzqXna9lude+KgzzUcdsvbUyZdsMmRIoKI/ydi4MGoxTGEJYhc22NHkh/8eFXMrVWjmd33mCNoz359NJYfw8X8P4e+VpcnmhsBUvTFG/+VLMF86GW147Jzk2RdnAJ+rYYm35kgK+5njxrccRKtfb/C4jnNVgA9rveQBbqwyZEqALgizk8fYgwTgE0knYDUfiv5jLP7myQSn5FTyXur+7I18NKIz/j+mbnQ54wp5VwAXw02oqxHXO9YJxtlhbBl5Hq7IR16LQ2wFgRKvEoS6Z8oIagfxMmU8gofw0rgwUjHfGufiOi7mGmxrRvO0OPYqSwmhS73F/w/g6PJge4IzVJDi/tq/fTF9FqaMxa8FXHOtUVmN/ZNU/2OppVaZ53QOogTC+idezpxEZmWHEA3hReKilOmkVDvPjyUqJ6otTeTYP5BG8mP/hh1is0T3zr88L3FYTxsv5ayBhfBVvTpcf0/AQBtvGtpV4xy/1myKmQNhWo5Z+JUeaESvYLLGMhJL1AGpDTzmuBsB4FZfz2Ew3n0DDeDk/sZzbk/04p0pUNpqzGfKYzxZsjfboxME8jg/yR1ZpwPmHLKXOKAn3tdEv+BnGl/GytOlUUlVwrsS1/gkOTDEj5gjHCU4rnUrN17CNxrtgtRoYC3sJ44jgA61C/Cp8r3ZD80w3n0CTKtvzpaC2VK4FjwgL2IYdOJjH8XH+6gjO5+hUclLYkucHAMatCI0FnJI2GC/itbaj/hvG+YoZz8F+jmltK51K7Rfp+Kqswz7eFuQzzCc1lCpV/ASlRm5phkwJ8GWK2Y4PBxnG4+EcReiGUbiWM1ltC+VrcBEcn20hGMAX/Q3jEAzG75ZZjslpg/Eu/J8tYnyOPPhpxej0/dmAe5BvPfT5uMf513hdkM8w73LM1VfhBQ5A1hApy2BhoGEckqRXy6mU4KWsS2WwGNloiS5qFG7mjzZgfl+Rw848SiAYg0W+j8ZLLO9uFqLpgM6YQNAHS2wplev9lG+hsAVfcm5PyAssdCoiIszlVI2ezC95m+RkmKc7Lkj6jANVRiO+ddAq1lqVq8ubBVV5VCq71oB5LxzIl5Logl9DX2frV4nqhBtsOVN/wHhpU/b+iUlZRBm2JyBfUSox3YYRqzieWdZDn8VxOpblbOtlhKRCan+nxfj4Cd0g4zIouDXA+P6cYzHHt3GbYOc8olISQi46cAJfb3hBPgWCCvzmbxhnchhPUw2nEtU8hQvkHKOt4ZvVEZNYSHXXQN/lamCdvj91LyOkunOZ4y9aa47w0nWcIe7M3xw77+7F3ExqM/gXhaV8z1JZ3T7481sqOaIijPJNC/A9M7Xyi0Jhbz6YIrzyA4wX8ijLxNzTZlqyVxB0gJ0n+xreHQvH/LTus1jhOBe4Cd+qlrFk8QKaa7RpWI/DvazkNMXMcy45xANoB4llcDDglylmBz5qMb+Pqd5bR+s9CtvTihS5JxU7btaUl5+dos7PHzDenCdYUgG3pIdSobBHkirSzS7jByh/rYp8nquRmfwv85O/w/I0kpwbcSeaeaxVedqxw8Aq7FjsMEmUufwM40mSnK9x8FbTVLktr7Z4wrfUTso2viyX8mY8CotSkp1+gPH2lu0afk2Pn2BMhoUwxPZ1N8fYxvDXqtBxGrcuxN/yZTk81XGScxPfYysvJwVhXOy4IKmaZ3ldV5q50rSgj7fIibzBYVsRjF9jlXLjcclK8lHz6YGrsdBBzsoPML4t72k6nQoEhTjCVq73op8oFbMmwfmTCwlOERFmcawGzb7MW7tahLA7/3RMq3yLrpCMWmUrgLkKflZvfudyz60cxqv5FodTEDLlrw9DCDFkCLrwdH7kyLjZHzC+g2U17pdmLzM9v1+URLi62WX8aD+tptoKzjXOkVd1N0L2S8x5Jec6ml7a1RqiOmj0/9mIycjPwHjQrySVnIFvquwAxjfwK16J3c2h5vDazzCOwhGcylc5j8scHrl9AONJi3/eHyRpgvGutqU/Pxm9/ESpKFG5ONwxgVyJj9DcNlHMAr7hmKHZwJOY592SiYrK0urG+Ro7MpPmDPhlSEm2pV3tiVvH3NrAeDUruZK/cwF/rf0s4EIu5nLH+apqVvMPnsqmfkLr4p/VvIPp+v3+NqC4AS/Fsvy0liBohjs1bMLvQZ79F+bhBud1/XzU256cCONGjQ5A61RJWSSWQcJAX1Gh4HQLau+cfbd+GHfj8wP3bdoXHoUFlnLDNCU4KczjfrYu41P9dGqPCQSt8aVjZnwNT2OOfXifrY50DJxV+BqtvZT5IYQJztlxVuNutM3IDrcCWmUCZ9ab3VvYdmugVTyH8Z9xdFnOaGHIbCL7Ago7806LO5uZHrVRyq4/v/hL9RSTWFgN0BBzrOJYmwSniIgRVjtzhXPPWzUgFvYONjXZ8WosVANLMrLD4MP4Dny53uw+ywFbA4wrUd1xt4cwvpGL+Dnv5RRzu3JhiEKJpjG0iSVPcE5nOE0w3jmJT6bvXMZr13sO9tawAVyaMqCJCVpxvuPwfr061MsSoKioLD7jmPqv5iaemZEdBv0ypNSKHf8U2BoS2BQOTNoO2a3PJq7hIv7Cj3gDD2T/aP54gUDSEZ/HpFpQboEgy3l1OnamWWOKtcjGEus6f60jCApxlWNmvJJvsCD1MsvnM46/ciPu8LgEKMTjNLQz1fgW3TKyw2BfSdjxn7nXVkKq7GgTK7oN56v4B+fxcz6Af+MfZu9yYQhCocQ8itCVqDawckOfq3ZPR92kKWY2x9kEor9hvL+YcQpb8V1ucmwRfkOKBKeICHN4huMSoCp86S07bobMwY6dVTKyw62HVrFix08Molltk8L4X3C+lsv4O3/hp3wUV/AgDowVFQulBtLdi9JjQuH2/NDKhTTW2UjP+LbiBbYu4/n+gvFoSHV37OVazdXqnyo7NXBGzKgG3e4xO26KmYcPtboAvcpOGdlh4GHcih0PsFnt5i07QiAYYmGNlT5AX8cV/IO/8EfO4N24gpMZM/uYglpQR6Mi9ZiURDDBIrJcj4d2S8uuhKAjHrehVG7wV5BHYRZHaTDjK1jKiAPgZBstdvwQL9lxEYRxucZrpZprM7LDoF+GlObUZ8fxqOoVZHssU2IyMoyhfEIj25MsjTmP73G2Cwz6Cv7JBfyZM/Em78T5PByjOShWVLYF0immY2CnQNALVp2J/sApSMsYQ7Adfkz6zL+r/ZXfYFzHFGsTvmNrR8EMCzjdP+w4QthDR3TIavwnIzsM9hUVU/ives4qH0MFly5TYorZjJP5mUbklfhZyId5Giu4HXuwM7uxF4sxle83+rVQkzpbzWX8k7/yF87hl3iRd+NyHsuJ5hDuGCuK1pTVbPmg1i7gLxVMrMag9ghL7PgqPTqjWmZ8k40lVnvDbzDeki86L7nE/Q6YcRER5vISx0utlh339JDUjDMdnw5qZYcZt8PAM8j1nFWwDv8MMoyrLrgUvzpOZcV/lvAJTEQ/bsPmzOZfeyOClujKCXxRq9LTSW/bDVzDFVzMPziPv3A2Z/FTPs77eRtP5bGcgtHmEHOoOSCa/xeMdxNVhvmWIr9nDk5XGb4dM76G90TDUb+t9LZcosGMH+2AGRcRYRZ38w87LoIwbtWo5czIDrcOGO/Jp+vN7FVBZccpHMRHNWzn6kbJs3EJduY2Rn5/GVnvm4vlekEOOuNAS62227z6Wq7mEi6qjdrn8WfO4vf8nh/xXt7HR/G5tUEATkO6xrmzTbvp39WBvqNUsmhqnM+Wq52TdP2x+Op2GiI/79nxEPbUpFVmoltGrRJwGBdeUW9mX+bOwXs9x2RgiBV8rwFkykq8gIPQF61KwnbNwotlb1G5HMCrsKLJUqdruIbrkpADs2CkZz9C0AfJsWKusZ3vKJUCnqPDjCft+mPJjr/pmK3xnh0XNNejVTJN3bYKID+cv9Zz5dgvaLNqSnkzTMEPSffTBq6wEPiuxSecyhJ0MPIHSLGz8QqjJcv5apOpYJJ/pqus9CQ4zWyOC44lVi0J9JZjos05M17Ljl+qoR2fgzbeThLCuE2LVqnGfWiXiccDDuNlfL/ezE4dmR0L0FPUMuK/2QQhn2BP9mQJD+fZvJk38WZeiaNZhi5oVa7Z65bCbPZvwpg8mUTuGqYPFM+3cRk/xl9BQEyiIej0P3bOjIuImBFTaTirrDGHe9lcuSG0Cldip2GZNGeALyWx1ryv3rw+xf7BiccdMOKzODGaBWEEBWjBtixiEdqowvIss4G/aIZVW+zBV3wE4ws4JW0wbseM/2zubPpsjatcdbCGzsg5M15zONHSjm/gv7z0HW8QrVKdSXMG+4qKKTi/nnjtG44JxqzGZEhIKU63ZcT/4FnMcfd5SuRWQQ5781zLxg1N8VnGK9IzZ7bMeCXeMXP8BeMQNMMdjsXdesy4iAjz+ayGWctzbOntRDWAVvkmk+YM9gXBgaxfyHHGPgGoCYhJSQ725Re2e2g1blJFXqxRU8pDaEaTL7ksQ2zo583iNFBhFOZx36TB3nJcDP+t8CLMcR4uazHjIiLM4ZkaveGWoHvUUwqjAbTKRv4jk+YMOIwP5LR6r+eHjB5+r+WksDVOxYIUqavn2K9CSr27h2z0wBTPZYiOaBUciXSMepGNk/svHOIvNDDFjJjDNVBWjxkXEVFhNVjDrmU99kSO12oVzNArncC92CYTjwf3MqTMoiSfX3O0v1/OSowuuCZlbukDlO0V8vKQXyYjQ6oAvXGED6D8jageHdAwGO/OT5PewWd+o1QozOfZGuel5WoXDWa8hplULfGdY9jciFu9FR2KIIQrtLxVqrkSOw3NpDkDe9WW5NevcDtjbx/TKhAMxjMpC33mYooKex9k1EJ5H0ziM1iuDb7L+T6f4828lJM4mZN5MI/EhbyZ9/NbTRX8Ml7m7cs3JgMFQ5KC4krc6LeQTlNsqM+Mi4ggDw84zqFW4QuvRYcMcYSWZW01q3GcaqYyeBjYi8IYP6g3qw/6lVaJSdeaQp/1KcOeO4yW6XqGMikOqXx2xDCexIf5vYNdvYT/5Tncg33YjZ3Ylq2ZX/NBoWrFtmzPntwB43g3Fjjejd9zd49lEAWYYuMyvjt8tlY0xYbr8YAmMy4iorLVMRpJxZVqQDTsZYxUa1mr50jxPrtk2PHgXqaYHfmIBcu5D315t+XNMAXfOyic+5JjTSlL9ysxwubswO3Yj8U8mNclAfDHcSR2ZEe2tNPQDJfLRGVzG+yAfXgfnNR8b+Jb7O3dvEHQAQ8lF3aiwF8wrkTlqkkaYsPV6hhNZlxExAipPhrvig081lvRoQhDPFmnExCruR4lpRnT2gDDuCG4wELtMXWE74qAIGiPc20LfepSKpObDlQojDCb/7DijxllB6OwpwxzHufnchuMxG0OoHwtHjc7m96Nfy/MSW6JRf+tl2a43bEasJrLVB8j1ABmEs3wseOS/DSIDpWo/pyvSatcj6JMmjO4FwQHcq5FEVA/f21LCvvzbo2SuUfYkU17v+MtOq5fX9YAH0IlKqLaOoLypby6NMcLh0FTzGyOTYpWv+OggIsNK/kWChs0cszhuY5L8tMgOoyKkcNn9byV8T26Z2A80DA+qL7okH9ikn9mNSqDQkrxFQ3pWDUX49SmfAJLGF/Ecxr6alGiIqo9duf0FPa3v/NievM8dmX4s40O/rLE0hYbruG/mdOwn4qYMY34Yr2a6K3ToQhCOKxeM4FUyaRJmd6cQYbx0cIbLOb1BrahTzZkeTMezM+0C23eZXHTPYEljM/lxIbfUbEcLEYO+/A0/JqCUDoMXjxP16St8TbgpbKQ71zGC3iWxppZYcbMSAMXKNtoiA4r+YDX5e+GGJ35iyatcn9GPR7ki8IjuNBCdR31w6zWMOJc0IBmEJX8T3krs+lGtT6Mz+G+jdu/plSE0BIT8IFtqvNLtzUrMekjGJxUArmIx9F/q7oV39QQG37PNg1eK1qiw2r+ybbeDldUjAgf1iB6qlnNFdhp10xLtyDDeLS+0yHW4oQ9m3xWKezP/1Bfj10LLzijR5PUNcTkH8J93IdxkRI5QIwcDuGjti+wD9RIN8/tSlRznJD0935UffwlUG2A2PA25DY81sjCwRodS9Zjd2R7XgS0j2ZRfkY9HuhLSayNhdNhNZ9g36aMsaLSLwRdRjzx8znGN8WZgsLmPNULGK/99gj78QYbymAdnjI7uXcSgaAjHkkayb4TzYr6bE2rXDVRI0BehYnIavjPhVQvjXfGRtzieS2noDm/0fQ6fKZpVQGZq3FwWS44w6KCoUnTnLUa8W8baT1VxSfQI/1PQWEr/tsrGBeBqDC35dk2croVuLU0J+YeKvTFwqSWWJf4sH6zBR9wrAKs5lJ0QKgRWwiFfMGxtrEKc7yX9yGE2/W8DrlKFWfU44GmVcbwC4t5vbGp0pxKVFdcggWa4YR1kfgVpXmxho9MEQ7E7XyZb/Fa7jHSYdRJYUsvYVzElFEhsz3PtbXLOgEu/Va5Xc+fnznMd80iwmoHLtIw+XuB+Y0DzWwcrwGaa72nVSgs1S3K51kZ7/HgXqaYnS251iZJc0Zlp5AqwVMONFwr8BY/TPm/fuRkNgy88rkvPuBvXMWNrOQK/oL/qB2Vsz3Ukmd7CeMipoigJ+62OYl8jB3dmD8I2uHmpL/zqQ8tsfJ4jMY5bjWOR3ajftIIG7topHA24goUwutNrV+U/wG7ZmA8uDCepJaziqdPSHOak8I2OA7fODCGeh/7oDOieCnl/3yLI6l/Hy1wJH5OOA+s47NqkHLy19vyNgsYd7XTqZJYGAP4mE0xkCsacgh6YVZSVvkmX1piTddAsOWGrrNh/QOAaolPHLM4VfjUa4ssEYRwpabX4XqUlIYztEpQLwj+we8t5vXJ9KY5KezPu7gkJZnyOy9DLyNPSVkY4/i529LDqOwr2M3Slmo9n0RvpH6O7Sy8ar5RVC6PlxnGcCQ7kazirY2fvZiURhBLilC/Yg/fWWKF1Q4aoXElPlGNN/llDs/TyMavMod525dTRInaUbconxezVSYeDzCMD+DLFrM6z00awEEcfiw+c6Dcegvj2GqCDBURiMrmYVyY4i9+5qHUu5cevDfpEfxKBzDeyyJK/ggD4P5ezcVesCZBf8F+cGNerHj+LS4xXrMDnlMqa3llA+s34yYirIZo0SrXea1WiUosB69rmMpUsxozm0IRkLncgvHDhFdazuzUYVnen7KiUpqrxvA5LnIUh29Xt4UKRLXg1JQr9FXuQh0oMDgn6Xe9xm2Z6u935nv1/u5D951qSqVC0JpnWgoBpxkFyg1Y7MEZSUvY7/Zl4Y8OpbLCRAPrN+OXsGqhRavMRluvAZMhnqTpdbiRFeXZZgYRgxuPT+TPFvP6Inf0uuRscBg78XYucMCHv4XxbL2HDKnz9yOlXNiLD6ZMY11T4lixQuHedmp0GilhfDi/TQeMi5RLiXBHC2JlDircoFSy7ZpF/O4n750GUSqNq99sBK2yFrt5rVZRorbnPM0ioBsyXoeBhnEri6xqLvLW8hWCXrgC3zrIxfzOy9DLqpUhZbigIiVDrqFYoXA/m2+agSFI9fcjLHINH3rjG0lhq3q6mLW8n9l0AQmM5vhX0pH4wejoL0ssCvN4tAalsg53NKJ+s+5lRkxDi5K/Gc29p1X4iF5RPr7L0CpBhvHTk9EqV5YXmh79JrribHzsyB7uTYxn691lcLJvysY/U+6hZ5y6cVK4l833vJMq8QuBgfq10NONQi+qnZWoNjgvsReQOdx0BxY789lkEMgnS/xnidVaj1JhOSOu/LQpbIPvHf90WmgVhHCohoA+Q6tsvbTKGxgGL36tG87GDAeqlGou5S1qgH1LcQo7W7SHTiwFuniWRJ2BQYw/JPcyN0MpSZWxVgRVuUS9mbmB+DahsvKaCheEEDFpKxictK7lTx7jy8KfpqBURESQizs0WqiuU/t7bVlriLGt5abO0Cpb6aVEDbWyIsUSHOLmrEZl1xB3xhX40BGEV/NLTkLboaGyFAxxqbA4qZXq5s8noJNnobATb0paHXmsA6XKeIu/fIHezFtLJPq3fKi6uoEPEBTgcBtLrL7+8lJqQkpFRESFVbEOrcL7va6ajEosgrv0bIkytEqwYXxEmFcnoVUKTJdWVWkuynAbvuFyRxC+Cg+aw5lPZ1s4woP5e4qdc48TBTlrDAqstSrPGe1U6r9PE4xH5URRIxAfcP3GY8ZKqTsw3gEPJNXMvVyW5UNK5TUtSmWUS5RKzWSoFvhU4+f/QLcyjy04EcJe/EOTVhmVoVUytErSLdYWB+C/nOvY03MOTkD7UY7JASWqLa9I8Z0/OVOQQ9AMx3KJBS8+dEwKiIzJ8AgOtoz8vACubRJevpvwCpu5ZcGFvkhmzLGEZ2YolcTpyOH5GrHvBnWQ552ABC34TYZW+VvB+I6WapXFOLQxs1omQ8JqB0zle45EhZs/rxB6qfwyGSMcxtfdSHQWyzhRzbA3P4qL3R41R5aHzZTQiuY8vX7JNy93G/aicqCgOAFo52C0ayCej0OSvxDNIT70Ujlaq/DnQhcKfxJolSEalrWb+F+vGyyLIIQ79LwO8R16ZmA8uDDeKZla5aqGqlUobIt/8EHO4lINv8KlvA7bMasBTiipiZXFOB3OYWwgDsHVvI8P81KOZufyLEeUjJVN7TJeQtdnDB1xS0IB/u1uCA23fPsDyV3GzVzTZ+sXbfC+BqexTA1RYVdvQZtWWaK2j4a9pVUoHJ2yzLk+rZKVoVW2Olrlafan9oouzUUU1+F/nKfZ+uELHsyi8bJLQ8IhUW15bcounSOcPU2pFIdi+WjHztiWRU5XdpLy9eW81O3WaiPDqEhQ3H+tBij3VkO/pJTKclzquyL8LCqNJjyb8Klq4Tq3zxxeoLHcN+J8r90MKGyGGXpeh7g+Q6sE96KgL59rbLVeVMry1C48m69yDldoemVuwJPmCBY0FPDKZLSwLIV97RpceaREvdw3Vja1P/MQd2Ecgu54MkECeOb2KTQ9WpTKZBuXmuH+YsYhaIbrNVpFrOEFLlMqtbTKUA1apQqfpKWFxFWaXoefsHvGIiu4MF4mmGq5Ff7L7VPPqylmS8Y4la9wFhdrbKm/KjUvVd0rwmajnsHMwrEpGng5FB42GMa7WxhrzXbXZozCfE6KyzVswnR0gnuwmJxSqean5b5yGY9KaUh1428axN0yNdRlSmUzrcJ3NJb+KoxLQwuJEi7Q2ojrUFLiMdmTuTyd8fH8ytIC4hYjqRa5TIaH0Q0H4ha+zTlc0gAAr3EA3Ietx8uwxgPQdnwghfDwzuLcmHdj2JuPe+02TmH/hFbYP2GvPV0RGqakVFbhZh/6Gh6hkd70hlIREUE2TtZIKVbyHq/V46aY+bq0Cs/MdAIK7qXEaGfZYLmaK3k7eiFxfbTiYBzCa/kSv+Y8rtJcK3XIFD7J4bE85cqWPlxQYdmWro73N3aDd5BiZVP7BYrh5jy1xClxr8u1fEDluRiL21Eqv2KC72BcTzHuDaUiImKEVF/+qnEs+APdSj32NGCIp2t6HU5PZeOZufx7RWW08KgkWo/l+AA34lhO5iE8ghfwTr7AT/kdF3CFnq2xJZnSo3FkSgLIFVqw0/Gdje4a6VE8ngTGZzihpZzO0kmihmJm3Pd/Z450b9+loFQ+89rVSTvcjJhDNRTj1VyK7RvRRDkFrVKAR1OwevERzBHM8xYylagd+IvWllyDnSXNrb8yl6sgtD2fTyp0XcmFnM/5/JVLuLqR4L358y2nuEGm/HWVCkXtlKK9m2fxOAT9LBLFLvobUrgNr4wL+JbgolEutpOBoB9+DYrLOATNcI0GlbeRL6OgzLPbycIhWpKZ971u6RaVWA4f1fQ6PMZopjJ4GFwYF56ikWxv7OcjTDAL3YYFJcVhHmSrIN/Eh9neI+PYofyyvle6sY07pq4xKY4oM6HF3Aeqi3ITFu0old9xsJ9i8ZiUhVRXzNbgMVZhCrK8e6uE0AGzNBieVeZQr1u6QXCYptfhU+yUoVUCDeQD+GLaQHw3I0d58hRmJ96aorXb4R7B+AjWb0H80jiXzqgQdEV8/mI+Dh3jWnIzJaUyy+jkJ5dxJSpXHaBRH1zFBejoEaVSO4C5uFPjhipxjdct3Qwxulh0MrE3nOmXgXEnV5mMiGA4/2mWuWU+FbB4/Hm30ppWfGmZYCxn2f7+E17E40maRrhkjEVhPifGndnX8kF3ncxTUCr3j/SVyziFrfmyRvC7Hne76Gto+WYJq1It9fhs1dXbNGdUYhHcqVmUPxH5mSKg1CAuwqP5KRfiW04sz/MVkKcjHn/O3Kki5N1TKzGa89z0x+OWML7eLWMsCvvwNe+SmykplYV+o1Q0DbGquUyVeKAYjwdNzaL8dZzidZqTwjH8TQvG70X7DIw7GNeJ/K6W0XuPw+inOxMep+lvqQ/iO7unTbG6SqRcOIRvpDsep7C0nqWBS8ZYSoyWOClOBuFycrOWUrnfhlLp7CdKBYJCnKeRbPdOMR43UdnqdI3YdxPe87qaU78oH7OwXQbGU27IfnypDl93QrmPrIYgaMf/8xDEH0JPb0G8ZuWaERxlWxTiQTxO4RhvHFWiMlnUUHyTkNzsqtyee1tKZYSvKBUI2uI7jfTmanW6yvb8trTV46vTUs15odaxJWOR5WT5nR3nZ/1f9PfPq2+kmAKVwpukEZE4B46SHdIzyqkqOl2PxynczaJn0DGueLYnCg1dTm6KKFHNcHTS0fqTR/kp76VE5ap9NbKJ1Vyi+hkhz28sKiofj2moxyt5t9d1k0rUjprq8bO9N9INfCwez3DOZMxfGySajaM53wMQf9ZrOqUu8Cnhvrb00GwelAYYn8P92WhkGBlOEBq6ntwUoXBbPpO8lYfq7ycxMYWt+KQGU7ABT6qCtJwmGOE4rdj3D69Na6MSzeHzGq+War7GLhkYt11+h/KnhDHbz18jpkS1xdWaJrOpPzNQfqmY6Rzp7rzbVn52z8icmLu/uJsXjioQ9EC8V8u3ZrHb5rcXCgYntcPbiGl+atwWk2hYbc/FGqtvJQ71UDFe9zKFrfGZxhtmI8712rQWgiO11OOrsYtIVDKX9WvxKOFd9cZsyjhfjViJjBLVGTfqqZRS6sR3N3LTGc9RdhPsZis8/Nrdek5LGP+Eu7Kx35rHSXGFeEtw8SiXq0aUGM1wXNKRWsQT/BRqQNAMl2tUb27CLI8V43GDmQ2dNGcVvlNdve3NaYjRVU89jskZ0aHN8uvJ6fXG7AK/mYoNk3J3gfxHHB7LSfehXInRBlfY1nP+Z2SOWy9QU8pz+M96v/FBY2spKOzP/3mb3BShsCtfCQalEpUSXXPatbzeI0MsS9DUTXOuUwd425szKrEI/k9nO+OejOjQBsb3tYgPL2eR34ioYVIualuc5ygzsoJv80I8mjThtIznqUI0wXYfJRjNH9Ljr0JhS55lVYrfmP2pxGiJk+Pizvk4bLSryU2RmBSHEU1Ko23EtFIfUSoU5vNfWr4+yzDSY8V4/MJT+Xhcg4vexJfY2nP1uKHjPY756J2B8aRjeY6Fb+RlbOO/fMIwGSeqNfbANBvh3nq+w1MB9DVbYk9+neR/3YMOTbMilBgtbAuB1uH6/VwitJJ04nxp90Z8f1R2FzUCPyYkN5t5EItbvYL+olRO9Bml0g5fawS7GzlNNU/ra0g7zbmcMf0WtHqHRU3v8SpWZESH1pvyn2Lp6X2dX88vEOSiJybzMc5L2DaL+AJPRTn6osXwcKlQeEASdct0DhnloouhzlUi5cKR/MBmtX7AlJWQFDZHBe7gO3yb/8XxGADnMN6oUnwIOuLmBFfIEk/qT3smtKLwLaWiROWofbSkhit4ICNpvUntNOcmPui1xI/CM7W8xzOiw2Tj2IkvWyqY+/p3vJQYBejOnbkvT+KJPJEnYgrGcih71QB4zQtq5wgvTMKKTx4Varqng6gCnmmbkr9ykm28DEFv3Mo5tcTiBi7k+zy+JD9qFdGeXa8U/86Gv6CjMjSM0XFB3RJcPMr1ECkmI8OIJuUAfEapQFCEt3XCSsxiO4bSvW2ycYZWammxOcRbt0MlaoBl3/Rkn1czosMkMF7CjyxoqAeU72tfKcxl85qPyi8OlyZurZF829KD/hIUNuWzlUi5sLih8XhUqgWD+UyCiXQVf8Pl5a3MxBHqzFvcLMWnsFeCA/z7qpvyAhjb4ppgUCoUZjGmhY+r8e80VG/WA80QunCBBvNTiau87ckRlWgOH9M4xqxm/wyMWy7BsZb88dVoF+RsQlTGCE9L0pC5yVcCRBXaxuPLcR6Sz1gX3myZTFuCizrEFadTuB0fSQyxeC4bDq6F/GdcjOxBcrP2l/rgu6TjM9fc1VfmbS35gBbF+2taqjctbjWHN2s0bKjir6p/WTjq6VbAAbZW/Inx5UHIy6Q5LZbgCVxoMV6+THFqrY5hlkZUM7l3Lylv4rtLHY/jFdVHWb6edhfshmTr/iMOYfzs1m+o/BMnNwLGB+ELr5ObteesvZJqsDfhXf94cEalTLfsZy1vQV6TUEIqjJFaXHQlzvH26ApBK500J24JdnzpGYzHu6lsFTBuSnk+L7KIWCtxHVr5YRWkjMcX46wkSctmPMOmj+gpTKRAHqtXw7kvG7pW2vFS75ObIhB0wN02Z5XL/bOTIWiGyzTKfqq5NK1Sw/h3jtEcT9n6syWS+N+qLsUhj+Pxa5KW6lpFKt0ztIrF1jzLMpIINIxTaNmNHh8ow5QSH9xhbTxuZ/f1DLeh1ZPZ2Wst41TG75ABfLVeDedgNggBRoSViflxJM4lFZ7ovyDoj+SC4p9Y7Je1GZWRIdVNq65mA542mjdZepYR7scVGu+c9Tye+V4OtxI1WMMkay1KSsKxDHInbpgbLHlWH5b/aIB4T95ncU5bzjOi2co3I58iHv+Zh1nCeD8+nTzO4wUJ0fiwepmPBtZwQtADj3mf3BRRYhTiKJsi9nf8Y6NMYT6P1yv7UaqJYnEREYbYDp9riWq+8pbGiEo0hy84PyHguEx7ZYtlaG3KfxQlmDAelaERnGBJFL3Egf55Jgfx+CPlLcz689XfFsanJsD4yHoVutONFqoh6ySPk+JqKufj8NGenGwo3NbmGf1GqbTDVzriD/5PNW9SqaTKxplaspr1am/lqWsFBP90bpKF+5uqcs/XMP6g5WhNDHAsXs5PLJ5oPo5sSrV4A+Lxmdgd9Z+uA6+1EeKdlQDjI5io93hhVANqOCncnu8mJDebe7G3o3KgYLDNud9HlIoSlaP21nJbXcHJzGramw4pPdlhFd7ythuQIUY35yZZ+B69MjC+dcM4hf34iOWZ8Vk/tcJwFI9X1rfJojDEPZN6ln+L8YgPc0ysSKAkHkBDRrUN/x2XxvsKu8KrGWzB04JBqUBQhLc0EHETPm+Csp96Q5zDWzVkh9Vcrfby0iYrKtEw7nJ8QtiI0gw7Xm8hXmMZTQQSxilsyYst18NynlIeou9GXxVaFMvXTcvXU4JA0BqnWZpjLMGl8Y0bKByf6HHNq3RHoUzGCorxU1zfnbPzpcyrOezJ94JAqShRuWovzbKfs1RW0y+7MHbSyspW4U1v43EKlXOTrAw7bjF+VsZYy7FH8M4tZTJOcFC9BhibefFB/nsxlYgpKOfspCt2Fa48IoECGSKjRBXhzHpAvhhXJ/rgWLiN/45TdWcWgi64Ky6mnI5tvVkfppRncbQNTeEjSgWCIryphYY/qC4q5INlp/LwhBYX5HE8Xi7lGiZZGXbcAsbPskgH/sTy4EXjEJTi7SSH2QvElylbJUaRnf843jD6Je6ewVIuqi2Oq0MnVuITHIqOSDirjhPunVj/qHvOojCPE+OEvXOx324eyTYhaIfrgkCpNCgWP6cJSvAtbz6swGUat56OePwsp4VJ+C7DjjuC8R9pBg3GIWjHG5OUYXzN8f58nqhUCCps4vHFOLP+ih0sY0W1wDBO4uk8jSfxQAyqX2xHQSFPTvi+77m7Noxvz3fqGunyAVUA72axP362oVSugH/Wm14sXt1kJfhWy85ohqc1yoA8j8eVqIGOTbI2cFTGsDZhk1pVcc4NGoyXyWjBlKTmDPeq9n4l01LF43wRXayha5wgmy3Ygs3Lc0zruW3FcxK+7WPuQr310YZnJyQ3B3sI4vmYZDMWP3lTNZqWWHwtb1V5vnFlRIT7abmPV+FNtPXuHRqVaA4fd2ySlTGsTdw4h1m8BN/HMATtOUrxblL/+xPG+LYXa1QqhHvayGZ/4RQ2dEyKeFFjOv+Uybj6yc1/hzxKbtYqxh+3pVR84qUCQVvNWPw37ISwb5YdQ2zH97Q8BDyOxyGYwj8d3svT7JyB8biNM8FCsvmCnwplHD1FC16VdE2+g2L4++578B6bNXv/8Oxow763O+9NjO331nihQdARN8aFZK+wrVcrIyr72CvGfUOpNDAWzy3x1bKL8BCtsnyP43Elqh2/cciO/4q+GXY8bqvvzpn1xuk5DggSjEOwXxKFSjWreUu00PD3HAj3tQlEvsZYNOx7E/0NtVTjFObxwLi802z3+oQmeRmfGgRKpQGx+BIUq7C/ll2I7fg/zXj8Hx7H407V45l2bolbp4JfWvT+6RccGFdidMa9Nl46J9O3lMqW9bs9nrEpA7p9zwYQGRbGWFqqcQp3iGu8sZp3MIderkU7xbhv7GmVqFz1D61YfAOeMZr7bg0iC6cldB9JFY+/4WU8DsF4/urwXs7KsONxW2eARY+c69mBQXqGfflj0vn+gmP8/ixKolk40sZgaQaHsyHjMoxfNVQ1XpvcrHtPH2Nn7/ZwrWJ8nVPbryaOxd/QisWXKvosFhcRUSHVFT9oPYin8TiFLRyrxzPseGIENL3eGF0aHJtaClvyBpv5nt4wY9a0R3iD8FJyV7zk3YBsRybRUWUuJzkbizIZIyjG3Dp/+wfP3DZU5iU4dsAdNvM4Ww1S/lhv+fxnnEmYk1i8mS/PgyoL52kdK7yPx6915j2O2eidYcfrLMpefD3INrUQDOdbdqwkn1Bmcba/aRVDonk42a4bkNFb6c9tRYI0+AuUwumodsH/pSu5uYVYmm9jpDGtxAdNlMtkuKgu+HIriMUbGI+v4ZHe+Y9TGON8h+/G0uJwLIPgm8cti0/UG6MTY9lBMS2A4PAUOqW1+AqXcXs/v5iiNTZZM5I+w0L9JsIWpfgzuAOd/WUeJ8bJGGbXd1t09zRiFOJImzlcxJPpj/1SwGO16mb8G4s3MB7/UnUZ7pHm1JTyAsxw9lrJOKskLMz6HoeTTZ8nBTdfMRkSweVOzPr5Jk5IVkjjE1qlVT2Vd93PU2xHvR2Rw0RgnOYsRVkvubkC15u59HYVduPLNk//g9qh6fdsmQzRj8WXcXdG/Lvs9OPxDTyWBR7G4/92VpSP27FNhlaxhfGJAaJU2vFuhxql3/kU92Vrv5bljxGM5pyk9/8t9oTevLao52b+pEMQb52Q3Hxf9VaePvvwMKI2QeFGTCv1AaUCQTOcrxWLV/I9s3W5n7eQysL5uvG40bcs7M10KFEDbbTD8UfLHpkkZ51Ne2nCLG7A3gjO3Xey6U1Zv7HgXD6ozBHZZX7cT2K0tSnL38i7RuREdfZDe1wdLzPgdXQAqcPCiqir/PmN/xotxd7OYhtO9TulEpWysOrv3E+1tk3EoT6OxRsaj+MiNIdXg5yDNxyp2ddi10kBIQ3SAoSJTZXnsyJAOpVOSdrQJa+n+w53YMQET4GpYSt4tHCCTVn+54BO8Q56JrzgHMkNIeiBh+Mi4ae8PsFA0Adf+p1SgaA5LtZoY1nNSr7ngzYRrsfj1VzAXc2I6dWWPt2yB2N9WuVglZ+hVbaM2skJ3WTmkAGC8c4a0fhflqGf4CIOPM5nUA5BHz5qc9fX7Os4/LAo/nEgN4SgEEfE7elZGAevnzofE20CsI14pekpFQqzWLrVxeJb4vHZWvH4Jt7FVt6AhCnmcP7i6C6uDG7fdw+W5378Iag2tRSGeJU2jNeknt7HxRx4o/jH6QJihHFY8jIgvGH0Vc5HZlhCfe4XKLMH5DIZJ2oIPo0rIr/MzPM8Fu9kU4VbzUU8hX5Yaa15r2Ys/n4AYnGRBtRzVnMxS5nlxbSYYhbiQ0cD/Rq7ZmB8y/LcLcGR5lsawRkdCA52XMFbH8rfxkno6p+TmRI1CMkVG4twBpyPi5Fg3Pset2Oqv+mI6+PCsvdUT2/pjDKZIBicQOsleKSjB5p+l2Sx1PYurWLxwwIQi4uIIISOfF/LX2UTH/eqRhCC6xwVAa30t4o4zTAYS+gk/xp3DhSMb89nGwjj1aziQkzDCX6BckOieTjJ5n5fcto+jcJxCX/78uiwaRsGjcrinnG05HwcOdrj0wqFLXiKbS7joUIpbfpVVoQXtHiH4MTiIiKM8DAtv8NqrsAEbwrzKYxxnqN7mOClyU/AYLw/34zvIe+sSMQvp4nyiKVnui6U/8sPUB4VUxBNcEJpgPu4KeXZPCJBXvB/SLV7to8zZljHB40Wyvv11zuOxqlX+IRDm3pelKgctadWAX6QYvHayW+nGY9X4QPVZagHhUCmlBfwS0f3cK5XDH0ASZXtElxVngsSjNcYFeNax41DkqvKn+ekpleVKzGKcKnNfT5S3tx0MquJqvEVvJz2f9GWF8bx8t8wRu9XXw7/YYse3xldm9ZmuEyGiuqCD7Ri8Y2crleu5Y94fLnWptnIY7wpBHJsWftUxiBrC2y05QtBdhsvkQpRPXEH1zYKyKtZyZ/5CPdtWluwqIwRjrdRRMx04vlNYVfe5TyOj8r2IVTEKZb+5LmjPLd0hqBjnHdLfXXOXTuHmlalQmEBj7Hxn7T0UcEYhAMFBBS2w3NatU1V/EH1LfFgepSoQxPkc9Y5/x8yBlmbN/DuwkeC6zYuIrKTlIvqwZs0gwnrAqEfmxrKKezG/9iWAaU0+oKgP5+L+7tvUA673+zNp+NOzK+hm9c7pEz2EAy2UcpXcz72QhPvj9KQ6kfd+phnY83KggYFKqzKnSm26yQ6b/WC1jDE6GFT0Fx3oAcfkCkB2ryF48vxbwiS2/hmIB8j7MST+X2jgbzJoZxSEcJBNvqvz6GQek6H8NOE/qp9mfx/t+aZcbTUXBww3nMpZsr0ZjU/ReumhXEIWuBqLaFhNZeochUOHBBExWimGY9XczFGIRuu30lpGNMdMfV7IzdDq9Qu1FvjYo0AuY0ngEIr7p6Qrg0klCtRA/CCXRnQXikySxZyw5fGJNGpRGXnkCLmxCU3H1CFSMeMbcd3bWZhFW5DU6+pLJYkjGTKtYNHfexpaB+Po4S/6SWVMM0LB3IIrnSknAkoWHmyVM+PoyMuC+rIUJiDnXij4wbbqaB8Dh9uCihXEs3iMTZ39i4HMdVIjHOqU6GwN5+K+99fYrj38Jmy30815ze1uw8EbfG8FqFSzd/UsADG4iIiI8XI4Z2aSaY1nOK+AzkEezt6oWRKgP7axmfFUWKXBfkFVy7syP04TUs75Tsop3AEP7I5yf4b9n+dz+MTmmckaYFGYWueEQemi3iupEGpDUEH3mYb6P2vaSkVCvM5RRPV1vJOI7cksGAQYj/NwvwqfKH6lrqc6ISgLWc5SHL+jv6ZJGftiB0bVwd5WbDPKRTmoB/P4LeuAHkNlD+TXl05RLW2cx/HK8Z2ym5Gi3hx3F/8zEOt5rRUKgQlcYRKFaZxG+/nPyq7idoFdlUey3FlU+7QMikJqb6ayc0qzGa/wBT9WB4FszBVszB/I65CC7i/jZ93wNNXoWxkOJZBcaFw77jU4OXBd5yhsDVLcbWmlZFtiRBfSh+UR2WcoMKmUfSfdmX5FHZPcGH/lENpDfjdcV98z0s9X/OGE0dGMxxtO+ZzWcamXUOteItmcnMVpqqsQG8dFVLd+IHmYXYhyt1OdFJ4jpMGEjg20wWodrziXVVOMnK2hnOKKWiPsbyXy1yE8hdxfHqgHIIuvNPmbp5L/rKlcCe+E08hqpaw+o0CHBEXeq3mHWZaUv8U9uQbtmHWu+V5ZprXzGAZINFcsw9KuTdO5S26+jt8qbqpUNABIcLDNbW7VXhZdR7sakUnhaOc9OXMdAHaMl67x8H45PKtRIpZIj1D6MqJfNJlKD+TgybJCI9nJYXscC4n28B4CeOJkodG1ZvTUqkQNRzxtmgfYTDSs+ZyuKdtenMxzkxPLG6KGTG35a7cG6fwIj7B5/gOP+Us/qFpwl3NFTgKka0BENrxdc16p7U8yt2KTojqmGC9av15k90ySc7aDupfBrGFm8Ony2Vvl6F8Md/FVA70FspTyA6r+ESyXvUUjok7FS/jxXRCqPzBs9qF0lG2AkFH3Gk7yrPUAC9fKGVSGo61RRkn8yI+yen8kLP4e6PWyEa+G7AC/KTTE8Y4TZVlFWeZO5e72EoiKqURvO6A3FkeLO8QD4FuYNwRfCK3vifcDOVLXYLyai7jO7hKxbxrCGdINN/W7fA7TLACupgMCGFSqgQnha15WpwfaBWmsX065r5MdhMMtpWFVuKVkmwvzoSmlEfMbhiLM3Afp/FTznXt9b4O9yF7q9gwZRIr5P9pSnSqeIe7lkSOteMV5VlmBsaFPfna1gzjcVD+XxehfBW/wM0Y7U1KuNbt8GubFuX/N8wC6iBoxlMTGkZEkbBPB4YUMbspkpu11Zsn247sH+pY5TIylYZjbRHD8bifr/Mbl2oL4ivTZ+GYspyRW8V2CbE/5mgK5hdzf7rYY0SJmuTkTIATVPMMO17P43Ait94n9QLKZ/IhHsSO7o+aEqMIl9n89teqAlZP2ZXxdlOvG0Uq8f/05n8TeN0bvO7zU+dF0wcf247qt+75GlKYyyE8hNfwZX7W4BYjzoD8F1yPQQhtBZsFEfxL04G8Ch+pbatdKzkwxBjAuQ5g/LZMkvPvBOO1T5vjOpSv5498Fse7bSYVlXHCcTbAs4F3DavXpbKeTqUKD8UnrWtLfuLPzO+rfip9M7CnLem5jg93cSHNTmEuh+J4PMAP+ZN2wrJhn9V8i6fEWpVtBRulnbbwcCMucU9BHpNoLr9w8KtvZJKcfzcYrwPlk1yF8iou5DSci11G5pS6eKfoxYf04vF6OpXFOAdx9ELfkEICofIbTxwtI9M1+qnaYC/AAY1Zg7uISLQACqfjfn7oafydrA3JvWp4QAvy68TjYeypvUEWwnRPQU7hQw4Y+kySs+bo3i7OcXzi32FMPIHyai7jh26y5RAVsWuyzA28Y/eEU2w9ncps7sP4f+/PFxOCqKeSqV7cvqIyOISyFGPeCF9DCnM5HGfxWX7mAf/t2KqW7+LggIsPSyVWwHt1E514U3Wudskck8IznUj3ER0eiv3NYTwqe8c7jk/8u7zaPILyVfyGD3IyusMVIMeufMvm12ZwSAJI5/G4uP/xobmDWfff2/KChBfDLCetKNzixVVbXG5PS+AONGw2szkIx+N+zmhCAP+rCckPPDeaNyLIGwQh7IofNROdlbjYLWKFwgpHJUCHqYJMJScl7pA7kX+vZ89hH9ehfD1/4vM4Hbs2lmKBoJBn2LUHxxUT6sTjFHbiTfEWtRVb5LzlMiqLE7iwqZKbURknamf8aDt2P5F6d1MqxWGjIw/DbXw37RSKHbnyJy8MNJAXSywbJ2gmOl0kVihs5aiFwBXB9w9xGcY3NrU5aJNB+cEuQ3kVF/ED3I49GrPGSqVcYNom7D+oG49TOIivx6ULb+aW7xoj2AVvJ/z9+6p/ukIZJUYhjkpxKn+nPK/c4fcNE5FYIUxezWn8WbPjQQbIHW2NdnxDs6KzCm+qzve5QqxAHLWPeDWT5EyA8QWs4N9zDLyA8mqu5Xd8EiepvpNkp4au5K627iorcPn4LXYWEJCL6/zrPB7Bv/5t24QWIdWcj6MqJF1aZwh64337fBWudhZGmFIeYS8cj0f4eZpUKH9HIEcYTDi+pZFYgeCmuBo1a1JlYcauNgHG5+geabc6KJ/M+/mLy5v5D77N6xqW+qSMCuMgO6DCxyhBLbSNyuJhCd6Gw7h5RxTg8ISX1Do+aLRS6QPxPByYIriarYalup86MfgbPiJRbIA8ll8a1E0xRGLZvJFrmoZYofBYB4mOKpSN+NsnOeNg/Me/L4zXjkUuemA33Mp5Lm/oVfyaT+Ak1Xei7KhJRagBeNFWZ317jX6cwg68Lu7fXmYuRaRMBoVUDF8m/OU3VEzn2HaLa9xsFcZNK86K2pJMI8NGR07Bw/xcG1uaCsgXYkqAVSsMsTdnaCrIq/CG6nxmo4kVCulkI2aSnBkYT7yKZVBIdcLuHkB5Ff/gW7wO49nJ+SgbErN3V6nm12oUNjPj0+MA/hZunuPefDLhr5by8opsM32rLIe7pzghL8JpsP+GQTiRL/PnQAD4X9WdXxMMro6cYU7U5horcVHjiRUKW2eSnBkYbySU74EbONv1bb2KM/kUzsLIEdlODttRMQWwvY/1fIBFkNHCcXHmtrXMOIVteV49CfD/VG+VzlXWlY+nGJlZGIhkhEw+TF7Dd3xPo1i7H75ldikPapG+KWYr3qepIK/mQu7XeI8Vh0nO59glA+MZGLeG8p1Dqj1MXsSZHhy1l/Ij3sMjVY9jZGDqGUqUEdb3Hz+YwsTmbZ9yOGtKYvar16F2Po4aLcXpW2PZKWPxDXymvq/hUDlcVEvuj9sCQ6NYprpxa6wwsAw5QhisrSCvwgyj98hGOh87S3LyC/bKwHgGxlOc6wxexC80dVfOikTmcTqvTUWylMu2wn1t9RiVfJG9MCyhDcTLzINUiBqKT+vF7w8arX0Wiy/EUUiA8ENFteRBeIQ/eDD6dqebz/g07uSlvIy38Fm+yJlY1cjvXISDAsuQF8v/s3fWcVJV7x8/u8sCS7eEtAiClIDEsrsz93nfIQQUUUysr11fzK+NCljY9VPCDixEsRUMEBUDREpMQlQw6RD29wcrgntn50zuxPM5f+mLvTNzzrnv+9znPFGUK+eH2ROomL+YGG1jX8tDzvXsrxhXjIecoTrSR0bKrLjAZAMLeVHGSiBQLZin2jHO/vJqiNISU5i0R+/IzdyLwdDW42BxAZLQw83Qtngxi/wt/qlrWGD6ZPsbcqxMjoNbqyz3x0Ju5nD60t5pSh3qShM60BGfHCb/Y4qsjuKR/YnbzM1K3VugPs+V2bDJMxqWk8gjus+1OuTkEHJRjCvGQ8gx/mpONzmfN8Ps0GgP83k8IZeR7+Ux9xtfnlwY0obcM+FuOadipIncXurhk9DDzZImz9NCtV3gyZySuoYFpk+2f28ZySsJRvjnci4+r7qn+aZPVlEe+8kh3MaiML0Lf4+NjCZ1G0s4WU6fsB0rxSxxuwSyAxF/qhhpzFKLWJWLnRqOYlwxboly6cQJMU8S2t1jPocHONPpmL9HGn+RcY3A92FdbZ4U+KrIWR7f9X1n34Q6VGpyfsgTsh/lP7I7wl9L6GHmdvmGayjsWzG/7F+SzV643CE/R7S6X9OOVLXH840vEsfKDnnaaWQirkJeZPrmyGyLh8etUk8U45r+Yz9bFWnLkXEIR/zn9XsV7/0b5mKkFY+GdZ1Z0k1O9LBnV8qZiTvcdE2/HIpkSWizzd/WZ3qXB8J3yE9yj7h2PcgwZNNQDmNqBA62jdyQwvZ4hI6VzXKpRNGfB8MzFp/5RqYn5O+B8dVykOa1hjZMOmY5jeVQbmVhHGvkreJdHuB8igLVXSOmKJtTw7rCz7zOEg/nRQIPNwvMUCOtS0Wse42FtBeHa3g1wSGF63lKhjt7O+HdMRXYXy6VcLPUt6e0Pb7TsRJ2an4xy2WwU8mJHE9XhX75le+krVrju83IkWqN26G8W5bUR7iaOXGMotjGaj7hKblOjmMAt8bgiks4KHErLEbqy/VWIcd/8jqfxqzBsZ0V/gtPM4K2HbJqhvm7+po+Wb7qcgSfhOksTm17PN/4crkk7JqHxTKTToEcN9ItdFSpaFmPgyHpfrApylgc+cyBFXg2UwvVxuARWEN6xfHg858SW9/yRQzs1HVyV3ShA2HegfXkygjMtwTUA5fv5V45mLZE8+sqiiNP7BEdFNoe/yql7XEM9SJwrPzFQ5HmWYqRnlaHQodLxcy1x8VIE15TjEfxpmn81aQzI3ggxiW14jFmOx0S41DpZgYZacytSQjxzbzHaOkfniMlyMrnOPvLE2G9jW3k+hS2xyOOWFkrZ0rVSDDrmkB1Flt8wpXUylx0ZV4vzngoYPpVoJkM4ca4pAnFavzI+YnoudnNHGakNiNkSvjv33F2o6zhOTlXetgdZ1qCvB1jw6h1vp2l/gZFqWuP55uiCnJB2BErxXwjElnVQ8uE/InSMKOt8Xa8oxiP0SOxthTIubwUZxdLhENeoUG8V9c1gUru/pwsT+7R2Dk5bPAxcgjt+ubGMkonYAJZ7l6MDaME4Ho5Uyqk9javz+Nh11gplun+fSJJzscwyaKk/AxapDK6+poOWfSQIn+dI8wBkcyRw2eK8dg9Fp089udouS/pXCxfy/D4mSsFJj/bV1/8coFM4O2k+u1/yXdyP6fGzgYvDXKahOEj385cf42CVN7kZLG/LAjrUGDnDx8fWcl9LgttF8mPqd08QozAND6Rp2SE1JHw//rwPWpBKsZj8N7ZMctpLAdzYxwDEsOvE/JIrHtuusat7LagrTgM43K5j6l8wi9J5URZzWNyfiz84CFdKx2Zas21tRxKTkpvccnm5Ahy4NbKGeF7yMXIUH6wWOwDB6dwrAqGK0oad30jD4o/vOqQGM7ePQJCzsjN+EYasXOxgFwpM5PCW/65FNjdP63MtcbJc1u6LdwWbnO3PQMZUDKGytlcwAWcz2VyDxOZyCO8ypt8wuIInKXxBfivvMoVcjCt83PzE7HWFTiQjy1P/rbKVKmU0ps7YNyaTIig5OQ3MijcGHIMXctsR7tbrAqpjIsxu+Jtt/OZjHZaDjBd7f/6nj2siKudGpoAFEM7rarTQy6IU1GtcAINb3uxVEa0a9w8t4XbgYEMlbM5n0vkFiYygUlM5hVe4RVeZjqfl4x5LOJHfmENaxIa3x1+cOY7XCGHSudA1UACV9qpKIeJnYG6g1XSVbJTemuTxb58HGZXoGKK5b1wY8hd41rFqshFqYwuMfLfPeLj/5BpMtju3cU1gTye32M2btBGGrGV3/irOJ3lUquoqXiNT51uzj9rXtndn0PlPLmFR3mF6XzOIn5kDb8ncZSNHcBnchtHSY9EAnyn+hhjnBpyoyXXNnEzFVP9dTOLwYRfXGY7D8pep4VVDUKMvJ/udVXESAHz/p3aLGOdlgNNj9C2+AG8v8dfXhefg6BMU4HJr+DUc1u4zdzO9GeIjJYvy9EWv9WYQuOaQC7t5RyZyAwWsSbFoe0F8J5e9QkT9lacTWtes/KQb+dL/14pHHZojDGdTUEOl0UQU7pWrpaaEt7Upn1dFYybJ6WrVvwhz4oTyk+O4Ti+3ePvHqalYjwEmpu7zd3W9GQA/elPPzlMzuY8zuM8RsqVcg/jGc94HuQ5XuYl3mYei1nDlnL0ixeJoTI9Gct0fk4beO88uv1UxnNaeQJ8N4Mql4GWDuN1ckJKhx2W4KM+U8LO6SzmRw4P5wgPwyiLA9VF7JvK6BIjx/4LxiV+ci6UJsPKsMnFyE3/2navS2fJSEBLfbeF29xtRlcG0J9+coicWoLmS+U2xnM/9+9C80u8yizmMY95zGUJP7GGNaxhtUXHqcSPLxgug7mF2Un57SIvHvY9j8t5FMY3DsVe+aaVkTo8bWWPb5O3pXLK3ziSJd0iCD0sZh69qIA94GzqqqyjY2pj3KnOw57W3o88RK9+QVoEuKZf3h71VHbOb1/SEdO5Ut9t4Tajowj96SfD5WzO479yldyzC9Av8RLTeId5zGUuC1lZAuc/wz/JSaqxlrksCD9fI2nHDvmFV7lCDkpMHEpY5mkF8i1yVYop5lenj5Od+iDPllMt2qx55KL5W/e2TAYSIz6rVIT+kRbgSiL/+KdBstc+4Ezq473pevHRvyvNySGpaY03NGcbau1CdT8ZKqdyHucymvHcV4LpaUznE+Yyly/5iTWsZn1auRjSf2zmE26VYdIl8ceYliCvxTQr83ST3CgVUx7jAePWlFsjuI12cJ/T4ESro04MdVlicc3jE1f3LT7W5j5ZcnLQQmDL5EHxlXZGYfhv6XcVOc0kdRR9g524bu62pjf9OYgTGcmF3Mj9TOCp3VC905pebWkb6Uh+G3w1z8n5FJa/Fzykf9yGatv5IuWPOY0xxjFOS3k9gqOfdTLK9qgTw2cWVxwTbQvnJHCs1GBs0By67Xwq1zjtumX/EztcZLrk8JDHvx3r1E4OX2M9c7ahttucdlJIQIbLWZzLGO5nPE8xjVd4n7nMZxlr+K0cDxB1JMIGn8N1Moz9ksuJ4uUfb2Sc+syyssfXyhDJMakvJ0scWRSBh/xHjqOKZdOlqRa3+NPSJNUP9jA0YXIZv/V33pKLnDY9SlAuRjrwnse/e6Y8GmnUMWcbagea0UmEgziR/8pVclcJsF/nQz7jS35S2zoDxwZekfMpSJU6pBgqc4ZVzcMt8lSKZ3PuVB9TmBOZh5xF4repeyhGbrMIbZyZDmF2GA6U98qMk1/N63K5FDjVDzbVsuQKL+tdvhHijXHXuFUDjdmPQlyO5Vy5ip3IfpHpfMx8limwdbBDfpT7OFo6J7sNvqezOJBFa1lhka+yg1Up3UQiBh7yYnmT/ftlB0KiTS4uqThS1rV+kPapH2bX2QwwMpylIX7tb3zIE/wfEz2CFHeOMwfE9MDXNW61EmgfxImcwxju5WGe53U+5FO+ZXUExRl0pPfYygJuk6HJEkwYpn+8hjxgFd20QS6UXJMOithDvl2ecBoebLqHslAHstLiudglHcLsMG5lHojaT/yItIr8oVZg8ivSIAi0P2eZQltHSITPZwwk81FmyGPOgNVd+JfMlDyTHnKyRGRxBB7yzdwe6mjSNe7+VgXsDyY3PUDOoGjLo8q34trfQK5x67hN6UFAjuAMGcUdTOIZhbaOiBE+Fknljlx9TQcjDfjcqt7hr07vNIge3+khL8hxjmN1RNUiRkp1KRsyNa2KEp0j1SQtMO7myVNht8r797g2WGWVndCWzvhlKKdwPjdyN48zlff4lKX8mEZJJjoS7wtfJfekNsJ32eNV5UarmjXpET2+U4WmKI/rIurct4xjy45ZESOzLbB2Y7pU9sNwU9RJLUtlhNvUbeo2c/fmQAIM5ETOlku4hbt4nKlMZw4LWclvYXQh1KGj7FzTp+Wo8vCF9zV9s4qqu03dZm5Lt6Uvzxf1Ff3GX8HxW7lVtjPfqVmUJhzf2aF9ckS23EIZ4C+jErlleaynUj/kcNdMnheDfuSf8wJTmcrzvMenzGM5q1kbgeNLhw6b+ihLuIS2l5lqCblHnjWFFdyWUsChnMV53MU9PM5LPCWXEvBVih7jRaankb2Yb/VW/KdT5M9OF44bsuhEZJ1SPqRT8JgVjFxv0ZtkZrpU9sNwUZpVsdOR3mOjvC4HB6rEO7neNW4FtxX95RS5lkm8yAcs5ueSoNv1PM9IEWkusboLq3CNFc02c39aRI/vBvKBER11FstztA8GcgwjLToEfiPt0sYavzuC2pE6dJTP+JMJ0u1R0yG++N6HYVzKvUxjLj/s4e7YIb/Ig3IUbWNpxjnGyZE+VvfhDr7zNyzKShuM9zD5OXJ6RE1Zd8jjTsPBnp3hMRxkEXK4mU5pEqmyH+8qHHSkyPhFbo3fe/AxpqiS9JRT5RZeYrFHmd6dCD/SaRFrj3yh6W3vVkmXpPy/FTCBmlwf0VHnZm6T+keaPl7PYruQw36pXeVw5/z1z5MbI2hZrUNHeYzfuMnfxImPOZNLZzmDSby3e8vwf8W5PShHxR7hYUerbOFB0smtEtVR5zq50qtglnXI4fFuHikO8X5V5HT5RvFgHRuxjOW7xko+5w3eCmO8yUyWsGK3ayxnOcv4La1nbRtf8zR3cy83cy7/LTXOZSSjuIcJvB3yTOonOT3Wrsy+pneWr74cJ7fwVlCAF7ORaZweL4SXRKvkOgOtolV28G1auVVKnqOdeDOiTMRVcrZXFLllyGGKVzkcbOggo+TrqGPG0+bgjB9Zzkrm8SZvMZ3nGc893MstXMq5/JeRnMhQDt01hgHd6B7G6CZ9ZMBuV9g5hjKCkSVIu5hx3Mt9PMN03uRjVrIq5Sucfy+n0ob6NAiWW4AhlwY0lp5yXcio6ccktuyowH6cx+SgRZt3phh9JpfGu1VMkSnMcpqxwtKtMjit3CrGGCNZQmRHnXwvZ5UGOYanLQ4bxrNXKmLcNW4dDuRYbuCNDHSnbORHVrCU93mL13iMe/g/RnMuI+UUOXw3OPegvTSiAQ2cmr1zElNoKd/0zvZXp4E0lLb0oBs+hnGYnMTIErw/xnRmspjloav+JNGYSzub+6SD6WekJS+GvFrD2Nx1YqSS5MsYXi3zdG07y7gZp2/F+O8BMVJDnrSqrbKFB9LMrWJMH9M3R46MKKuzmO/loH9HkYuR2y387a+mVmPlwwyN8HE8o3mUd/ku7Stub2MNK1jAO7zGY9zLDVzIeXKKHM4wOUjy6U5XWlKfvaia3Ov4N95pSQ/pLQM4lBGM5DLuYBJTmcliVsWwa+ZGlrOU95jOq/Io93qM+3ieH6yvN4/9scSYU4EBIeqXLmNw9KuFoQLtuYr3Q9wFG3hShiYq0Q9DJY63SpBLR7eKMR1M72wu5o+Itu0HTmBPkGO4yMLeSZnGymKkhRzCWJ7hI5anKb7/YAWf8RbTeJD/YzQj5Uw5mmHST3rRlZY0SHZYh324n+vWlr2lA31kAIfLSVzIGMbzNLNYFLa1vonFTGMS4xjJ6RzKIOlND+nitKCBx9hL2jM2DIy3xx5kjbg/xDrfGN069jUHZvkbcQGvhnj0bWEmZ8Y2rDDke3IWbSzN0XR0qxgTMG4NuTdCP+K/QC5GjrZorPxn8jdW7myONnSUkTzDorSqXrKBn/iCd5nGQ9zCZZzLcRyG0F06Ok2T376Oky1XWRrJvvSRARzDSMbwMO+E2Mfr+ZQnuZb/MJCO0oSaNvPWw/Qz9LW4Q0oKNdDPHuNuDoEy34R3MKNHdlE0s1SFQ3gqxINuG19ys+QnOjNEjNSSGVbu4XR0qxhjjGOcVrwYYSLLHiAXIz6WWfxV1+SGhRhpKKfwskVOarKP31nJZ7zGY9zHaM6TU+UI6Se9pKM0dWokynedYlCvRDO6c2MZwXuPczwOrQN5gfCv3oaplmu3jBGEsWed5jKlzOstdtpEhlfXBLLdVozii5AxbA9wUHnUTBIjVeQKq6DDHXzrb+jLSsOtK0YOZHqEToMPZBfIxTht+Mrib4Ykc7Fax/ibMo4fUjQSZQPLmcM0HuYG/seJHIbQlZbsZdeMT1WC2wFBXY1fyXCJ/Lp1uNpyJX/iPMLZtRVleJnXWylHS2TfuQpDeSGEK2UTb3KG09Ipp3vWyZF8S1N0reP6c9Jy24qRgoh6dRZTLG877AR5kSnMs6rBfWryIsU1gSrckFIRyVv5hS94i8e4hcvlVBmGTzpKM/IU21FgvG/Qnfwlw4h4dw3MYpj1qUVY3mwMbfmozOj9W8P93l3MkcZfU04PYYdvY5FcLt3Lr8hGoeljZC+WWplem+T6tClZWwrkWXKUfBkRyLcz+2/XCibki1cxxYxO3shxDEP4MgWcJd8yh+eYxGg5U46VftKDlv7q6iaJ2S7owozYY9wYDH0s62JukUfDAaMYqSHnl3mfzugZlnd8bzPQSD1uKDM2fDvLuI0BiQgsDDGv1XnYKuhwO5+nUcnaPbW/OTBbzoiozkoxxX+DHMMrFh6qCbGKYY3LdpiUpLW9f2cJHzCZW7mCExmKT9pJY7W54/R22opH4oTx9ky3XPE3w/mcIvOkkd5lhh0ulKb2D4aA6ZdNW5lQhjNlh6yRh2RYMnQQwFCJEywdw2udQicnTbduwARqcmnECRKzGUE1DJMsOq0/T1OSFeJ1eDup0P0F03mcG7mQ42WQFLCP2twJwXgDbo4TxvcKeuV/j4+oT3jfuqlMLvPQdBDhQHw/eaZMhD8ix5aXN7y0u8rNcve1rBK1SW5IW7dKSfDhHREnRHzJJf69rDD+Ea2TFuMdmGNfXYZVrCwZS3ifGbzNLL5iJStZwR9Wr3he6P6Sd0vQfYL0lx60pLLa3InFuFOVi+OBcTFORU603Amf0yGcT/IbX2U5rswCWddiCcVANu3LgPhGpsnJyYLwXfdubT6xcgv/JR9KlTTevo5xWsuEiKtR/MITLLRwqqyU9pKsGK/FDXzJDyVw/oE5zOBt3uYdpvEQ4xnPRK7hIi7mYjmVIxnOcIZzhAyiLwfSU/I5mCMYznA5gZFczu08y4eyMuTr3u98yhTu5EpOksHSS9FdnioyRxqOjwfGi0w/IwHLpi1LCRDutTuVUZ5uqzxvc991NoONNGRCUCv8UU6lU55pkGz3bjXuspzZX6SLZKc3yCOPIreuWk6XJPaNt2AQR3IER3AER+LnQHrSk15OR9mbvdiLhlQKI7uuBm2lUIbLpfKQzPKsxfK1PMD/OAGRdr5avbPVYZIkbpVDglh2UWHcGDHSg6+t7pOVcrKEe+2Gck8ZUWUfF+aFOtzLN4cbacA4DwfFVj7nLhmRXFb4br+9ogy19I5vlPMkN903cE9mxDf1XIo6ZRVlEBTyTe8K/iaSL2ewoNRsTHU632EU3kl3FxCk/GqUGMfQltcs326vIsxv7eQytCzHp9PBCX2NGnLhv1yr2/iGKVxCIHkboheZwiynuWVK/lZ5UfLSfwsXxhfkcrRTSTIODX3NUMOTpWZjCvup+yQJ38r6sihOGLc95FzPPYR/9fZluFVWcCih7v3qclZJwYBtrGAxb/IglzHUrt5iOXPLNiV/ByvTsESWx4QEIixha4fxC50akplweKzUbLxkW8lOldCVChY5HiXGHePkyemWGRnPE/6dW5Zb5TeuCYnxanIol3MJ/+NsjmAQ3aWxpAq1qshYS+/4OhkkOWm+ifuY/Bw5Rr6KF8jlNqmfiRgXI3eVil95Mbx4BFWCMN6Gp+KB8SJzppFDLO+UWfkVi8LcYWW6VSwPOVNTfuPPdQ6yPNfbzD1pWSJrT3UyXbPkGFkaJ5A/LI0yFONXlqrVMYc+ivEkxHgj7ogHxkscNnb5GZ86zSX8q5fhVrE55ExV+UxRltM8RN31f950Fju1MuB8rpPpmuX8J8KmEqHGdFqQmXC4rFS9lu/CCytTJWilanNt3DDelXlW98kSfBG4VfYqw62y2GmdvgaUGKkpr1qann/KgU52BmzlQlNY2QM7sWlQ1SYzMS6ns/Jfc7Gc/orxJMR4LmfGDePtLGNVvueIcD/LMU4lOToWmZwpifE8udiymMZGuSSNczl3l2vcGlweB5AvT9YEoLhvs0NLvfBuYbhiPClBfni8MC6NuNPqPlnNJeF+VpEZYDiglLHw91gjF8byzutr+mQVVaMtBRQxkBN3jRPkcApLRm+3sdvY3cuN+5o5xqkgBZbe8W3yetoHHcYZ5Duka4Y6VQ72KIB6vGI8KR+53glAUWNcjNTiCsvq8fcSyS5rGuR4tpg/uTlmrZUrSlcZLqO4j6nM5gM+58ddYxVfMbtkvMvjPM4jjGMMV3Mix9JX2scD60Wmr3EassKqYO0OVrot3KwM2c7xAbkUts+oBKBdN1hPPiw1G//tn+MqN5MP43g2QI6FU6UCx8Yr5NAYDDW5KFg9EV4m+l2cS3s5njt5wzIfdffP/5HlzGIaD3Gt/FcOkwNiCXQxUkOmWlYzWs8wKmTMhnaNW4MrYgtyOdqpnHluFQyteKvUbIx1aynGk3CtijwhFTXGjcEglnfK++GGHBrjmv7ZENS18HnksSptzVHGlycFchkvsSIGRTnW8xVv8BBXc4x0dWsFol41MZIn/7P0jm/mlgwIOowryE/JxKZiYpyGvFJqLu52MjL8Mukx3o1ZccN4H36OV8ihMWKknXwe61gVMVJResoYZse85tJ2VjGDB+QCCv15vihmNizv+F8yO60rHXqBPBBbkF9D7czDeJGpn+XhtXxa9lWMJyHG2/JcvDAunSwLIi+hKPxPE+M0komxjFXZ3wwz/ppyCm/HGOHb+Y0fWMps3meK3Mlh0WE8LO94MWtoS1ZGbesYg3xi8nYAijMcHi01F69LZ8V4Eq5UO88u9jHAuBhpw4uWMV3Hhb83/MZfNWjC/89yjkQyG3UYE6Uj5S9W8QNLmck7TOZB7uEqLpeTOZah5NNLWtLYretGP7f23vENnERuhm3smIL8oczM48Rwa6miY3OlQGNVknCl9ua+uGF8b+63rHJ4Zfif5jNVTVDXwh9cR9jXKzbS3uI4cxurWMUqVjKfmczkXZnKwzzMRK7iKi5jxG7IbujWDMRh3cL0jt+dUd7x3UB+ZUxA/lbG5nFeUioR+1vN40zKlarF1fHCuFNXrrFsODZRIoNZ2yDe8c3yZLhX9JmCLGnAyVzNOB7eY0ziOkbtGpcxghGM4BgZSD759Hba0YhGNEjc/lbveCJBnrl5nP8tKQO6ezO4YYrxJMR4HUbHDeN5nGEZ0xVRgKAYaeLhvtt5xXeJfE4q0GiPUT/Zdm6Jd9yyiIis8TcqysrA7R0jkGduHueRLNUEoJTAeC5neezc7yLxVv8bNY/bVzn8IFDNjeTb1+bKIFecn94BrmKkprxtWVllrVPo5GTkBo8JyLdL1wz1jQ9gvkcCULZGjifhWnml46+Wi4nFtW0jx+e6bSJKAarAkGA9gNz26Ww2iJEqcp2ld3wDp2fcIWdMQX5AhvrGD+D9UnMxxq2l9niKYPwP2/7yIa5tGzn+JRDZJ3Tx6Ke5M+TwoHTebX7jz3UGWXrHtzCByhm7xV0TqMHFfBdFPfJBVCAT0dDaI4/zfvZWjCffWslgDxj8HqqDjjVk7YrVrpKzIjzkbCNzYhdymDoqqTu+2ip2/C9mUCWDN3lf07eSHB9Fh6DTqZqRGK/uEY38PO0V40n4cu7j+7hh3Lax8m+MjvCQsylPxyrkMOVWrpbMtiLTdpZSNaO3eVfTKkuOixjkZ0u1DPWOl44gmCHdNAEoCVeqkK/ihvEWPGH32i+PSGSf4B1pU8xGHiLdV64q91h25fyd6hm+0bualpGD/HrqZqh3/O5S87VAfGqNJ+FKFfFN3DDemLstg+JmHGPCL2YlxqkkxwSxQN9Ie4xX5JhSaXbe4w+3pZuV4Vu9q2mVJUfyvuWUaTq+ESNXlerH+ZMMUms8CWHQzeM4OiYYFyO1uNzyTvlYGoa/O4pMayP+YNEv3bPTuUy0a9xstx0brWZ3HT5ydLcbMeLnnbBBnrnp+OeWSgDaIUcpxpNwpbyKY8UI406VIE3iSo9F0jtCt0qnIA2GF0lTSfe1q8PXVoec6wgoxv8GucPrYdY+e1NaZKg1fqSHx/WMSF6cVXHH+JT4YLzIFNsnAH0rQyPEeBs+8rziN9Ir7TFenclWBbLW4SrG/4FTH3mUdWFgfF6mpuN7JgCNcqqpPZ50K9WO5+ODcWMwYHmn/MTICCPHm/OC5xVXMDTtY1VsU4AU47vLMc4+8iDrrTG+VNplqFPFy+OqrSOScaVa8GAcMd6X3+0SxrktwpDDBnJbkMjxs9PeGq/Ef6wcvYrx0iDnviCZYx5hT5lZZTtII7entHVEElp0dbnOA+NXxwjjB3i0145ZR05jxDg15eKMjRyvIIVsUoxHNnlNuZZfNB2/zNu3hkcCkEaOJ+NK1eYaj/Tte2OE8U58bNuRs09uJCGHUtGznEAxGxif3vdekSnKclpZxaqsY5BU0N2+h1wTqMG4UgF13vGwhVUz8ljPMwHoC40cTxGMFzMlFislRtoE8Vx7deRs5kSAsoFG+gRp7zCN9F+9uvxpMbfr5XDFuNf2PJDvrDB+tFPJyUw83Fbq8EUjx5MT49fGC+Nh5HEWszTi8lidgrwbf0YmrN4Ci5DD9QxWjHtvnW+sNudpmVhVJUgHoO1ytGI86QySPM6PI8YbcpslxlfKKTEOOVwQbcOHgAlkB2q5TaQLPelJPkf8axwuLj3pSU+6uXu5DQI1Aom+y2rylkV+ufrGvd0qbl0Wa1WVMjfYmfxQOnL8CI0cTyoVmf6Go+KI8epcYInxX7giQmu8mWdb6GK+ivRkKt/0yvLVJJ9juIy7eIBXeZu3mcWKPcZKljGXt3mbt3mD8dzPrVwkZ3G4uHRz67mJuMtq8rZiPJoJnG+1Oa+TuhmaADTM40GnkePJuJMPix/G3WqMtMT45ojLYzVioucVv0MiaUbhVJTOnMztzOKnCOoo/cUy5vIG/8eVchaH0p0mxG/tqvO0RQKQYjxKjE+kUYZiHOaWjhwXjRzPIIy7pl8OR9gCUN6KuMrhGO8q5pxAmN+XyvhkFK/YBTBYIP073uJBrpCTBOngxtjpIkaqyDiLBCBNxg+6eT6wWsj7M7U4ltOJ9zRyPLMxHlYeZzEfUSuiVm5VOc3zemvkfPvd5hinonOgXBvEzx7d2CFr+YwXuEXOlIHSum+l/FjNbhXGWGFcS2MFeQ4+Y1VfZRrNMhTjDXm51GzM5EANOUw6jB8aV4z7rKp+RFweS4xUDGLxr5VbbK/nMwcap6k8KFviAPHd3zi2sZDJMlpOpHf0tjmGKoy1wPifbuuML1QbZAInscFi4T5n30wEV5HpkM1THj0XRTGedDu5X6mYomJeo3qMIsd7sty6PNYhkRSrHWjoE20CkM8UZElDTpMrGccdPMMzPMMUZjKnZHzMQn4uNdYQKfY3MYe75WS3gRvd2tlhXNtGBJ3AB63ypz7LzOJYxmAYX2o2fpWD1amSdOtUwNLSOZW0jVk6/qK4l8fybqy8jRcjctLksjd7szct6YNTMkQO5rRS40y5gptDjluZVPJg+Gc8xR3cKZe4TaKxkhXj0W/Pu6xqHX4v7TMTXGJkdOkiYjJCMZ50O9mrjdus2LxFYtif2ZYY/4ObIiyP1S7Io2Ju+ZtQfU3frMJqJQ+Gf0YjsmIyuzYY386iDO/FWcbWudjjVdRjCqWrZCoeLmB1qfm4gFx1q2QOxsVIK56xxPhWnozQGm/L555X/MKt4ab32uVxdUiMb+MV8nSne0/gafxstTm7ZaxT5Xi+LTUb4zKzO2mSY/zrOFrj9un4xcyOpDwWhha87p3g73ZIc4zblKrdyuNU1p3uPYFneNiaXqNn/0wtjtXfw0aalJmRO0m9Tr09ciBih/HG3GON8c8iKY+FoSETgnQA6inpvXa5HBQyYm6TXCeVdKd7vyyOKNVt0nsc6uRmaDp+d4/WEW9IF8V4ku3kjrzhERraJkZOlVpcZo3xJRQSyWc0kDsysQMQhlwGhsT4Rs4iV3e699bxs8xqa56eqcWx3Ka8VrocqfRVjCcZCryaKn9M9xhZ4zW42Brj33NEJBh3aspFQWJfTk1zjFfilJBOlXUyROsbBpvAAyxrHJ5KlUwEl2sCeTxb+saSwYrxpMN46abKixkSI4xX5HhrjK/mogjzOE8PUm7rf2mO8SpcH/KI80/2J1t3uvcEdvM4wPMal1AzYw85H/SI3NFitamA8aUcVg7p+Bv4v4icKpWC5HGu4+60x3iogMMdrKSa7vNgE9jZ0hq/h70yFuM3eXQKPONQLVarGA9WSiqCIgBF5qBgHYA2yRNpfsRZhdEhMP6XvCtVdJ8HcRm49Swrjk/MzOJYQVpHFDPKX83RDZRMq9SGp+OKcbu2vyUhh70rRBRy2D1ISap30xzj1ZjItjJndAv3arhhWVNoV6p2fAZj/BSPehr3s7d6x5NqlRpzt0f1m2GxWSUx0t0jvSjWIYfdglxvbpo7VWrxcYi2ERs5W+NUosf4M5mKLQyDWVBqPp5nP8V4kqHgao+YkZNiZo3bV1UpZgkFER1y7s+qII3c0jbdrMj0Nc5esipEL8614ne0SG3UGP+IfTIW4/ke1Zs/oJdiPKlWqTbXlC5iFllLtSCI/SCMkMMjI8L4vnzmeb2v0zeLWozkSLcQDqsd/OBvUqRFasvYOh9abcx5mVmq1hgMrXjTIyVjoGI86TH+O9fGzKliX1WlmNVcGCHG5wUpfttX0nflKnFyiKjxv+Q9PeAse3s+a1Vt+LMMxngtj2a3GxmuGE8BjF8TM2s8nKoqEYUcYtgnSB3FH+TINMZ4dR4N0ZRjM3egifhlTuJEq8YR32VqqVpjMDziMSPnDs5ydQMlzRq5NbnSA+NXxwzjjbk3jJDD5yKKHN/bI9omrfM4i0y+kQZ8F8Izvp4j0AzOMrenXf+fjC1VawyG2z3Coca6NRXjySLX9Kvg0ctyo9wWm10bZlWViEIOyyiO9VusfPzJJr/xV3BCh3L+ou3bYoPxjC1VawyG/3lEjk/UKodJtkoeTZXlKYnV1WtwYRgYjyDkEEMjJgZx0kxMz70mRqrINaFSf/gY9YyH2Dp2bdwyG+OnskKrHKYixnk+VkecThXOCgPji8IvLouhEZO8k1/kmbTFeE15J0TMuHrGLbbODfypFcdDzNEgvig1H5+kb/SAYvzfKjIts2RoGBiPoLEyhnrcHKQX/UfpuNfESLZ0klD8WSdDtbZhaEvTrv/P0MysOG4Mhr7M8Th20iqHGYNxYzBIGBj/if+G+8lipDrnBgv47ZpVlI5rlsdVIYtife9vpDHjoSbydEuMn5GZFceNwdCUVz1iWbXKYXKt0mAPILzcL9eN1fWdMDD+Z/iNlTFU9Tim/dtJ0yTddluRKchyGjMvhEtlq0wR7cEZM4yflqkYd02gikfN8WLOJ0ft8SR6Qfd5tEB5z20RM4z3YY01xjfLwzHF+NccQPqtWK4MDdn1Z4OcIVpNRTEek1l6wGNGbpcGivEkWqMCj+JVs2KVtoahq0dtnaBDpkfgGw+O8e/wpyHGa/B0iMSfHfzottJgw9Bbx7apcob2/ymZpZs8rIZHpJViPInWqNAT421iWBxrcRhulQ8DeW64nxAc4z9yQnrtNcc4OU5X+TlE4s82eU1dKjZPxOMsmypfQa0MxvgFHg+7GdJNMZ5UGP+6NEylU8wixzvwXhgY/9zdN4YY/5mz0mmv5ZsDjb+mPBDCFi9mg5yuLhULjDuOZVPlSTTKYIyfwHelZmS++PSQM4nWqI9HWOgC6RczjDfn0XhGjpeJ8d9ljKQVdyRX+sn6EHO4g+XqUrF9VbRr4zYhUxtHGIOhP5+XmpE/YtWUQBUTMHTyqES5lMPLpThWMd/K0BhiPK3yOPNNZ+PUZmpIW3yLPCba88dq69g2Vc5sjPfwrD13SkA7cibPGrXlOQ+MD4sZxhtxZxgYX8HxhPsJwTG+hafT5+5zjJMrg2RdyDlcx0FoswjFeMxmqSmveczJJU4ldaskEcZLN1X+iiNihvHqnB8Gxn/mghhiPI3yODFk04q3Q8SLF7Odef5aBbq1FeOxUdDI8ftoom6VpNnJ7Xi+1AqtknNiWBzrojAwvo67IsD4qUGvN7+gUqRvfvmmT1ZRZbeuW9etx9503G10EYf+niMgvelU8q/au3Xd2n0r5sfEodLdONVlbIgWyjvrU/5PjzcV47Gdp/s95mSa7K8YT5oVasnDHucXo2PW/yevDMh6NQEeHzbGa3Jx8P6eTgunTFPDzXHrunXdum4DaUdHOtKV/vRjoBzLSZwilzGOcdzMeF7eNV7idRbyref4mg92/bupjONGuVCOkkLZx60WiN6h8kvI+dvBCjqQrTvbbut0V4xb3cRjPAr6anmsZFqhulwXv/4/RWagYUAYGN8hL4d9xLkX9wS93nI5gv3pSEc60ZN+JWOgHMuJJeN0xjGOm7idZ3mJl3iTb/mWFbIjjG9ddkrTFpnHE1wpR0qBNJUIIkgc489xOlo4VIrZIg+K1jW03jrN+dJqER+XJhltjf+XnzySMrQ8VvKsUC2u9nBt3FROxbGKmRm2NR6s3vjOWJWZvMRLvMQrzNplM6+MHaTDwPlW+ZwHOc1f3RfWLwyYQBaN5NGQESrF7GC109dRWzyMzTPfavHekVaZa3mKkaM8cgS1PFYy7WOvbpw75GGJ3ScUWvWt/Xt8RHXCu35DT9dd8o3trGIOj/obhIPxApOf5a/NNRZe8WK2ymQNNYwHxudlalPlEozDZx6zcp6brfZ4kqxQdS6NZ6laMdLdI080+FhAJ9vPDphAtluXAR6VNJMJ3mtYzEye5g5OdboVVA0niqSNudf48+Rs2WTjkFJbXDEeF0g4nT1Tse+RRmqPJ4N8Zu8sOTHOFccPYFEY2FtCfujPDphAtluP3nIMN/MRa5MU3rN4gQlcIMOcA8LD998Qf9P4K3MiP7BDbXHFeLnNktRnmsesTJZ9FeNJs5OHeazQy/0qxKxUbUc+DAOAyzgSW4DPsWylmJixg82s5nPe5gUmcoEMc7q59SOfxYAJZLl1rSFerLa4YjwuKjKDDI95zMq79FCnSlJjPGYVx8VIK54JqwPQuaQSwHewiZXM4zUek5s4nwHS3q0X/dwFTCDLrc8oVllCfIs8qjEq4W/+j6wmd24mY9wYjGcw2Nf0U4wnzQodRGnP6/sxrDjegsej6wAkRirKPlIkxzMuaQC+ndV8zms8JjdyBv1o1jm7QwzdkZIj+3OdbLZ+mHwnB4ja4mFP83NW5+9LpOMQk5/J83SlR/PpDQxXjCcNxgs8gmdjWXG8CfeFgcdNPLTzk/NN7yxfFZrRk6FcwBOyQJIB33+xgjm8wN2cTz+adYohvHeqnjnL+CpKgGct4sT/mbWxVNTdHP7mnOiR2OJhW8g4EX/N7ln5mTpPp7HCY17OaW1c3UbJsUJejSM+oWfM8jhrcVlY8dUfsJ/0wWUIJ8qlTOADfksK6/t35vECd3E6BbFwm5Rhh7eWk+ULdoTxaPnQba6laSPZ/JOsML6zevPoTEU5hkEe9ayLuYk6ao8nyQp5VRz/KlbvSxhqcGFYwPyVl/mE7/g1abzf65nLU3IFgfjhu2SusmnAQB6RP8P6hr9wsNY0jGzCHwzLR5ehKMdQwByP+XhEWmqsSpK4vbwrjg+LYVWV01IiPSeYu+IdGQuRBAyGj3ARbuFbwssx3SIP6OFmpJN+E3+GuSEWyGhxMgvlGJp6Jme8y4FqjSfJCnlVHP8+Vl0sw66qUpxUIYQ/c4fTxYnrCuSb/KzCPGkrw7iZBewI21f/Ee1Qh0qEm/9Ufo5gY2QYyl0TqOpZrFZjVZLHGm/t0Z/nV64ot6oqyTM2y2SJ693hZrv1OIBBchHPytqIHjTL1aESzdY8w6NdcDgor9UrqyAzZmqSZ8kijVVJCjnG2Utu9ahxeG0MMR5eVZXkGRvlGekcqBKI6YwHTCDLrS7NOYABHMdNvM3PRFqqawOXo9XFo9iaR7Mqig2yQK6SnlR2M2GmxnnexOd001iV5FgfrxqHfzK23KqqxCYs8Fd+42cWsohFLGI+7zFjj/E6j/M4L/BHCM/4m1wkh0hv2lK/b26k79CucbPdOtKMDtKXAYzgSibxdkTv83u8LfCYr2of3cRRbM18j67v4YRV7eA9GSnd0x3lGM71KFarsSrJs5O9imNt5f4YWuNdw6qqElka/M8s4nNm8DpP8Bj3cBmXcwFDOJiDOZgBsj+t9xhN2Vkd0aLhs2yST3iGcXI2wwlQRCf2oy0N3Nq7Rk03e7f/qu3WlX3Yj/Z0xY8jQzia07iOiUzji6jh/c8aTXWbaphhdJu/vUe0raLca6aO9pwpjVVJCvlM2/gXx+rArLhEcv/BN3zIGzwit3A+B9OP1uxNON8sF5cfw7Lyf2AxrzOVZ7iFMbvGKE5n9G7/fQNPMJUXeJuv+NaiDXL4YxvvSFfN24xy8xfVYGFMisnvRHlnSdM2wxh8fKJ1VZJ6hYbFGePNeTTGiTiLeJPH5Wo51ukRDrhLGxlOHbmRHSnntd/Gu04fLYQVi835UawWRYrlDTle2krF9EO5GGnHdI9f/T0DFONJspOHeHSWebl/TsyKYzX1POaOxI2wnNk8LVfJwezdLqtr1N+tyPTJcjrxuUI8c90qT7M5pqfiU2RE+qEcIw08i9X+JceoUyVJdrKPZfGrcegYp66MjtoC/5WPeYJT/F0KqhTEdH9ShRPDzgEpz7GVVxXisVv+a/k95gFOU2SENCMnfezUIjPYBHml1h5AybKT81kc1xqH1bkgirtiC1/xklxKr9gCfLfvV5//S5mEpN95kn013Sd2iz+cH+KS/PsAQ2iSPijHcKen91F7ACXL+hzgcQT5oXSUWF0/coxv4jMelCOIY2PyPuZQI634IAUg/heL5Vq3iUanxHLzN49bGNUP3Jc+KMdwvleqlEx22ijGk2J9vNLxv5BAzDBeg4sisjtncieFxnSLv1upkhwUXQBxAuzwNbwsR4pmbMZ8+09la9yW7Qfuk4H+2l2z+qb+PJ3I9x6/cFasiqGqooSYVzr+Ug6PdnX67qwY3kT8En6kyq9ym3//DlkHJmqPVuMMz/yGZEH4dC5xG6sdHo/tf1KcF/4bGSM+f61uKY1yMQKfefy6NQxVjJe/HOM0lNtiV+MwYAI51JLmdMSR4XIh9/Eh68Pe+1+wH4ndpbXkiiQE+Wa+YhqXsI/6w+Mi1wTqMzOMDh2Rpu1fLUWpjHLHOJ15zzPQ8j+uKdKNVP5vS7U90vGX8R/CuxsqUF/2lR4IIxjFJF7nB4k8InsBHRP7kBcjteQSFrAtSSzwX1nEG3KnHFlUs1C3aVxvgNMS8vxeINfQk7x+qWqNN+Zlz991ib+iesfLfxdLVQ/f9R+MCYXR3exunwzhdG6SZ5kTo4P/hXRO9LuaY5w8Z6BM4A3msaycghC38yuLeZfJXMEQt5G6UeKuIlNYjUkRvDBGMmbKOXIAef1TbpZ8pmcukz1/0wSaqlul/HfxQMNRtjUO+5reWf4qNKGD9KEfxzKKSbzBcuteWLZjbvnsjUJTkF1U3/HLfxjLY7zELObyNX/EuZHzdn5lCZ/wJg9yBQfTWl0oibU09+UFj87icRiyg/fkHDlAUg7lGO71/E0z6KYYT4r1KZ2Ov44b2c3qdmvQmA7SC4ej5ALu4VUWxbXN2vvlvTN6mLamqLK0c4o4imvkdqbwOjP5mC/5mt+jtNV3sJ7fWMESPuVdXuBBrmCo09ttqNZ3+Xl+pyUG5KmKcjFypee2XyiOOlWSAuODShUT3i5TaE0H6UWRDORYLuduXmV+XHIlvMYbyfWALzQF2b46tJUeHMpRXM1YHuM5nucNZjKT91nAl7uNpfzAr3y7x/9bzCxmMpO3mMLTMo6r5HSGOn1o1Tunh27CJAB5FyYlrnv3PygfkDqYOJ2VHr9lPUeoNZ4U69OXL0utzs+8wCvMZ1mcHQpeY63cnvwP+EJTkF1Umza0oT0DGLbbGC7ncIUct8f/G8K+tGEfdy+ts5+Uck2gnozhizhGkac0yjH0Y57nLzmnQJtHJAfGlyRVmN33cpi+p6kSrHzTM1sG8xw/etSKiyfKz04FlGPoyWzPX3GL1FN7PAnW54C4VASP3HM8I1BXH++qcrHJ3Xqcy2v8lHCUd01ulGNoxque33+ys69aXUmwPvt6Nr4ur/Ej5+rDXVWeN0RTRpYXygcmr9OpWhBMzNSE/KTYtW14Omkgvp5JgTpqi6uSAeVT+SbBvvIkRjmG+z2/+WpNyE+K1dk7aUq1bmSKs7+ji6IqfxWagqpyFJOZy7pEtYj6G+VO9R5Jl7gvRsZ4J4jIqf01Ib/8MV6LUUkB8Q08rRBXJZF6ms7Z9JGbmMF3ibLLZQfvySVSkGw1WDD817tsgVzrq+bXzVLeq1Oba5KgmvYybpV99KxElYy3SDM5jsl8wm9xL6P1T1rNKCmgXr/sQPJY40fzted3fVha6o1b7nu0CueXM8J/5DVONqa3LocqOdXLHJDtdJVRvMa3CfOXL+B6+tGYCiQHKPx84vk936GHeseTYH0OLTeEb+EbpnFOPDv8qFQxkmsC9eQYHuKzhPnLV3EvQ6R1+bdpFiPtmO75Hb9joN6+GYrxrfzARzwgR2qUuCqF1Nt0y6aPjOMDVicoJPE3npZj6Ege5YuJerzg+f22yXFadTzjML6D3/iYpzjT37lbtjpSVCkoxzhduJg3+D4xLhYpZibnSu/y9JZjeDDI97vEl6uxCeWO8UGJC4+lmLXyiL9j5+xeOvWqFL9xmslxPJdAb/lCriMgLaWSlM/vvSvI9xrP3upWKffd6FUcy/6Acj1/hFV3/xsO0TVXpYVKossfZj6bE4TyH3hSjqGLU7N7ggMSMZzHas/vNJ3uekuXO8YL+CrMvbSNNSxmFq/zjNzKWO5kpnWdz/nSReOTVGmjPqZrNsJ9zGFtYg4+ZQcfy2U4ibXLMZzE90Fa1Ine0imE8a2sYj7vMJlLGCB7H1Di2xYjzeQBy2t8qIeaqrSTY5zOciMfJuzgc6ddfrR0S5S/HCMun3l+k3VadTwJMH5gkNX5x3HyJ8uZz3QmcQ4FbqmqJ4VmgJH+lvv3ZV1xVbqivAsX82YCy2rtkAVcxyBp66/WK85OFsc4XXg3yPcYidHbupwx7lXjcDu/8xUL+JB3eVZukFO88P2PxEhP+c4m5V7+T9+/VOl8OzXlPN5kWQLjBjbKK3I+ruwbT5iLkSa8pIecSbvv2vKcB26nMBQ/+7hWLhAMXfjUYsf9zhhdb1Xao1yOY0riKrGUxJe/GE+Y+0yvXJ4M8tmayZkMGJ/igdtrw1kXMdKaZyz22ko5Ra1xVdqr0BRUlSMTjvISmEt/OrkNAhXcWKPi3iCfqpmc5Y/xVjxWal3+YDThXaUht1vssmWM0PVWZRLKn2ERmxJe8/kDbuJQ6SHN/VV6x8g2FyNX8Kd37INmcpavxEg9ro8e41KFsyz217cMU4yrMkZ9TMdshEksSFhk+W4HXPKVPCLnSj/pIs38VaPFOYaz+VEzOZPUGveqOB4mxovMYMNgi531hXRTp4oqo5S/M7K8fFC+86Brrjwg50o/6SatqBups0WMHMpiPeRMWoxfHS3GjcFQGOSNa/cxjw662qpMRvn6RHUT8sD5YnmaazmcXrSX5uECHUMRH+shZ5JivHaMMN6JjxTjKlVQlB+QjcjtfJSofM8yUoem8wjXcjj50lXasJdb0811Q9/iLXgtqLdUDznLFeNSjf/FBONNmWiB8fa62qoMlmOcznJT4lL3Q4xfmc+L3MKlHC5+esr+tJbG1HYq9ynlScdQl6nBErzleD3kLD8VmUGGo6LHuBipxeUWRdp6K8ZVivJkQvk/OX8rmM0U7uFKTpFBQC+6coB0ljY0p7m0owMvBv3rS4r0kLN83SqHRhs3boxrArmcEHKnLOc4xbhKtRPl45jJzwlL3Y/E+bKARczlRR7lUd5gSRnFTMdrE6+kw/h6bib86/hD5jos41hda5Xq71umKecxPalRbjtm0lNv7STDeLE8JeFfp3OQrqu7Nxc8U9dapfo3yt9IaBWWeIyfGaq3drJhnKnhrokYaSWTQ/X+4TZda5VqD5U0a56aqKZwcaqDfmrA+HQxyw/jgzze6cLGuGOcejImVOgq9ynGVapSKjIFVeRIpvBlwlP3Y4XxsUXV/bqQ5YdxrzZuYWPcNYFcjg+51q9qFqdK5al80yUbhweZm2QxLHYYf9Zpp7Eq5YrxpdFj3PKQ873+Odr9R6UKor6mV46/i4xLaCeh2Iw50ldttLTAeOeQVcc/Y191q6hUZUqM7MtFvMnyFPKWr9G6d+mAcTHSSp4KsdZLxK+PbJUqpEoOPl/kq5Txlmszt/LEuFdT5Qgw7hh/HbkmZEbBabrSKpWVikxBVQJMZC5rUsDF8n801pu73DDek7mxwLjP9MyWw0Os9B/cqCutUoVlHzmduZTX+bacSt3ajpfppDd3uWHcq6nyVCK7VgFry1zprTymK61SRWCXy8E8xDx+SlZ/uSwSVz2m5Yjx52KG8U7MCRWrMiBbY1VUqkjt8pG8zJf8zvakA/lWOSmgdQ6TCeOvkBNRrErocrVzaaf2uEoVsV1eWI0CuY7pLOGP5IK5XFtUVVOAkgjjs2kbSayKU1MuCbHWXztDNEtApYoNzGfwZRLB/FFppW6VJML4+5HEd/tMz2wZHqqGjlygK61SxQ7m1/MmC1nFxnLP/dQUoPLDeFumxAbjJVHov5e50puYoE4VlSpmKjC9c5yucrpMYBZLWV2OR6CrNQWo3DDekkdiiPEOvBuqNPFAPeRUqWIt17j1cbiIyXzIUlazqRysc00BKi+M1+KqGGJ8b8aH7Miph5wqVRxxXg+Hi+RB3mMxK/idbQnDuHYBKj+Mj4ohxqtwdshDzsF6yKlSxVlFprCav4ecwFhe4lMW8j0/8ycb45oP+jY9FOOpjnGfOcTIQaEcaHKRnoOoVAl1t0hXhsl5jJMJvM5sZjGXhSxgAQv4lpW7xgrWsJZ1e4xwbPnvGaQYTxqMz6FrZKshRnrJKs3kVKmS+7ZvRmc60Yn9OZiTOKFkHM8l3M7d3LVr3Mk03meZLczlNO0ClDQY/4rhRHq9DrwXYq1nkasgV6lSBxJn8IN2AUpyjF/tgfHDI8Z46EPOBXRXjKtUqQOJnsy2xPhzzn569JVoiZEaXB5TjIc+5FzGCMW4SpUick2gJk9pgazklc/0zJH/xA7jPjM09CHnn9ysGFepUsnau4b1ViDfIiepd7xc3pgOLbUWSzmMyFc81CHnX/L86brSKlUKYfwwlqh3PMUw/g1HEfn1Qh9yfuJvoiutUqUOxlvxunrHUwzjP8l5Evn1mjIpxFp/KaIONJUqReQzJxomWMaOf6E3d5Jg/A/GRO5UsShXqylAKlWKYeJMy6DDPzna1fYRyYHx0ZFi3Gd654QsV7tFU4BUqtTChHXQIZcX5qpbJbUxbgwGX8jCDbOooCBXqVJE4QQdavuIcsH4kFLr8HuUGO/MZyFWeiE9FeMqVcpIjIxinRXGP5ZCxXjCV8cnK/61Duu4iWiu2EqeDbHSP3CqYlylSiVQDOIL9Y4nrTXel6WlooYmSzRXbMQdIVZ6LbcqxlWqVMJ4C161dKtcWlhBvePlj3FeiMqpUjVkQn6xvDFUU4BUqpRCxd2WGL+fxmqlpTbGfeYwI4NCrvSnvqaaAqRSpRIqTuR7K4y/q0dfqY7xkmuu0y5AKlV6oaIHs6ww/rM2Vy4HjH9Vah1eDERxRoGhC5+HWmk5X4+zVaqUkc/kV+IxS7fKedpcOcEY782CUqvwuq9q5LayGGkrr4VY542M13VWqVJIYQQdqnc80SvTnpdLrcJs2kZ1yBm6rkoxswZnuboAKlUKwWIg860wPpNeivGEWuP78pwHxveNKnK8NleFXOl50TwqVCpV4mHRkKkaO54ZGMdQlXNCrrQecqpUKYeLmy3bK2tllfLH+IfSIfIDSJ853CbkUA85VaqUw8UJfGdZWaWl3t7ljPH5juNEd1V/yHXWQ06VKrXkGH8HZmhllSTEeBueiV03zp0SI73lZz3kVKnSSj5zimGiFcb/UO94QjHezKOxR5QYx9CVRaEPOd02ao+rVCkkMXIRv9p5xwu0skriMF6LUR4YPyxKjHfi05DrvER8+t6lUqUWMHx8bIXxx6W13t7livHvGBElxptbJHxpuVqVKrXkmkAtuwYSslBcxXi5YjyKbpwlV23B4yFX+neuU4yrVKnmVrmGDRYg3ywnuVrGtHwxPjpqa/xRjVVRqdIR44fzpZU9PraompYxTRDGq3NpHDDeiDstVvo9xbhKlWoYb2nXQEKec9rpIWci5DOHGo4ptQLrGBclxqtzgcVKzxqiIYcqVcrZfndZYXyBescTuCZDPdYg2orjNbjQYqXnuq0U4ypVqiHjJJZZecdP9hu9wdMe4/PZX90qKlWqIeNA3rcKOrzNrasYL0eMv+hG1zjCDuMLpKtiXKVKKflMfmUetsL4K3TWGzxBGD/YY/5f91VxorimVGOkxSp/7QzUMxCVKsUkRi7mN4sb/FsGKcYTtCI+WRnbxhE+0ydHjrBY5RUcr6usUqUeNAaG7NO485jzLEfbuSXGGvdqqhxVxXFjMIhiXKVKS7kmUIunrdwq42mit3i5YfxDaa8YV6lUwW7wG60aSMzRgrUJWo98j6Ss6CuO22D8e45QjKtUqehWGW6Vy/k7x2jB2oRgvDsfxaFUrWjAoUqVvhjfh9es3CpX9s3VlPwEYHxfno0Dxh3FuEqVpvKZYsP9Voecz2pKfoIwXrqN29ccFU1TZTEE2GyB8Y6KcZUqNcFhlcspCyWg3vEErIZXG7cfZaREdrUcakoTDuRmCR1Y+nk0YY0qlao8wdHTLpdTznQ0JT/+q9HMo71emBXH+5jWxqlATWnMgVwp78kmK7fZ7Pxcny6BSpWKbpW+trmct2tKfgIwHlXF8UJTkOWvKLWlpThcYQ3wneNdtcVVqhSVdS7nu/TSG71cMP4n14eaedcEstw8Gkg7OURuknlh4Hvn2B5dAS6VSlW+GLfL5dSgw0RgvAaXlZr5bfKABMd3NpWltuxNZ07iCVaEDfC/Lf6bFOMqVYrKNYHalrmcl/etoEGH8ZTPDPdqHLFbqVrXuNluJTeP6tShPk1pQVeOlpvkk7AcKMUejZuHK8ZVqpTFuHUu52PSSqNV4ovxIKVq36AeTWjGvuxDV3cYx3MRd/Iwn7I8Knj/Mz5yG+vJh0qVym4Vu1zOL7QPUALcKod4zPxvzOYDlsQI2R4NlWWiaBySSpXSGLfL5dwkJ2vQYdwxPtAiVSfWY76Tr8ldKlVKv8oby1xObnPrKMbjjHGvGofxHWvlFjGKcZUqpTFu3ZfzVbroQVicMZ5v5eCK3djBrOjqmatUquSAh10u548c7hqfTlg8V6I7cxKK8a/kGNGmICpV6tvjffMsczmvzNegw/hi3Ks4VvzGT1yJ0YNrlSoNMC5GLrLJ5dRKh3HH+D48lTCIr5Gbiyrp25VKlS74cPjY4sbXSodxlWOcxnJngnziP+2EuGJcpUoLuSZQh8lWlQ7P1vbKcX2celVVif34i6+4qKiyQlylSiOMi5Gr2WjVXrmxYjyOGK/OpXFG+HbW8yGHYgoV4ipVOsk6l/NjKVK3Shwx7p2OH7uxla+43m3WT9+pVKo0xPg+vGKVy/kf1IqLJ8gPjps3fDOreNEpKDKuZuOqVOmIcQw3sd3CO359UVUNOozj49SV3+LiSFkmk52CXsbJ0lgjlSp97cAT+V5zOct9FWKbx7mDTaxhIbdJt/0U4SpVessxTidmWIBhleZyxhXjscrj3M4G1vClPMwhvvr9siRLzzRUqjSXz+RkWZbIurKP5nLGD+NteCZqH/gf/MQC7uUQX303i6wifeyqVJmBcdsSWZrLGVeMN2NShLHgG/mNn1gsk2Wk9PJVdbMV4CpV5iGkl1WJrAWayxnHNQgvAWg7G/mDNSznQ8ZzqvTyVSVbskUBrlJlpj1eYFkiS3M544hxuwSgHWziJ1Yyn0lyoQx0W0g22WQpvlWqDMe4GLmQXzWXs1wx7t3I7d9js7wovX0N3GyyJdvJ0khwlUr1N0T6MNsCInM0lzOOazCQLSFX4E+ux2hNFJVK9S+5xrUrkbVRcznj+igN3T55LTfq+5BKpfLAuBgZxQbN5Sw/iZHO8m7IFdgmD+n7kEql8obIIOZb2OOv0VWtwThZ43atI17W+VepVJ72uFvXyq3yK8dqLmecHqT1uVExrlKpIsa4tVvlusIq6laJizVewyrk8BV9jKpUqmDWoJVbRZ7TXM44Ydwu5PCtosr6GFWpVJ72uKVb5RsOVnswTg9SV34POf8f0VbdKiqVyhPjYmSUVUO3K3vnqD0YF3u8NwstMN5OMa5SqYJZg3ZulWedtupWiQvG2/CsYlylUkVhj1u6Vb7QEllxwnhziyqHc+igGFepVEEwbudWkR1yjhgFeRwwXpPLQ2J8CYMU4yqVKoisk4AelZaK8VjLZy41HGNxxHyEYlylUgW1x9WtUp4YxzAk5Nx/yzGKcZVKFRTj1m6V88klR3ESW2HoE7Kx8i9crvOuUqmCytqtslhG011qSzUntzCrSCcuVrMfujzWH1ynGFepVGXY4249nrTqQvMX6+RTGSeDnJbUpIpUyDeK86it8dDlsdYyTjGuUqnKwLgYuZDfrLux/8U2VjCV/0mhNKaW4jxKa9ymPNZLinGVSlW2RdjHqsHy7jDfzrY9cF6TKpJblOXT6bR/C8qiolSlFTeFnO9XRVu3qVSq4PKZgio8FBbGvXEecFpJLalGJTdboRMC39WkNq0Yxu0sYHvIeZ7l7q0zqlKpysC4GLnA2q0SHOdbWSMz5BaOoZ3UoQZ5UqGvulv+ZX1LTVoyTMbJ+/IHW/mLHTYdUTWPU6VSlSnHOF2YEQXG/xk7cb5WFvIwIyl0Gkttqe5WlgqZ6nDZZX3XohXD5Hp5RX5kK9ssbHDN41SpVPb2eIds7osJxnc/Ct3KVlbLbCZwhhQ5rahDDfKomAkuF58pynIqUJnq1KbVbtb3NrZb2d+ax6lSqcKDDoYTWBZTkP9jn//FVraUWOj/43C3PXWoJdXJIze9kL47vJ1m4uNM7uezXfiOfA6/4UjFuEqlKlNiZF9eiQvG/22hb2ELy5khExjJkF1Ir0Kl1HS8+ExRlpPjVqKa1KC2NBcfZzKez+R3tlj7vkONrximGFepVCEwjuGGqCzGcI9E/0b6CmbIBEbxH4qc1tShNtWpQp5bMVmx7jNFWZJDJalCNWpRR5pLPidyhzzDF2xhc8zg/c94z22ikSoqlSq0PT48ZHWP+CJ9M5tZzmweYSznMQyf05q6UodaVKcKVans5rq5bk4igVZkCozkuLluLpXZie3aUleaSz4j5ArGM4uv2cxmtrAt5vD+e2yS+zRuXKVShZRr3HpWtQ4TAfVtJVjfxJ+ygBk8ymiu5yx3oDvE7UZd6lOXWtSkJjWkGlVKRiU3959BSFveNW72Hn9RUfJKrlSNWtSkFnWoJ43o5g5mKGcxlvHM4FP5nU1sZkvEB5bhjrlOgfZeUqlUFhgXI1eyodxBHsxa31Zir29iI5tYwSymM4MX5S7GMJaxXM1/3IPcQSVjMH6nNXWpV8ao63Zwh+z6i4MYzkVcx1hGM4G3mc57fM1mNrKpxN7eie3tCf79a+VmjGJcpVJZKIKk/PKF+/ZdlvvOsRPz/4yNIcemPf79ll1X2lZy9R1J8Evf106cKpXKUn7TPdbR4zqiHWsYhVGMq1QqK/kMhhPjFD2uI5KxQSb48vy6NVUqla3ESFteVnwmydjGC27zfsanG1OlUoWBcSNXhW7ppiMh3v/3pbtfAw1VKlV4wiB8rBAt97GZ6Y6vyGgba5VKFab8pleOHnOW+9jEFLdlUZaGGapUqrDlM2LkcBYpSsvRmbJG7vbvdZi6U1QqVaT2eGFFRvIVG9mWFHHTmYXwrSyQU3zVC/RgU6VSRW6PH2jcCv695Hh5mVUK8wSO7ayW+9zWTk6hQlylUkWL8qIsqSCV2E/Olpf5gfVsTngSeqYFF/7J+xzhVHCz1JmiUqliJAzZkiuV/Y1kCP/HEtayga1qm8cB4b/Iyxzq1HZzNF9TpVLFxzLPoRJ57Cdny7N8yzo2skWt8xh4wrexkdUy1REqUkFdKSqVKiG2uVNbeskFPMpi1rGBLXGrsp3+AP9ZZshId1+nkpOjoYUqlSpxtrmRbKlIZfLYj1O4V95hJWsV6Nb43sT6vwEulSVXfeEqlaocrXNyqUyeU0e6cHIJ0NexgU1sVZfLHhEoW9nEBtaxQqbJVc7B/maSJxUV4CqVKonsc3KpTBWnjnRlhIziUeayhrVsYBNbouwKn4oW9zY2l4B7Lb+wgKdkNCfR06kneVLRqeBLwdbRKpUqg4AulcijqlNXujKC/zGJ11jIn6xlPRvZXNKU4f/bO3+fJuIwDmvvrt/er/YPcHAum2FyICR9n2s1SBf+AQMbE2HEBI4FFxbjxupi4mACxl4d2GHTsMnO4tC7HiC/EoceTTExaUJMBN/nM99725M3n7vkvS/KvuSCM045IadPRsohn/kob1hhniaT+AS4YnAoTetHTEVR7tyOXi5OEftM0GZRNnhHhwMyUvqF2Adq/3eb9YGsB7r+yQk5OX1SUo5knx22WGNJ2jSiOgEBHq5UKONgUdJfCBVFuRfwgJLYlMXg4hEQNh7JUyIWiGWTD3Rll+9k9MjIyTkeHlg746LI1V/pra+nnw+PuZ0Wqs7J6JFyJHskfGKLVWKWpE1LphqPCQnFx6OCoSw2VlTStltRlP9nW38oFhYORip4eOITUiWgznOaMifLrBOzylu26ZLQ4RsZvZFkhWzHz83nU37wlQ4JCV94L69ZIybmFS+JaPGMJwRUC1l7uJhrYYul/baiKMoftnZsbHHEUMFgcPGLhNRGEjLBLDNj5wXNqP7bjBrhcLong/cZDA42NrZWIsrt+AVHQJQlinNo9AAAACV0RVh0ZGF0ZTpjcmVhdGUAMjAyMS0wNC0yOVQwMDoyNjoxMCswMDowMGJDWNEAAAAldEVYdGRhdGU6bW9kaWZ5ADIwMjEtMDQtMjlUMDA6MjY6MTArMDA6MDATHuBtAAAAAElFTkSuQmCC;" parent="bnWY6VPmUPnhluAn7evO-27" vertex="1">
          <mxGeometry x="40" y="42" width="50.52" height="70" as="geometry" />
        </mxCell>
        <mxCell id="bnWY6VPmUPnhluAn7evO-10" value="Terraform&#xa;EKS -- env" style="shape=image;verticalLabelPosition=bottom;labelBackgroundColor=none;verticalAlign=top;aspect=fixed;imageAspect=0;image=data:image/png,iVBORw0KGgoAAAANSUhEUgAAAgAAAAIACAYAAAD0eNT6AAAACXBIWXMAAA7DAAAOwwHHb6hkAAAAGXRFWHRTb2Z0d2FyZQB3d3cuaW5rc2NhcGUub3Jnm+48GgAAIABJREFUeJzs3Xd8jef/BvDr5GQvWSJiBDFjRtGkKIqiFDVj1YwVKyhKS2ntGqFBxKqtaGnVaKvUXpUgYkaESCIS2Xuc3x+HfrW/0pyc+5znjOv9ev3++X3zXPloyLme+zznvgEiIiIiIiIiIiIiIiIiIiIiIiIiIiIiIiIiIiIiIiIiIiIiIiIiIiIiIiIiIiIiIiIiIiIiIiIiIiIiIiIiIiIiIiIiIiIiIiIiIiIiIiIiIiIiIiIiIiIiIiIiIiIiIiIiIiIdIpN6AA1pAGAqgPcAuAGQSzsOEZFWZQG4AWAHgPUA8qUdh3SRIRaAiQCWgS/6REQAEAagC4A4qQch3WJoBcAPwC6phyAi0jFXAfiCKwH0CkO6S7YAcASAndSDEBHpmPIAngK4LPUgpDtMpB5AoPeg/EtORET/30CpByDdYkgFoK7UAxAR6bB6Ug9AusWQCoCt1AMQEekw/o6kvzGkAkBEREQlxAJARERkhFgAiIiIjBALABERkRFiASAiIjJCplIPIJX+A9pgwIA2Uo9BRFRqgwYtxfPkDKnHID3FFQAiIiIjxAJARERkhFgAiIiIjBALABERkRFiASAiIjJCLABERERGiAWAiIjICLEAEBERGSEWACIiIiPEAkBERGSEWACIiIiMEAsAERGREWIBICIiMkIsAEREREaIBYCIiMgIsQAQEREZIRYAIiIiI8QCQEREZIRMpR6AiP6usLAIp0/fxJXLd/HsWRqsbSxQq1ZFvP9+Yzg720s9HhEZCBYAIh0SF5eMr77chZiYxL/9/y9fuovv9pzCqFEfoGOnJhJNR0SGhAWASEekpmZi+rRNeP4841//9/z8Qqxe/SPkpnK0b++t5emIyNDwGQDSW8+TM5CZmSP1GMKsXfPza1/8X7U+5DDS07O1MBERGTKuAJBeSU3NxM4dJ3Hq1A1kZChf/J2c7fDee43Qp09L2NhYSjxh6Vy/Ho0zZ26W6Guzs/Nw+lQEOndpptL3SEpKx/79Z3Dx4h08TUiBpaU5atSsgM6dm6Jly3qlGZuI9BgLAOmNy5fuYtny75Hxj7vf58kZ2Lf3NE79cQMLFg5B+fJOEk1YOsXFxVi//ohK19y/H6fS14eFRWHhgj3Iysr96/+Xm5uPG9ejceN6NI7/Fo4pU3rAzt5apVwi0l98C4B0XnFxMbZ++xvmzt3x/178X5WYmIov5mxHfn6hFqdT39GjfyL6QYJK1xQUlPzPGBubhK++3PW3F/9/unz5LsaPX4s7d2JVmoOI9BcLAOm01NRMzJr5LfbsOQWFQvGfXx8bm4RjR69oYTIxMjNzsG3rcZWvc1NhlWPzpl+Qm5v/n1/37Fkapn2yET8evKDyPESkf1gASGdFRDzE+HFrcf16tErXnT13S0MTibdzx8lSPdDn61OnRF+Xk5OHK1fulTi3sLAIISGHsWjhd8jJyVN5LiLSH3wGgHSOQqHA/v1nsfXb31BUVKzy9fFxyRqYSrzHj5/h558vqXxd47eqw7N6+RJ9bVzccxQWFqn8PU6fjkB0dAI+ndkXVaqUU/l6ItJ9XAEgnZKZmYMvv9yFzZt+KdWLPwCYmelHr12//ojKL86mpnL4+3cq8dfL5aX/Jx4bm4TJgetx/LfwUmcQke5iASCdcf9+HCZMWIeLF26rlVO9urugiTTn0qU7uPrnfZWv+6BzU1SuXLbEX1+hgjPMzUtfiPLyCrB8+fdYFXRQ7x6uJKI3YwEgnXD48GVMnbIBTxNS1M56v0NjARNpTmFhETaEHlX5Ont7awwY0Eala8zMTIV8xv/YsT8xdUoo4uOfq51FRLqBBYAklZubj6+X7kPwNz+p9NG212nVuj4aN64uYDLN+fHgBTx5ovpzCgMHvQdbWyuVrxs8pB3s7FS/7p+iouIxccI6nNejhyyJ6PVYAEgyjx8/Q+CkEJw4cV1IXsuW9TB5cg8hWZqSmpqJXbtOqnxd1arl0KmUhwA5O9tj/oIhcHS0LdX1r8rKysX8+buxccOxUj+jQUS6gQWAJHH+3C1MmRyKR4+eqZ0ll5tg6ND2mD6jN0xN5QKm05xvv/0N2dmqf7xu+IiOMDEp/T9XT8/y+CY4AI28PUud8ZJCocD335/F1CmhSExMVTuPiKTBAkBaVVBQiJCQw/jqqzfvTFdSzs72WLR4GHr1bgmZTCZgQs2JiorHr7+EqXxd8+Ze8Bbwwu3gYIMvvxyE/gPaCPlvdffuE0ycsK5UDzMSkfRYAEhrnj1Lw4zpm4XtNFe/QVUErRoNL6/KQvI0bX3IkRLtZvgqMzNTDBn6vrAZTExMMGBAG8ye079UzxP8U3p6NmbP3obNm39V+c9GRNJiASCtuHzpLsaPW4Pbtx+rnSWTydCrd0ssWDBYyPva2vDHyRuIiHio8nU9ejaHu7v4w42aNauFb4LHolatimpnKRQK7Nt7GrNmfovU1EwB0xGRNrAAkEYVFxdjx44TyoN8Xhzfqw47e2t8MXcghg5tr9Z74tqUn1+ALVt+Vfk6R0db9OrVQgMTKZUtWwaLlwxD124+QvKuXXuAiRPW4datR0LyiEiz9OM3KOmltLQszP58G3buOCFkebh6dXcErRyFJk1qCJhOe/buPVOqh+WGDe8Aa2sLDUz0P2Zmphg16gNMndoTlpbmauclJaVj+rRN2Lf3NN8SINJxLACkERERDzEuYA3CwqKE5HXs1ATLlvujnJujkDxtSUpKx/f7z6p8Xe3aldCmTQMNTPTv2rzXEEFBo+Hh4ap2VlFRMTZv/vU/jyAmImmxAJBQCoUCBw+ex6yZ3+L58wy186yszDF9em+MH99V5z/i9282bjhaoqN4XyWTyTByVCetf6qhYiUXLFvuj3db1ReSd+HCbUyaGILo6KdC8ohILBYAEiY7Ow8LF+zB+hDVD7n5N8oXpJHCXpC07datRzh9+qbK173XtqGQh/NKw8rKQmjhiotLxuTAEBw9+qeA6YhIJBYAEiLqfjzGj1uDs2cjheSJXJKWgkKhQMg61T/2Z2VljiGD22toqpLr2KkJvl42QshbLvn5hVi96iCWfb0feXkFAqYjIhFYAEhtx4+HY+rUDUgQcJCPmZkpRo7qJOyhNKkcO3YV9+49Ufm6Pn3fhZOznQYmUl2NGhUQtHIU3npLzEOXv/9+DVOnhCIujgcKEekCFgAqtfz8AgStPIDly75Hfr76d3YvP5bWrZuvgOmkk5OTh+3bjqt8nZubI7p3f0cDE5Wenb015s4T97HLBw8SMGH8WpwpxVsjRCQWCwCVSmxsEiZNDMEvv1wVkidyYxqp7dxxEikpqm+IM2JER5ibm2pgIvW83HhpvqCNl3Jy8rBw4R6sXv2jkGdFiKh0WABIZSdPXsekiesQE5OodpaJiQn6C9yaVmpxcc/x008XVb6uYcNq8H2njgYmEqeB4K2Xjx65gk+mbuCBQkQSYQGgEnt5kM/SJfuQk6PaR9v+zcvDaQYIOpxGF6xffxgFBYUqXWNiYgL/kZ00NJFYog9f4oFCRNJhAaASEX2QT716VbD6m7FCjqfVFeFhUbh86a7K133wQVNUrVpOAxNpxsvjlz/7vB9sbCzVzuOBQkTSYAGg/3TjejTGBYg7yKdPn3excNEQODnpxtPuIhQWFmHdusMqX2dra4WBA9toYCLN8/GpjZVBo4SUl5cHCs2ZvV3I6hIR/TcWAHqje/eeYPbs7cjMFHCQj50VZs/pj8FD2unNQT4ldejQJTx+/Ezl6wYMaAM7e2sNTKQd7u7OWL5iJNq19xaS9+ef9zBnzjYUFRULySOi1zOs38Ik3OpVPwr5iF+NGhUQtGoMmjWrJWAq3ZKWloWdO06ofF3lymXRuUszDUykXebmZggM/AgTJ3YX8imGmxExOHjwvIDJiOhNWADote7ciUVUVLzaOZ07N8PSr4ejXDkHAVPpnm3bfi/VoTf+IztBLjecf4Lvd2iMZctHonx5J7WzDh26xOcBiDTMcH77kHB378Sqdb25uRkmTuqOsQFdYGame59vFyH6QQKOlWKfex+f2mjcuLoGJpJWtWpuWLV6DFq0rKtWztOEFCGHSRHR67EA0GtlZeWpdX2NGu7w9aktaBrdFLL+CIqLVXu/2tRUjuEjOmpoIulZW1tg8OB2sLNTb1+H9HT1nzshotdjAaDXcnGxV+v6mzdjMGHCulLtia8Pzpy5iRvXo1W+rlt3X7i7q79MrqvOnY3EpIkhyMgo/Qu4TCaDk5P6uw4S0euxANBrNWlaQ+33qBMTU/HJ1I04cviyoKl0Q35+ATZtPKbydY6OtvDza6WBiaRXWFiEDaFHsWDBnlI9E/GqGjUroEwZG0GTEdG/YQGg13JwsEXXrj5q5xQUFOKbb37C10v3ITfXMD7jvX//WTx9qvoWtoOHtIe1tYUGJpJWcnI6Pp2xGT/8cE7Iw3v9+7VWfygieiMWAHqjwUPawUfQ+/gnTlzHlMmhiItLFpInleTkdOzbe0bl66pXd0e7do00MJG0wsOiMGH8WkRGPhKS139AGzRtVlNIFhG9HgsAvZGZmSlmzvJDr14thOz9/vDhU0ycsA7nz90SMJ00Nm/6ReWVDJlMhlGjPzCYMw8A5e59u3adxOefb0Nqapbaeebmphg37kMMGKCfOyMS6RsWAPpPcrkJhg57X9iJfdnZeZg/fzdCQg7r3XGwt289xsmTN1S+rnXr+sJO0dMFGenZ+GLOdmzf9rvKn4L4N2XLlsGixcPQ6YOmAqYjopJgAaASa9asFr4JHouatSqqnaVQKPDjwQuYOXMLnifrx+e9FQoFQtYfUfk9bnNzMwwe0l5DU2nf/ftxmDgpBFeu3BOS9/bbyr9XtQT8vSKikmMBIJWULVsGS5YMQ9du6j8cCCi3fR03bg3Cwx8IydOk334LL9XmSH36tkTZsmU0MJH2HT1yBVMmh+JpQoraWXK5CfoPaIPPZ4tZWSIi1bAAkMrMzEwxatQHmDq1JywtzdXOS0vLwuzPt2LHjhM6u/1rTk4etn77m8rXlS1bBj16NNfARNqVk5OPxYv3YvXqH4W8bePsbI+Fi4ZiwIA2BvVcBJE+YQGgUmvzXkOsDBqFypXLqp1VVFSMnTtO4Mt5O9X+DLkm7N59qlRb044Y0REWFmYamEh7Yh8nYcrk9Tj1h+rPPvybBg2qImjVaNSt6yEkj4hKhwWA1FKpUlksXzESLVvWE5J38eIdTJoYgujop0LyREhISMHBA6qfTuflVRnNW3hpYCLtOXHiOiZOXIeYmES1s2QyGXr1bon5CwbD0ZG7/BFJjQWA1GZlZYEZn/bB+PFdYWoqVzsvLi4ZkwND8MuxqwKmU1/o+iMoKChU6Rp9/9hfQUEhQkIOC9u8yd7eGnPnDcTQoe1hYsJfO0S6gP8SSZiOnZpg6dcj4Oqq/rG/+fmFCAo6gGVf70d+foGA6Urn2rUHuHDhtsrXdezUBNWru2tgIs179iwN06dtwo8HLwjJq1mzAlYGjcZbb9UQkkdEYrAAkFA1a1ZA0KrRwo66/f33a5g6dYOQp85VVVxcjPUhR1S+ztraQm83s7l06Q7Gj1uDO2oeBQ0oV0G6dvPB0q9HoFw59UshEYnFAkDC2dtbY96XgzB0aHshS+BR9+OFfu68pH4+dAkPH6r+LEL/AW307j3u4uJi7NhxAvPm7lTrFL+XrK0tMGNGH4wa9YGQt4WISDwWANKIVx/4cnBQ/1S3lzvPbd78q5Cd5/5LZmYOduw8qfJ17u5O6NKlmehxNCotLQuff74NOwV9DNPTszyCVo1Bi5Z1BUxHRJrCAkAa1bBhNawMGo3atSupnaVQKLBv72nMmvktUlMzBUz3etu2/o6M9GyVrxs56gOYmZlqYCLNiIh4iHEBaxAeFiUk7733GmLp1yPg7u4kJI+INIcFgDSubNkyWLJ0OHr1bikk7/r1aEycsA63bz0WkvdPjx49w5Ejl1W+ztvbE02b6scpdgqFAgcPnsesmd+Wan+DfzI3N8PEid0xZWpPvd/3gMhYsACQVsjlJhg6tD2mTesNKyv1dw9MSkrHtGkbsW/vaQHT/V3o+iMoKlLtbQZTUzlGj+ksfBZNyM7Ow8IFe7A+5IiQXf0qVnTBipUj8X6HxgKmIyJtYQEgrWrVuj5WBo2Gh4er2llFRcXYvPlXLF0i5rPqAHD+3C1cvXpf5es+/PBtVKzoImQGTYqKisf4cWtw9mykkLx3mnth+YqRqFKlnJA8ItIeFgDSuooVXbBs+Ui0al1fSN7Jk9cxOXA9YmOT1MopKCjExo3HVL6uTBkb9OvfWq3vrQ2HD1/GlMmhSBDwkUozM1OMDeiCWbP8YGNjKWA6ItI2FgCShJWVOaZN640xYzsL+ZhYTEwipk4JRdT9+FJnHPjhPOLjn6t83ccft9X5F8EtW35F8Dc/qbyj4b8p5+aIpV8PR+fO+vVpByL6OxYAklSXLm9j6dLhQo7LzcjIwYIFu5GXp/rOgc+fZ2DPnlMqX1etmpvOv/d94cJt7P1OzLMSb/vUxqpVo1GjRgUheUQkHRYAklzNWhWxevUYNGmi/laxCQkpOPH7NZWv+/bb35CTk6fydSNHfaDze9vv3HFC7Qy53ATDhr2Pzz/vB1tbKwFTEZHUdPs3FxkNO3trfDF3IAYOek/tF1RVdwy8e/cJjv8WrvL3adGyLurXr6LyddqUmpqJqKjSvy0CAE7Odli4cCh69mqht4cbEdH/xwJAOkMmk6Ffv9ZYoOZxscnJ6SX+WoVCgQ2hR1XeAc/c3AzDhnVQdTSte/YsTa3r6zeoiqCg0ahbz0PQRESkK1gASOfUb1AVK4NGo06dyqW63traosRfe+bMTdy8GaPy9+jZs7leHHBT2ocTXy1jTk52gqciIl3AAkA6ycXFHosWD0W37r4qLzursu3wTz9dVHU0uLjYo1fvFipfJwU3N0eVX8Dt7a0xb94gIW/HEJHu4r9u0lmmpnKMHNkJMz7tU+K7egsLM3To+FaJvrawsAh3bqt+7O2Qoe/D0lL93Qy1wcTERKWP69WuUwmrVo9B47fEHOdMRLqLBYB0XosWdbEyaPR/7jYnk8kwcmQnuLqWbGk+Nzdf5a1w69SpjNaCNjDSlp69msPL681vp8hkMnTr7ovFi4cJ+UgmEek+FgDSCxUqOGP5ipHo0uXtf31LwM7OClM/6YmOnZqUONPGxlKlO3mZTIZRozvp3ZPwZmammDtvENq81/BfZ3dytsNnn/fDyJGdhGzKRET6QX/OLSWjZ2FhhjFjO6P7R744f/4WEuJTYCI3Qa2aFeDjW0flQ4ZkMhkaNaqGCxdul+jr27VrpLcb4FhbW2Dq1J7o2/ddXLx4B/Hxz2FtZYEaNdzh41sb5uY8wY/I2LAAkN4pX94JPXo0F5L18gXxvz4GaG9vjcFD2gv5nlKqVKksKlUqK/UYRKQD+BYAGbWatSpihH/HN36NhYUZps/oo9beBEREuoYrAGT0unf3hZubIzZuOIa4uOS//W9163pg9JjOqFbNTaLpiIg0gwWACICPT228/XYtREc/RdyTZMhNTeDhUQ7u7k5Sj0ZEpBEsAEQvyGQyVKvmxrt9IjIKfAaAiIjICLEAEBERGSEWACIiIiPEAkBERGSEWACIiIiMEAsAERGREWIBICIiMkIsAEREREaIBYCIiMgIsQAQEREZIRYAIiIiI8QCQEREZIRYAIiIiIwQCwAREZERYgEgIiIyQiwARERERogFgIiIyAiZSj2AVCIjH2Hf3tNSj0FEVGq5OflSj0B6TCb1AAJ9AWCO1EMQEekwQ/qdT2riWwBERERGiAWAiIjICLEAEBERGSEWACIiIiPEAkBERGSEWACIiIiMEAsAERGREWIBICIiMkIsAEREREaIBYCIiMgIGe1ZAO/UsUcLL3upxyAiKrWtvyciIYXnAVDpGG0BaNewDGb3qyz1GEREpfZbeCoLAJUa3wIgIiIyQiwARERERogFgIiIyAixABARERkhFgAiIiIjxAJARERkhFgAiIiIjBALABERkRFiASAiIjJCLABERERGiAWAiIjICLEAEBERGSGjPQyISJTc/GKEP8hCRk4Rqrtbomo5S6lHIiL6TywARKWUV1CMubseY/3RBKRmFf71/69d0QqLhlRBl6ZOEk5HRPRmLABEpZCVW4R2n0Xg8r3M//e/3Y7NQfevbuHDZk5YO9YTbo7mEkxIRPRmfAaAqBTGrXvwry/+r/rp0nM0HB+G784kaWkqIqKSYwEgUtH9+FzsOJlYoq9NzihE/6V34LfkDpLSCzQ8GRFRybEAEKno8JXnKFaods2+s0loMC4MBy4ka2YoIiIVsQAQqSg6IbdU1yWmFaDXwtsYuvLe3x4aJCKSAgsAkYpyC1S8/f+HbScSUS8gDIcuPxc0ERGR6lgAiCSQkJKP7l/dwpCV95CRUyT1OERkhFgAiCS0/UQiGk0Iw4nraVKPQkRGhgWASGIxiXl4f3YExqyJQmYuVwOISDtYAIh0gEIBhB5LQOOJ4Th9M13qcYjICLAAEOmQBwm5aDvrBsasiUJ2XrHU4xCRAWMBINIxxS9WA3ymXMOV/9htkIiotHgWgATSs4sQEZOFp6kFKFJ1RxlSma2lHFXdLFGrgpXUo6gk8nE2Wky/jk97VcTMvpVgJpdJPRIRGRAWAC2KT8nHp9/G4LvTz5BfyBd+bavhboW5AyqjTwsXqUcpscIiBb7c8xg/XX6OLZNqop6HtdQjEZGB4FsAWnIvLgc+U65h+4lEvvhL5F5cDvovvYNZW2OkHkVl4Q+y0GxyOBbti0VhEf/+EJH6WAC0oLBIgZ4Lb+NJcr7UoxCAxftjsVcPT+jLL1Tgs20xeHfGDdyOzZF6HCLScywAWrDndBIiH2VLPQa9Ys6OR1r7Xr7+AXCtVUdY3qW7GWgaGI6VP8apfCgREdFLLABa8DP3fNc5d+NycOeJdu6iHT2qosfqDWg2ZCRMTMU8dpOTX4ypG6Px3swbeFDKw4mIyLixAGjB46Q8qUegf/H4mfZ+LiZyOZoMGoZewZvgXK26sNwzkeloPDEc644kQMHVACJSAQuAFthZyaUegf6FvbX2fy4u1Wui99rNeKv/EJjIxXz/zNwijFsXhY5zbuKRFksNEek3FgAt8KltL/UI9A+2lnI0qGIjyfc2MTXD28NHo8eqUDhWriIs9/i1VDSaEIbQY1wNIKL/xgKgBSPeLwdrC/6n1iUj3i8HS3Npfyautb3QJ2QrvP0GQWYiZpb07CKMWROFLvMi+akTInojvippgbuTOZYNryr1GPSCVyVrzO5XWeoxAAByc3P4+geg+/I1KONeQVjusasp8J4Qht2nngnLJCLDwgKgJf4d3LBxQg1J3nem/2nv7YDj8+vp3M+hfP1G6BO6HfW69QRkYrb8fZ5ZiIHL7qLP4tt4llYgJJOIDAe3AtaiwW1d0bmpI747k4Qr9zJ52puWyGRAJRcLfNjMCS3r6u7zGGaWVnh3wieo1qI1fl86H5mJCUJyvz+XjDM307FmrCe6+zgLySQi/ccCoGUu9mYY+0F5qccgHVaxcVP4bdyBcyGrEfnzQYh4oi8xrQC9Ft5Gr+YuCB7jCWc7/tMnMnZ8C4BIB5lb26B14Ax0WbgCtmVdheXuO5uEBuOu4seL3JyKyNixABDpsMpNfdB3ww54dekuLPNpagF6LLgFvyV3kJJZKCyXiPQLCwCRjrOwtUPrwBnoPH8ZrJ3FHWW872wS3poUjt+vpQrLJCL9wQJApCc8fJqj7/rtqPZuG2GZj57locOcmxizJgqZuUXCcolI97EAEOkRKwcHdJyzEB1mz4elfRkhmQoFEHosAd4TwvFHRJqQTCLSfSwARHrIs1Vb+G3aharN3xWWGf00F+0+i8CYNVH8iCqREWABINJT1o5O6DRvCTrMng8LOzshmf9bDQjD2ch0IZlEpJtYAIj0nGertui7fhsqNm4qLDMqIRdtP4vAzK0xyCvgagCRIWIBIDIAtq5u6LpkFVoHzoCZlZWQzMIiBZbsj0WzKdcQFpUpJJOIdAcLAJGhkMng1aU7+m7YgQoNGwuLvRmTDd9PrmPm1hgUFPGcYSJDwQJAZGDs3dzRbVkwWgfOgKmFpZDMl6sBb0+5huvRWUIyiUhaLABEhujFakDvdVvgWstLWOz16Cy8M+06luyPRVExVwOI9BkLAJEBc6xcBT1Wh8LXPwByMzMhmbn5xZi5NQbvzriBO09yhGQSkfaxABAZOBO5HN5+g9B77RaUrVFLWO7FOxloMikcS/bHgosBRPqHBYDISDhV9UTP4E3w9Q+AiamY44BzXqwGtP70Bu7H5wrJJCLtYAEgMiIvVwN6rdkMF88awnLP3UpHs8nhCD2WAAVXA4j0AgsAkRFy8ayBnt9shLffIMhMxPwaSM8uwpg1Ueg89yZik/OFZBKR5rAAEBkpubk5fP0D8FFQCBwqVhaW+0tYKhqOu4rQYwnCMolIPBYAIiPn5lUffdZvU64GyMT8Skh7sRrw4bxIxD3nagCRLmIBICKYWljA1z8A3VeuRZkKFYXlHvkzBQ3Hh2HHyWfCMolIDBYAIvpL+XoN0Xvdt/Dq0h2QyYRkpmQWYvCKu/BbcgdJ6QVCMolIfSwARPQ35tY2aB04A10WroBtWVdhufvOJqHh+DAcvJAsLJOISo8FgIj+VeWmPvDbuFO5GiDI09QC9Fx4G35L7uB5ZqGwXCJSHQsAEb2WuY0tWgfOQOcFy2Hj7CIsd9/ZJDQcF4afLz8XlklEqhGzHRipLCe/GImpBTxQRQtsreRwLSNmH3xj5fH2O+izfjv+CFqMB6dOCMmMT8lH9/m3MKqjGxYNqQJbS7mQXCIqGRYALcovVCDkaAJCjyUg8lG21OMYFVtLObo0c8LMPhXhVcla6nHEZkNNAAAgAElEQVT0kpWDAzrOWYh7x4/h1OplyMtIVztToQDWHUnAL2Gp2DihBlrWtRcwKRGVBN8C0JLUrEK0/zwCgaEP+OIvgczcIuw+9QxNA69h9yl+JE0dNdp2QL+NO+Hh01xY5oOEXLSddQNTN0YjJ79YWC4RvR4LgJYMXHYXZyPVv2Mi9eQVFGPoynu4eCdD6lH0mrWzCzrPX4Y2U2fB3NpGSGaxAlj5YxyaBobj0l3+fEhS5gAqAjDo9w5ZALTg17BUHP0zReox6IWCIgWmbXko9RgGoU6nD+G3cQcqNm4qLPN2bA5aTr+Bz7bFIK+AqwGkVV0AnAWQBeAxgBwAhwC0kHIoTWEB0IK9Z5OkHoH+4dytdB5YI4itqxu6LlmFdyd8AjNLKyGZRcUKLNoXi7enXEP4gywhmURv4AbgIICfALyD/z0fJwfQGcBJAFMlmUyDWAC04O6THKlHoH9QKIB7/LmII5OhXree6BO6HeXrNxIWGxGTDd+p1/DlnscoLOInZkgj+gKIAND1DV8jB7AEwEdamUhLWAC0wMxUzJaqJJY5fy7ClXGvgI9WrEXrwBnCVgMKihSYu/MRmk6+hmvRXA0gYRwAbAWwG4BzCb5eBmAxDOh102D+ILqsYRUxD0mROGZyGbwq8+OAGiGTwatLd/RauwWutb2Exd54mIV3PrmOpd8/4f4ZpK5uAG4DGKTidTUAiFvikhgLgBZ8/J4rTHizqVO6+TjD0ZbbYGiSY2UP9FgVireHj4aJqZiHqfMKivHptw/R6tMbuBvHt3BIZS/v+g8AKFfKjBrixpEWC4AWNKhqg/Efuks9Br3gYm+GxUOqSD2GUTCRy/FW/yHovXYzXKrXFJZ74XYGmkwKx+pD8eBiAJVQRyjf61f1rv+fygiYRSewAGjJkqFVENC5vKgTVqmUKpe1wJEvvODhaiH1KEbFuVp19ArehCaDhsFELmbL3+y8YgSGPkD7zyIQ/TRXSCYZJDsA6wEcBlBB4ll0CtdAtURuIkPQyGro925ZbPglAZfvZyInj59x1gYZgIouFvjwbSf4v18ONtxzXhImpqZoNmQkqvi2xPHF85ASEy0k94+INDSeGI4lQ6tgxPtuLNn0qjYANgGoIvEcOokFQMt8atvBp7ad1GMQSca1Vh34+gfg8GfiPladkVOEMWuisP9cMkLHV0clF67wGDkrAHMAfAKudL8W/8MQkcH4LTwVjcaHIfRYgtSjkHR8AIQBmA6+xr0R/+MQkUFJy1auBnSZF4kn3O3RmFgCWATgDIBaEs+iF1gAiMggHf0zBQ25GmAsGgC4AOVdPx/yKSEWACIyWKlZhRizJgp+S+4gKb1A6nFIPFMoX/QvA2go8Sx6hwWAiAzevrNJaDAuDAcuJEs9ColTD8BFKJf9zSWeRS+xABCRUUhMK0Cvhbfht+QOnmcWSj0Old7Lu/4rABpLPIteYwEgIqPycjXg0OXnUo9CqqsD4ByUd/38rKeaWACISOeVr98INdt2EJaXkJKPj+bfwpg1UcjIKRKWSxpjAmAKgKsAmooKLV+vAWq17yQqTu+wABCRzrOwtUW7mXPRecFy2Di7CMlUKIDQYwloNCEMJ66nCckkjagK4DiAr6H8qJ/a5Obm8PUPQPcV62Bf3nh3B2YBICK94fH2O+izfjuqvdtGWGZMYh7enx2BMWuikJXL1QAdIgMwEsB1AK1Fhbp41kDPbzbC228QZCbG/RJo3H96ItI7Vg4O6DhnITrMng9LezEHs71cDfCeGI7TN9OFZJJaPAD8CiAEgK2IQBO5HN5+g9BrzWa4eBrMib5qYQEgIr3k2aot/DbtQtXm7wrLfJCQi7azbiAw9AHyCnhYl0R6Q7mVb1tRgU5VPdEzeBN8/QNgYsojcF5iASAivWXt6IRO85agw+z5sLATc8hWsQJYfSgeTQOv4c/7mUIyqUTcABwE8B0ARxGBL+/6e6/dgrI1uDvwP7EAEJHe82zVFv027oKHT3NhmZGPs9F82nXM3BqD/EKFsFz6V70BRADoKiqwjHsFdFu+Br7+AZCbmYmKNSgsAERkEKydXdD5q6/ROnAGzKyshGQWFimwZH8smk0OR/iDLCGZ9DeuAPZDedfvLCRRJoNXl+7ou2EHytfj7sBvwgJARIbjxS9/vw07UaGhuE3iImKy4Tv1GmZujUFBEVcDBOkF5V1/D1GB9m7u6LYsGK0DZ8DUQsgnBg0aCwARGRw7t/J/vRCYWYpZDSh4sRrw7vTruB2bIyTTSDlA+XT/XgBlhSS+ctcvsvgZOhYAIjJML14U+oRuR/n6jYTFXr6XiSaB4ViyPxZFxVwNUFFHKO/6R4oKtHV1Q9clq4S+9WMsWACIyKCVca+AbsuChT4MlptfjJlbY9D60xu4F8fVgBKwh/Ku/wgAYVvvebZqi77rt6FiY2G7AxsVFgAiMnh/fRxs3bcoW7O2sNzztzPQeKJyNYCLAa/VHoLv+jXx8U9jxAJAREbDqUo19Pxm44sNYcSsBuS8WA3oNOcmHj3LE5JpIKyhPLXvKIBKokI1sQGUsWIBICKj8r/NYTbDpXpNYbnHr6Wi0YQwhB5LEJapx94BEA5gOgS9zlg5OKCD4C2gjR0LABEZJedq1dFz9Qahh8KkZxdhzJoodJ4biSfJ+UIy9YwllHf9pwEI23Dfw6c5+q7fDk+Bh0ARCwARGbGXx8L2CFoPh0oewnKPXU1Bw/FGtxrwNpR7+Au767ewtUPrwBnoPH8ZrAUdA03/wwJAREavnFc99AnZqlwNkIn5tZiaVYgxa6LQ7atbiE8x6NUAMwBfADgLQNgTlpWb+qDvhh3w6tJdVCT9A49F0iKFAth/LgkbfnmKP+9nIiWzUOqRjIK5qQyVy1rgw2ZOCOxeAe5O5lKPRDrI1MICvv4BqNzUB78v/QoZCfFCcn++/BxvTczAmrGe6O4jZrdbHdIYwLcA6okKNLe2QfOxE1Gnk7BjAeg1uAKgJTn5xei16Db8ltzBb+GpfPHXovxCBe7H52LFwTjUD7iK38JTpR6JdFiFRm/BL3QHvDp3A2QyIZmJaQXotfA2Bq+4ayj/9s0AzAFwAQJf/Cs2boq+G3bwxV9LWAC0ZNQ393HwQrLUYxi9tOwi9Fx4GzdjsqUehXSYmbU1Wk/+FF0WLIeNi5jdagFgx8lnaDQhDEf/TBGWKYF6UL7wfwFlEVCbmaUV3p0wFV2XrIJdOTcRkVQCLABacO5WOnb+8UzqMeiFrNwifLI5WuoxSA9UbuYLvw07UbNdR2GZT5Lz8eGXkRj1zX2kZxcJy9UCOZQP+F2BculfiPL1GqJP6HbU69ZL2IoLlQwLgBbwxV/3/BaeiqepBVKPQXrAws4O7T79Ap3mLYa1o5OQTIUC2PjrU3hPDMOJ62lCMjWsFoAzUH7Ez0JEoNzcHO+MnoDuK9eijLuw3YFJBSwAWnDzEZebdU2xArgdy58LlVzV5q3Qb/MeoasBMYl5eH92BMasiUJmrk6uBsig3ML3TwA+okJda3uhT8hWNOrdX9inLkh1/C+vBTIua+kkE/5cSEUvVwM6zJ4PyzIOQjIVCiD0WAK8J4TjVIROrQZUAXAcykN8bEQEmpiawttvEHoErYdj5SoiIkkNLABaULeytdQj0D+YyIBaFXl0KJWOZ6u28Avdjio+LYRlRj/NRbvPIjB9y0Pk5hcLyy0FGYDRAG4AELb1notnDfRas/nFOQz8BLouYAHQgv6txD1FTGK839gRrmXEHAbzX86HBiPxzi2tfC/SHmtnF3ww/2u8N+1zmNvYCsksVgDLfniCZpOv4cq9TCGZKqoE5eE9awEI+UOZyOVoMnAoeq3ZBBdPYbsDkwAsAFrgW9sOA9u4Sj0GvWBrKceSoVW09v1SYqLx/fgRuLRlPYoLDeIz4PSK2h06w2/jDlR6q5mwzMjH2Wgx/Trm7HiE/EKtnTM8BMq7/vdFBTp6VEWP1aFoNnSUsNMXSRwWAC1ZO9YTPd4xuF3A9I6jrSn2z6wNr0rafVumuKgIV7Ztwr6AYUh+cF+r35s0z7ZsOXy4OAitJk2DmZWYt5YKixSY/91j+Ey9huvRWUIyX6M8gB8BbAYg5Jg9mcwEjfoMQJ9138K1lpeISNIAFgAtsTI3wZ5ptbF3Rm2093aAsx3fA9MWc1MZarpbYcpHFXDjG2+0bajew1tW5qX/Z5N0/y72jhmKP3duQXGRTj71TaUlk6Huhz3QN3Q73Bt4C4u9Hp0Fn6nXsGBvLAqLhK8G+EF51/+hqMAyFSqi+8p1eGfUeMjNue22LuOrkBbJZMBHvs74yJcrAfqsqpulWtcXFxbg4sZ1iD57Cm2nz4FjZXGn0JH07MtXQLflwbi+fw8ublqHwrw8tTPzCxWYvT0GP11MxqZJNVFH/QdYywJYA6CX2sO9JJOhfrde8PEfCzNLPmCrD7gCQKSi7j5OMBHwCcLE25HYO/pjXNu3CwqFpE99k2AymQka9uqHPiFbUa5OXWG5l+9lomlgOJYfeILi0i8GfAQgAgJf/O3KuaHb0tVoOX4KX/z1CAsAkYoquVhgXBd3IVmFeXk4uzYIBwLHIi3uiZBM0h0OlTzQY1UofIaPgdxMzENwufnFmLb5IdrMvIHnGSrvZrkNwPcAhD2V7PVBV/TdsAMVvJuIiiQtYQEgKoUFH3ugV3MXYXnxN8Lxnf9ARBzcr9wZhgyGzMQEjfsPRq+1W+BSvaaw3LOR6XiYqPLbCwNFfX8bZxd0XrAcrafMhLm1kH2CSMtYAIhKwdLcBLs+qYVlw6uq9VDgqwpyc3Bq1VL8OG0CMhMThGSS7nCu6olewZvQZNBwvd8Ip2bbDvDbuAseb78j9SikBhYAolKSyYCJXd1xbbU3Wta1F5Ybe/Uydg8fgMhDB7gaYGBMTE3RbIg/egteDdAWKwdHdPxiEdrNnAsLOzupxyE1sQAQqamamyWOz6+P5SOqwsJMzD+p/OwsnFyxCIc+DUTms0QhmaQ7nKtVR6/gTWj68QjITPTj17Dnu+/Bb+MuVGvZWupRSBD9+JtHpONMZMCED91xeXlDvFVdzLawAPDo8gXsGfFiNYAMiompKZoOHoEeQevhUEl3PwpqYWuH1oEz0GHOAlg5iDkAiXQDCwCRQF6VrXF2SQMs+NgD5qZiThvMy8zAyRWL8POsKchOThKSSbqjnFc99AnZCm+/QTp3NG7lpj7w27gTXl26Sz0KaYBu/W0jMgCmchmm9ayIi8saomFVcU9Hx1w4iz0jByLq1AlhmaQbTC0s4OsfgO4r16FMhYpSjwNzaxu0DpyBLotWwsaFh5kZKhYAIg2pX8UGF5Y1xGy/SpCL2DkIQE5qKo7N/RTH5s1CbrpOnR1PApSv1wB9Q7ejQY8+yqdMJVCxcVP4bdzBu34jwAJApEFmchlm96uM04vro7b627f+JeqP49g9rB+iz54Slkm6wdTCEi0CJuPDRSthW7acFr+vchXiwyVBsHV109r3JemwABBpQbOadri8ohGm9awoZBthAMhOeY4js6fh2LxZyMvIEBNKOqNSk7e1difuVrc++oZu18nnEEhz+JMm0hIrcxMs+NgDfyxqgBruYlcD9owchNirl4Vlkm4wt7FVvhe/cIVG3ouXm5vD1z8AH60MQZkKlYTnk25jASDSMt/advhzZSOM71Je2Nu8mYkJ+HHaBJxcsQgFOTliQklnVG7mK/xpfNfaXugTsk15168nexGQWPypE0nA2sIEK/yr4cgXdVHJxUJMqEKByEMHsGfEADy5dlVMJumMvz6PP3s+LMuU/vP4Jqam8PYbhB5B63kUtZFjASCSULtGDghf7Q3/DuIeukpPiMPBKQE4uWIRCvNyheWSbvBs1Rb9Nu1CtRatVb725XkEvv4Ben8eAamPBYBIYmWs5Vg71hM/zKoDN0dzMaEvVgP2jh6CxDuRYjJJZ1g5OKLj3EWwdnJW6brOC1fo5RkEpBksAEQ64sNmTogIFrsakPLoIb4f74/zocEoKlD57HjScTIVHyLhe/30Kv5tINIhDjamWDvWE7un1YKLvZmQzOKiIoTt3oa9Y4bg2b07QjKJSP+xABDpoF7NXXD9G29091FtifdNnkdHYX/AMJwPDUZxYaGwXCLSTywARDrKtYwZ9n1aG7un1YKTrZgHtl6uBuwbOxRJUfeEZBKRfmIBINJxL1cDujR1EpaZFHUP+8cNR9jubVAUFwvLJSL9wQJApAfcHM1x4LM62DypBuys5EIyi/LzcT40GD9MHIXU2EdCMolIf7AAEOmRQW1cEb7KG20alBGWmRB5A9+NHKRcDVBwNYDIWLAAEOkZD1cL/DKvHtaO9YSNpZjVgMK8PJwPDcaBSWOQ9iRWSCYR6TZuBaVl526lY8MvT3HlfiZy8/XvbstEBni4WuIjX2cMbecKCzN2SCnIZIB/Bze0ql8Gw4Lu4cJtMacBxkdcw97Rg9F87ETU6dRVSCYR6SYWAC0pLFJgUugDrDuSIPUoarsfn4vj11LxzaE4/DCrjtCT7Ug1Nd2t8MfC+lj2wxPM3fUYeQXql8r87Cyc+HoBHpw+idZTZsLG2UXApESka3j7piWfbIo2iBf/V92OzUHHOTeRnMHPlEtJbiLDtJ4VcWlZQzT2tBWWG3PxHHYP74e7x48JyyQi3cECoAXXorMQ/HO81GNoRExiHr7azSfIdUFdD2ucXdoAs/tVhplczDnDeRkZ+G3BHBz9YgZyUlOEZBKRbmAB0IKtvyeiWCH1FJqz/eQzFBYZ8B9Qj5jJZZjtVwnnv26Iuh7WwnIfnD6J3cP7IerUCWGZRCQtFgAtuBadJfUIGpWSWYiYZ3lSj0GvaFTNBldWNMKCjz2ErQbkpKbi2NxPcWzeLOSmpwnJJCLpsABogTHcHRcUGv6fUd+YyZXPBpxcWB+1Koh7UDPqj+PYPWIAYi6cFZZJRNrHAqAFNQX+8tVFluYm8HC1kHoMeo23a9nhyspGmNjVHSZiFgOQnZyEn2dNwYmv5yM/27BXuIgMFQuAFvRpYdgfo+razAlW5vyrpMuszE2wbHhVHJ9fH9XcLIXl3jryE3YPH4DYq5eFZRKRdvC3tha0a+SAD5o4Sj2GRthZyTF3QGWpx6ASalnXHleDGmFURzfIBK0GZCYm4MdpE3Bq1VIU5OaICSUijWMB0JKtk2uihZe91GMIVcZajr0zanMjID1jaylH8BhPHJ5TF5VcBL11o1Ag4uB+fOc/EPE3wsVkEpFGsQBoiYONKX79qh6CRlZDPYEfz5KCk60phrcvh7BV3mjXyEHqcaiU2ns7IHy1Nwa3dRWWmRb3BAcCx+Ls2iAU5vGTIUS6jFsBa5GZXIaAzuUR0Lk8cvOL8TS1AEV6tkGAg60pnGz518ZQlLGWY+OEGvjI1xmjg6OQkJKvdqZCUYxr+3bh0aVzaDt9DlxrewmYlIhE429yifDJedIlXZo6ISLYHp9+G4PQY2K2rE55FIPvJ/ijYe/+aDZkJORmZkJyiUgMvgVARACUb1OtHeuJPdNro2wZMS/WxUVFCNu9DXtHD8azu7eFZBKRGCwARPQ3Pd9xxrXV3vjI11lY5vOHD7B/3HCcDw1GcWGBsFwiKj0WACL6f1zLmGHvjNrYMqkGHGzEvFP4cjXg+wkjkRITLSSTiEqPBYCIXmtgG1dEBHvjw2ZOwjIT79zC+dBgYXlEVDosAET0Rm6O5vhhVh1snlQDdlZyqcchIkFYAIioRAa1cUX4Km+0aVBG6lGISAAWACIqMQ9XC/wyrx7WjvWErSVXA4j0GQsAEalEJgP8O7ghbFUjvFuPqwFE+ooFgIhKpWo5S/z2lXI1wNqCv0qI9A3/1RJRqZm8WA24sKwhmtSwlXocIlIBCwARqc2rkjXOLG6ABR97wNxU0DnDRKRRLABEJISpXIZpPSvi/NcNUb+KjdDsxNuRiL16WWgmUcqjGESf/UPqMSTDAkBEQjWsaoNLyxtiwcceMJOLWQ3ITnmOH6dNwMkVi1CQkyMkk4yYQoHIQwewb8wQJEXdk3oaybAAEJFwZi9WA04tboDaFa3EhL74pb1nxAA8uXZVTCYZnfSEOBycEqAsk7nGXSZZAIhIY5rWsMXlFY0Q2M0dJoIeDUhPiMOPU8bh3LpVKMrPFxNKhk+hQMTB/dgzXO0CmSdqJKmxABCRRlmZm2DpsKo4tagBarqLWQ1QKIoRvncndg/vh/iIa0IyyXBlJyfh58+m4tSqpSLu+h+ImEkXsAAQkVb41LbD5RUNMbqTG2SCVgPS4p7g4OSxuLhpHY8Zpn9168hP2DnUDzEXzoqIew7gTxFBuoAFgIi0xsZSjm9GeyJoZDVhmcVFRfhzxxbsHTPUqB/oor/LTk7Cz7Om4MTX85GflSkqdhWAbFFhUmMBICKtq1zWQnhm8oP72Dd2GK5s34zioiLh+aQ/7v3+C3YN7y/qrv+lXwDMFxkoNVOpByAiEqW4sACXNofg4bnTaDv9czh6VJV6JNKinNRU/BG0GA9OnRAZWwxgOYCZAApFBkuNKwBEZHAS70Tiu9GDEbZ7GxTFxVKPQ1oQc+Es9owcKPrF/yGAdgA+AWBwD5lwBYCIDFJRfj7Ohwbjwdk/0Hba53Co5CH1SKQB+VmZOLf+G0QeOiAyVgEgFMBUABkig3UJVwCIyKA9jYzAd6M+Vq4GKLgaYEgeXb6A3cP7i37xjwfQFcAoGPCLP8AVACIyAoV5eTgfGoyH50/jvWmzUaZCRalHIjXkZ2fhXMhqRP58EFAoREbvBTAayo/7GTyuABCR0YiPuI69owcr7xjFvnCQlsRHXMPeUR+L/hk+BfARgD4wkhd/gAWAiPSAtaMT5GZmQrLys7NwcsUiHJo5GVnJSUIySfMKcnNwatXX+GHSaKTFPREZvRtAXQBC30fQBywARKTzXGt7oU/IVrjWqiMs89Gl89g11E/0+8ekAQmRN7B31GBEHNwn8q4/BcAgAP0AJIsK1ScsAESkFxw9qqLH6g3w9Q+Aiamg1YCsTJxcsQg/czVAJ738JMcPE0chNfaRyOjDAOoB2C4yVN+wABCR3jCRy+HtNwi9122BS/WawnJjLp7D7uH9cPe3o8IyST1JUfewf9xw0Xs5pEH5dH9nAHGiQvUVCwAR6R3nqp7oFbwJTT8eAZmJmF9jeRkZ+G3hFzg2bxZy01KFZJLqigsLEbZ7G/aNFX62wzEo7/rXiwzVZywARKSXTExN0XTwCPRYFQrHyuI2+Yn64zh2D++P6LN/CMukknkeHYX944bjfGgwiguF7bqbDuVdfycAsaJCDQELABHptXJ16qJPyDZ4+w0SthqQnfIcR2ZPx7F5s5CXkS4kk16vuKgIYbu3Ye+YIXh2747I6LMA3oLyrp+f+/wHFgAi0ntyc3P4+gfgo5UhKFOhkrDcqD+OY9fw/nh44YywTPq7lEcP8f14f5wPDUZRgbDt9nMAzADwLoD7okINDQsAERkMt7r10Tf0xWqATNBqQHISDn/2CU6uWISCnBwhmQRAoUDkoQPYO3oIEu9Eikw+D8AbwGIoT/Kj12ABICKDYmphCV//AHRZvBK2ZcuJCX3xYrV7RH88Cf9TTKYRS0+Iw4EpY3FyxSIU5uWKis2F8q6/JQCh7yMYKhYAIjJIld5qBr9NO+HVpbuwzIyEeBycOk65GpDL1QCVvShSe0YMQNy1MJHJ1wD4QHnXXyQy2JCxABCRwTK3tkHrwBnosmglbFzKigl98SL2nf9AxN8IF5NpBDKeJuDHaRNEv5VSCOWLflMoSwCpgAWAiAxe5aY+8NsodjUgLe4JDkweK/rhNYMU9cdxfDdqEGKvXhYZGwHgbSiX/fkDKAUWACIyCha2dmgdOAMd5iyAlYODkExFcbHy42ujB+PZ3dtCMg1J9vNkHP78kxcfp8wQFfvyrr8JgKuiQo0RCwARGRXPd9+D38ZdqNaytbDM5w8fvLKBDW9Ggf9tqPTw3GmRsbcAvAPlXX+eyGBjxAJAREbHysERHb9YhA6z58PSvoyQzP9tZjMUSffvCsnURzmpKTj6xQzllsrpaaJiFVBu5tMEgND3EYwZCwARGS3PVm3ht3EnqrzTUlhm8oP72BcwDJe/3SDyEBu9EHPhLPaMHIQHp0+KjI0G0AbK7XyzRQYbOxYAIjJq1k7O+ODLpWg7fTbMrK2FZBYXFuLy1g34fuJIpD6OEZKpy/IyM5THKs+agmxxxyq/vOtvAIAHM2gACwAREYBa738Avw07UcG7ibDMp5ER+G7Ux8ojbRWGuRrw6PIF7B7eH5GHDoiMjQHQHsq7/kyRwfQ/LABERC/YlXNDt6Wr0TpwBsysrIRkFubl4XxoMA5MGo20J4ZzGF1+dhZOrliEQ58GIivpmcjovVBu5XtcZCj9fywARESvksng1aU7+m7YAfeG3sJi4yOuY4//QFz/fg+g0O+D6WKvXsbu4QOUd/3i/iwJALoB6AMgRVQovR4LABHRv7B3c0e3ZcFoHTgDphaWQjIL83JxJngFfpoxCZnPngrJ1KaXqxk/TZuIzMQEkdF7AdQD8KPIUHozFgAioteQyUzg1aU7eq/dDNdaXsJyH1+5+L87aD2REHkD340cJPp5hkQAPaG8608WFUolwwJARPQfHD2qosfqUPj6B8DE1ExIZn5WpvLJ+ZmTkSXuyXnhivLzcT40GD9MHIXU2Ecio/dBedf/vchQKjkWACKiEjCRy+HtNwi9122BS/WawnJjLp7D7mH9cOfXI8IyRUm8HYnvRr246xe3p0EqlE/39wYg9OlBUg0LABGRCpyreqJX8KYXqwGmQjLzMjNwfNFc5e55aalCMtVRXFiIsN3b8P3EkUh5JHQfg6NQ3vWvFxlKpcMCQESkIhNTU3j7DUKPoPVwrOwhLDfqj+PYNawfHpw5KSxTVcnRUdgXMGPnaR0AAAu1SURBVOzFuQaFomLTobzr7wTgiahQUg8LABFRKbnW9kKfkG3w9hsEmYmYX6c5qSk4OmfGixP00oVklsRfZxmMHiL6LINfwbt+ncQCQESkBrm5OXz9A/BRUAgcKlYWlvtyNeDh+TPCMl8nJSYa34/3F32aYTaUp/Z1BPBYVCiJwwJARCSAm1d99Fn/YjVAJuZXa/bzZBz+bCqOL5qLgmzx5+AoFMWIPHQAe8cMReKdSJHR5wA0ArAYgGHugWwAWACIiAQxtbCAr38APlwSBFtXN2G5d349gt3+A/Ak/E9hmekJcTg4JQAnVyxCYV6uqNhcKO/6WwK4JyqUNIMFgIhIsIqNm8Jv4w54dekOyGRCMjMS4nFw6jicXLEIBbk5pQ9SKBB56AD2jBiAuGthQmZ74SKUe/jzrl9PsAAQEWmAubUNWgfOQJeFK2DjUlZM6F8v3gMRd131F++Mp/E4+Ml4ZYnIUaNE/F0BgLkAmgO4LSqUNI8FgIhIgyo39YHfhh2o8d77wjLT45/g4JQA5KSqdmbOwSkBeBJ2RdgcAK4CaAzgCwBFIoNJ81gAiIg0zMLOHu1nzUPn+ctg7ewiJFNRXIziItVec4vy84V8bwCFUC71+wKIEBVK2sUCQESkJR4+zdF3/TZUa9la6lHUcRPKF/4ZAIQ1CtI+FgAiIi2ycnBExy8WocPs+bC0LyP1OKooBrAKwFsAhL6PQNJgASAikoBnq7bw27gTVd5pKfUoJfEAQBsAEwHkSTwLCcICQEQkEWsnZ3zw5VJ0mD0fFnZ2Uo/zbxRQbuHbAMApiWchwVgAiIgk5tmqLfqEbEPFxk2lHuVVDwG0hfIQnyxpRyFNYAEgItIBduXc0HXJKrQOnAEzKyspR3n1rv+ElIOQZrEAEBHpCpkMXl26o++GHXBv6C3FBPEAukJ5158hxQCkPSwAREQ6xt7NHd2XrUHrwBkwtbDU1rfdC+WxvYe09Q1JWiwARES66MVqQO91W+Bay0uT3+kpgI8A9AHwXJPfiHQLCwARkQ5zrFwFPVaHwtc/AHIzM9HxL+/6D4gOJt3HAkBEpONM5HJ4+w1C77VbULZGLRGRKQAGQXnXnyQikPQPCwARkZ5wquqJnsGb4OsfABNT09LGHIbyrn+7uMlIH7EAEBHpkZerAT1WrYeZpcofFxwEoDOAOPGTkb5hASAi0kOutbxgbmOj6mW866e/sAAQEREZoVK/iaTv9p1NRuTjHKnHIDJKcc95iiyR1Iy2AEQ+zkbk42ypxyAiIpIE3wIgIiIyQiwARERERogFgIiIyAixABARERkhQyoAeVIPQEREpC8MqQA8knoAIiIifWFIBeAXcBWAiIioRAypADwDsErqIYiIiPSBIRUAAJgF5UlXRERE9AaGVgAKAHQFMA1AosSzEBER6SxD3Aq4CMBSAMsB1AdQCYClpBMR0T9VA7BI6iGIjJkhFoCXigCEv/g/ItItb0k9AJGxM7S3AIiIiKgEWACIiIiMEAsAERGREWIBICIiMkIsAEREREaIBYCIiMgIsQAQEREZIRYAIiIiI8QCQEREZIRYAIiIiIwQCwAREZERYgEgIiIyQiwARERERogFgIiIyAixABARERkhFgAiIiIjxAJARERkhFgAiEjn5WVmQqEolnoMIoPCAkBEOi/+Rjh+mDgKaU8eSz0KkcFgASAivZBw8wb2+A9C2O5tXA0gEoAFgIikoCjNRYV5uTgfGoxDMwKR+SxR9ExERoUFgIikkKTOxY+vXMTuYf0QeeiAqHmIjA4LABFJ4QmAp+oE5Gdn4eSKRTj8+SfIfp4saCwi48ECQERSKAKwSUTQw3OnsXt4f9w/+ZuIOCKjwQJARFL5CsBNEUG56Wn45cvP8MuXs5CblioiksjgsQAQkVSyAbQCcEJU4P2Tx7F7eH9E/1979xdb9V2Hcfwd47+MzJho4tXUxEtnFs1iiG6J22Kcu1iyxCyODbKtQGWMgW5DItM4rsqNveqF65298NBq6bQZIxtaBnoWUE62YQfDDqgUSlfa0kLLac85Py++7GJZUEo/5fx7v5Jz2Se/u/Pk6fn+vn97IypSalgWAEnVdAG4D2gFLkcEzk5OsOdXW9m7YzvFmemISKkhWQAkVVsGvATcARyMCh3av4/fP/kIp/JhkVJDsQBIqhVDwD3ANqAYETg7cYFXXniOfW0vsjA7GxEpNQwLgKRaUgJ2AncCR6JCj7+2h9zaVYwU/hEVKdU9C4CkWnQUWElaAxYiAmfOj/Ly85sYaG9jYW4uIlKqaxYASbVqgbQG3AW8G5KYZQz297Fr3WOcfbsQEinVKwuApFp3CPgWqQyUIwKnz43w8s82crDjN5QXQgYGqe5YACTVgyukfwfcDZyICMyyCm/3dtPduoax4zEDg1RPLACS6kmedFxwJxByJ/Dk6ZP0blpLvrODSsk1QM3DAiCp3syR1oAfAP+JCKyUyxRyXfT85HHG//1eRKRU8ywAkurV68DtpJcIhbhwcog/bHzy6hpQioqVapIFQFI9mya9RvgB0hXDS1YplSjkuujdvJ7J4dMRkVJNsgBIagR7SGtAV1Tg2LFBultXU8h1kVVCfm4g1RQLgKRGMQWsAR4GxiMCy/Pz5Ds72L2llYsjIT83kGqGBUBSo+kBvg70RQWO/usddq17LK0BmWuAGoMFQFIjGgMeIq0BExGBpWKRfGcHf966mUtjoxGRUlVZACQ1sh7SbwP6owLPHDlMruVRBvvDBgapKiwAkhrdOeBB0mmBSxGB87OXGWhvo3/bFi6PfxARKd10FgBJzSAjvS/gG8BAVOjw4TfJtaxyDVBdsgBIaiangHtJa8DliMDipRkG2tvY++IvmJuaioiUbgoLgKRm8+EacAdwMCp06I2/kGt5hPcPDERFSsvKAiCpWQ0B95DuFShGBM5NTfLqr7exd8d2rkxfjIiUlo0FQFIzK5FuFrwTOBIVOrR/H7mWVZz6+4GoSCmcBUCS4CiwkrQGhNwJPDtxgVd++Tx7d2ynODMTESmFsgBIUrJAWgPuAo5FhQ7t30d362rOHDkcFSmFsABI0kcdAr5JKgPliMCZ86P8aeszDLS3sTA3FxEpLZkFQJI+7grp3wF3AydCErOMwf4+dq19lLNvFUIipaWwAEjSteVJxwV3AiG3AE2PnqXv2acYaG+jVLwSESndEAuAJP1vc6Q14H4g5k7gq2tAz4YnGDs+GBIpLZYFQJKuz2uki4VeigqcPH2S3k3ryHd2UF4IOXwgXTcLgCRdv2nSa4QfAEYiAivlMoVcFz0bHueDE8cjIqXrYgGQpMXbQ1oDuqICJ04O8cenW8h3dlAplaJipWuyAEjSjZkC1gAPA+MRgZVSiUKui97N65kcPhURKV2TBUCSlqaHtAaE3Qk8dmyQ7tY1FHJdZJWQwwfSx1gAJGnpzgMPkdaAiYjA8vw8+c4Odm9uZerMcESk9BEWAEmK8+Ea0B8VODr4Dt3rV6c1IHMNUBwLgCTFOgc8SDotcCkisFQsku/soG/LBi6eDTl8IEmSltFXgb8CWdTn07esyL73023ZU6/nsxVf+OJi/16SJN0knwCeJb1RMKwIfGXld7PP3HqrBUCSpBr3NeAAgSXgBj6SJKkKPgn8nHTboAVAkqQmczvwTywAkiQ1nU+R1oB5LACSJDWdbwPvYgGQJKnpfBZoA0pYACRJajrfAd7DAiBJUtO5hbQGlLEASJLUdL4PDGMBkCSp6XwO+C0WAEmSmtIPgREsAJIkNZ3PA7/jxr/8J27+I0uSpCg/BsZZfAE4VI2HlSRJcb4E7GZxBeCZqjypJEkK9wQwxf//8j8KrKjSM0qSpGXwZeBVrv3l/xZwW9WeTpIkLasfAf3A2NXPALCRdOmQJEmSJEmSJEmSJEmSJEmSJEmSJEmSJEmSJEmSJEmSJEmSJEmSJEmSJEmSJEmSJEmSJEmSJEmSJEmSJEmSJEmSJEmSJEmSJEmSJElSbfsvr97F9viYa8YAAAAASUVORK5CYII=;" parent="bnWY6VPmUPnhluAn7evO-27" vertex="1">
          <mxGeometry x="190" y="143" width="40" height="40" as="geometry" />
        </mxCell>
        <mxCell id="w-eM_NjZrjQ7TcDnpYgz-17" value="" style="shape=image;verticalLabelPosition=bottom;labelBackgroundColor=default;verticalAlign=top;aspect=fixed;imageAspect=0;image=https://upload.wikimedia.org/wikipedia/commons/thumb/b/b9/Slack_Technologies_Logo.svg/498px-Slack_Technologies_Logo.svg.png;" vertex="1" parent="bnWY6VPmUPnhluAn7evO-27">
          <mxGeometry x="19.99999999999997" y="178" width="78.43" height="20" as="geometry" />
        </mxCell>
        <mxCell id="bnWY6VPmUPnhluAn7evO-42" style="edgeStyle=orthogonalEdgeStyle;rounded=1;orthogonalLoop=1;jettySize=auto;html=1;entryX=-0.001;entryY=0.359;entryDx=0;entryDy=0;entryPerimeter=0;strokeColor=#666666;align=center;verticalAlign=middle;fontFamily=Helvetica;fontSize=11;fontColor=default;labelBackgroundColor=default;endArrow=classic;curved=0;" parent="1" source="bnWY6VPmUPnhluAn7evO-2" target="bnWY6VPmUPnhluAn7evO-21" edge="1">
          <mxGeometry relative="1" as="geometry">
            <Array as="points">
              <mxPoint x="380" y="210" />
              <mxPoint x="380" y="95" />
            </Array>
          </mxGeometry>
        </mxCell>
        <mxCell id="bnWY6VPmUPnhluAn7evO-45" value="&amp;nbsp;CI&amp;nbsp;" style="edgeLabel;html=1;align=center;verticalAlign=middle;resizable=0;points=[];" parent="bnWY6VPmUPnhluAn7evO-42" vertex="1" connectable="0">
          <mxGeometry x="-0.5806" relative="1" as="geometry">
            <mxPoint x="-43" as="offset" />
          </mxGeometry>
        </mxCell>
        <mxCell id="HIr-e-Y5_8uv5Yb0HlNj-1" value="Region" style="points=[[0,0],[0.25,0],[0.5,0],[0.75,0],[1,0],[1,0.25],[1,0.5],[1,0.75],[1,1],[0.75,1],[0.5,1],[0.25,1],[0,1],[0,0.75],[0,0.5],[0,0.25]];outlineConnect=0;gradientColor=none;html=1;whiteSpace=wrap;fontSize=12;fontStyle=0;container=1;pointerEvents=0;collapsible=0;recursiveResize=0;shape=mxgraph.aws4.group;grIcon=mxgraph.aws4.group_region;strokeColor=#00A4A6;fillColor=none;verticalAlign=top;align=left;spacingLeft=30;fontColor=#147EBA;dashed=1;" parent="1" vertex="1">
          <mxGeometry x="190" y="570" width="720" height="510" as="geometry" />
        </mxCell>
        <mxCell id="w-eM_NjZrjQ7TcDnpYgz-2" value="Availability Zone" style="fillColor=none;strokeColor=#147EBA;dashed=1;verticalAlign=top;fontStyle=0;fontColor=#147EBA;whiteSpace=wrap;html=1;" vertex="1" parent="HIr-e-Y5_8uv5Yb0HlNj-1">
          <mxGeometry x="40" y="40" width="280" height="440" as="geometry" />
        </mxCell>
        <mxCell id="w-eM_NjZrjQ7TcDnpYgz-3" value="Availability Zone" style="fillColor=none;strokeColor=#147EBA;dashed=1;verticalAlign=top;fontStyle=0;fontColor=#147EBA;whiteSpace=wrap;html=1;" vertex="1" parent="HIr-e-Y5_8uv5Yb0HlNj-1">
          <mxGeometry x="400" y="40" width="280" height="440" as="geometry" />
        </mxCell>
        <mxCell id="w-eM_NjZrjQ7TcDnpYgz-4" value="" style="sketch=0;outlineConnect=0;fontColor=#232F3E;gradientColor=none;fillColor=#8C4FFF;strokeColor=none;dashed=0;verticalLabelPosition=bottom;verticalAlign=top;align=center;html=1;fontSize=12;fontStyle=0;aspect=fixed;pointerEvents=1;shape=mxgraph.aws4.application_load_balancer;" vertex="1" parent="HIr-e-Y5_8uv5Yb0HlNj-1">
          <mxGeometry x="340" y="70" width="40" height="40" as="geometry" />
        </mxCell>
        <mxCell id="w-eM_NjZrjQ7TcDnpYgz-5" value="Public subnet" style="points=[[0,0],[0.25,0],[0.5,0],[0.75,0],[1,0],[1,0.25],[1,0.5],[1,0.75],[1,1],[0.75,1],[0.5,1],[0.25,1],[0,1],[0,0.75],[0,0.5],[0,0.25]];outlineConnect=0;gradientColor=none;html=1;whiteSpace=wrap;fontSize=12;fontStyle=0;container=1;pointerEvents=0;collapsible=0;recursiveResize=0;shape=mxgraph.aws4.group;grIcon=mxgraph.aws4.group_security_group;grStroke=0;strokeColor=#7AA116;fillColor=#F2F6E8;verticalAlign=top;align=left;spacingLeft=30;fontColor=#248814;dashed=0;" vertex="1" parent="HIr-e-Y5_8uv5Yb0HlNj-1">
          <mxGeometry x="60" y="70" width="240" height="160" as="geometry" />
        </mxCell>
        <mxCell id="w-eM_NjZrjQ7TcDnpYgz-6" value="Private subnet" style="points=[[0,0],[0.25,0],[0.5,0],[0.75,0],[1,0],[1,0.25],[1,0.5],[1,0.75],[1,1],[0.75,1],[0.5,1],[0.25,1],[0,1],[0,0.75],[0,0.5],[0,0.25]];outlineConnect=0;gradientColor=none;html=1;whiteSpace=wrap;fontSize=12;fontStyle=0;container=1;pointerEvents=0;collapsible=0;recursiveResize=0;shape=mxgraph.aws4.group;grIcon=mxgraph.aws4.group_security_group;grStroke=0;strokeColor=#00A4A6;fillColor=#E6F6F7;verticalAlign=top;align=left;spacingLeft=30;fontColor=#147EBA;dashed=0;" vertex="1" parent="HIr-e-Y5_8uv5Yb0HlNj-1">
          <mxGeometry x="60" y="260" width="240" height="210" as="geometry" />
        </mxCell>
        <mxCell id="w-eM_NjZrjQ7TcDnpYgz-16" value="" style="sketch=0;outlineConnect=0;fontColor=#232F3E;gradientColor=none;fillColor=#ED7100;strokeColor=none;dashed=0;verticalLabelPosition=bottom;verticalAlign=top;align=center;html=1;fontSize=12;fontStyle=0;aspect=fixed;pointerEvents=1;shape=mxgraph.aws4.lambda_function;" vertex="1" parent="w-eM_NjZrjQ7TcDnpYgz-6">
          <mxGeometry x="32" y="146" width="48" height="48" as="geometry" />
        </mxCell>
        <mxCell id="w-eM_NjZrjQ7TcDnpYgz-7" value="Private subnet" style="points=[[0,0],[0.25,0],[0.5,0],[0.75,0],[1,0],[1,0.25],[1,0.5],[1,0.75],[1,1],[0.75,1],[0.5,1],[0.25,1],[0,1],[0,0.75],[0,0.5],[0,0.25]];outlineConnect=0;gradientColor=none;html=1;whiteSpace=wrap;fontSize=12;fontStyle=0;container=1;pointerEvents=0;collapsible=0;recursiveResize=0;shape=mxgraph.aws4.group;grIcon=mxgraph.aws4.group_security_group;grStroke=0;strokeColor=#00A4A6;fillColor=#E6F6F7;verticalAlign=top;align=left;spacingLeft=30;fontColor=#147EBA;dashed=0;" vertex="1" parent="HIr-e-Y5_8uv5Yb0HlNj-1">
          <mxGeometry x="420" y="260" width="240" height="210" as="geometry" />
        </mxCell>
        <mxCell id="w-eM_NjZrjQ7TcDnpYgz-8" value="Fargate" style="points=[[0,0],[0.25,0],[0.5,0],[0.75,0],[1,0],[1,0.25],[1,0.5],[1,0.75],[1,1],[0.75,1],[0.5,1],[0.25,1],[0,1],[0,0.75],[0,0.5],[0,0.25]];outlineConnect=0;gradientColor=none;html=1;whiteSpace=wrap;fontSize=12;fontStyle=0;container=1;pointerEvents=0;collapsible=0;recursiveResize=0;shape=mxgraph.aws4.group;grIcon=mxgraph.aws4.fargate;strokeColor=#D86613;fillColor=none;verticalAlign=top;align=left;spacingLeft=30;fontColor=#D86613;dashed=0;" vertex="1" parent="HIr-e-Y5_8uv5Yb0HlNj-1">
          <mxGeometry x="70" y="290" width="580" height="90" as="geometry" />
        </mxCell>
        <mxCell id="w-eM_NjZrjQ7TcDnpYgz-14" value="" style="sketch=0;outlineConnect=0;fontColor=#232F3E;gradientColor=none;fillColor=#C925D1;strokeColor=none;dashed=0;verticalLabelPosition=bottom;verticalAlign=top;align=center;html=1;fontSize=12;fontStyle=0;aspect=fixed;pointerEvents=1;shape=mxgraph.aws4.rds_mysql_instance_alt;" vertex="1" parent="HIr-e-Y5_8uv5Yb0HlNj-1">
          <mxGeometry x="200" y="410" width="40" height="40" as="geometry" />
        </mxCell>
        <mxCell id="w-eM_NjZrjQ7TcDnpYgz-15" value="" style="sketch=0;outlineConnect=0;fontColor=#232F3E;gradientColor=none;fillColor=#8C4FFF;strokeColor=none;dashed=0;verticalLabelPosition=bottom;verticalAlign=top;align=center;html=1;fontSize=12;fontStyle=0;aspect=fixed;pointerEvents=1;shape=mxgraph.aws4.nat_gateway;" vertex="1" parent="HIr-e-Y5_8uv5Yb0HlNj-1">
          <mxGeometry x="230" y="160" width="40" height="40" as="geometry" />
        </mxCell>
      </root>
    </mxGraphModel>
  </diagram>
</mxfile>
